<svg xmlns="http://www.w3.org/2000/svg" viewBox="0 0 124 124"><defs><style>.cls-1{fill:#fff;}</style></defs><title>website-icon-set</title><g id="Layer_7" data-name="Layer 7"><path class="cls-1" d="M40.47,93.52c.12.3-.35.51-.11.72C40.4,94,40.8,93.62,40.47,93.52Zm.12-4.79a7.15,7.15,0,0,1-.14-1.34c.36-.06.09.93.15,1Zm-1-9.86c.64,2.11.58,5.07,1,7.39-.3-.1-.2-.51-.24-.83C40.07,83.23,39.79,80.91,39.62,78.87Zm.48,5.42c-.31.27-.29.58-.29,1.12-.17.17-.06-.33-.08-.47,0-.32-.12-.64,0-.77C39.88,84.21,40,84.26,40.09,84.29Zm0-11c-.15-.17-.07-.47-.16-.67C40.33,72.8,40.17,73.16,40.11,73.32Zm-.38,8.12c-.27-.05-.26-.18-.27.1-.12,0-.12-.44-.16-.62.08,0,.16,0,.17.11s.08-.09.09-.15C39.76,81,39.56,81.32,39.73,81.45Zm-.44,10.44c.17.09.18.27.16.47s0-.38-.17-.16C39,92.14,39.41,92,39.29,91.88Zm-.18,3.75c.2.08,0,.36.07.52C39,96.07,39.16,95.79,39.11,95.63Zm0,1.23c-.35.17-.25-.33-.25-.52A.65.65,0,0,1,39.07,96.87Zm-16.76.46c0,.21-.55,0-.79,0C21.7,97.06,21.88,97.41,22.31,97.33ZM20.41,86.08c-.2-.09,0-.39-.07-.56C20.56,85.69,20.44,85.85,20.41,86.08Zm-.74-8.8c-.26-.12.08-.73,0-1.07C20.05,76.52,19.81,76.83,19.66,77.28Zm0-1.78c-.2-.09,0-.39-.07-.56C19.87,75,19.86,75.38,19.71,75.5Zm0-2c.11.06.21.54-.1.51C19.8,73.86,19.53,73.64,19.67,73.51ZM40.59,95.79c.15.08-.26.25-.27.4-.31-.05.23-.26-.08-.31C40.32,95.74,40.56,96,40.59,95.79Zm-2.39-37c.35-.1.41-.37.63-.55.71.45-.24,1.35.57,1.81a4.74,4.74,0,0,0,.19,2.83c.19,0,0-.18.09-.26.14,1.72-.61,3.66-.49,5.65,0,.39-.14-.26-.08-.26-.29,0,0,.64,0,.51a10.6,10.6,0,0,1,0,2.16c.19,0,.17-.07.18-.15.31,2-.15,5.1.44,6.85h-.17c.37.39.13.91.14,1.29-.37-.7-.19-2.07-.45-3-.2.77-.13,1.81-.24,2.41a6.33,6.33,0,0,1-.13-1.7c-.39.76-.08,1.72-.16,2.67.21-.18,0-.6.11-.87.47.24.27.58.24.83a62.9,62.9,0,0,0,.09,7c0,.16.13.31.16.47.37,1.93-.21,4-.24,5.86.09,0,.07-.06.09-.1.11.49-.13,1.19.22,1.65.28,0-.3-.46.19-.46-.11.15.06.53,0,.82.36,0,0-.11.09-.2.32.2.2.39.42.68.15,0,.17,0,.18-.1.25.06,0,.22,0,.31-.28-.15-.55-.31-.51-.63-.25.22-.52.44-.46.86-.43-.31-.1-.89-.22-1.6-.08,0-.16,0-.18.1-.21,0,.1-.13.09-.2s-.22-.12-.44-.12c-.16,1,.64,1.76.29,2.58-.22-.14-.11-.27-.16-.57-.1,0-.08.09-.09.15a3.63,3.63,0,0,1-.14-1.29,2,2,0,0,0,0,1.75c.1,0,.08-.09.09-.15.5.23,0,.56-.19.77-.11,0,.08-.29,0-.46-.18.1-.33.18-.18.35-.4-.19-.54.58-.46.81.34,0,0-.16.27-.2-.31,0,0-.2-.08-.47.19,0,.16.08.17.16s.07-.06.09-.1a2.29,2.29,0,0,1-.2.87c0-.16-.19-.14-.43-.17a2.4,2.4,0,0,1-1.77.71c.45-.21,1.11-.31,1-.74-.35-.06-1,.14-1.06.43-.12,0,.08-.28-.17-.11-.17,0,.07-.19.09-.25.13.19.34,0,.36-.19-.27.07-.62.1-.62.34-.18-.17-.39,0-.61-.12.11-.19.61-.14.71-.34-.26-.17-.39.28-.7.08,0,0-.33.26,0,.26a.91.91,0,0,0-1,.28c-.27,0-.82-.14-.53,0-.13.14-.51-.14-.26-.21a6.38,6.38,0,0,0-1.06.32c-.15,0-.2-.09-.17-.21-.52,0-.6,0-.79.13,0-.16-.23-.18-.17-.36-.33.09-.36.13-.45.29-.21-.23-.48.12-.7.08a.32.32,0,0,1,0,.41c-.2.08.13-.26-.17-.31s-.14.26-.36.3-.06-.27-.34-.27c-.68.3-2,.11-2.21.64a1.76,1.76,0,0,0-.53.08.22.22,0,0,0,0-.36q-.33,0-.36.19c-.26-.07.07-.19.09-.25-.13-.18-.31-.19-.52-.22a.7.7,0,0,0-.59-.84c-.25,0-.26.12-.27.25s.17.06.17,0-.41.33-.62.18c.05.19-.19.19-.18.35-.41,0,.18-.11,0-.31-.17.28-.26,0-.43-.17s-.3.18-.53,0c-.22.05.21.22-.18.2-.2-.35.17-.51,0-.82-.23.06-.28.16-.17-.06-.06,0-.4-.1-.44,0a.22.22,0,0,1-.17-.21c-.18,0-.14.22-.44.19-.11-.43.52-.4.37-.86.2,0,.09.15.26.16-.19-.62-1-.9-1.1-1.57.42.09.11-.5-.34-.42.19-.74.29-.5,0-1.33a.47.47,0,0,0-.36.5c-.54-.16-.24-.61-.24-1,.17.18.19,0,.18-.15-.08,0-.07.06-.09.1a31.68,31.68,0,0,1,.19-4c.14,0,.15.05.26.06.18-.6-.2-1-.17-.21-.14,0-.14-.56-.24-.77.12.18.28,0,.44-.09-.41-.16-.14-.39-.16-.72.29.09,0,.19.17.31.21-.09.06-.4,0-.51s-.08.09-.09.15c-.19,0,0-.22-.08-.31s.09.05.17.06A10.32,10.32,0,0,0,20.52,85c0-.08-.11,0-.26,0,.24-.23-.17-.24,0-.51.25.08.11.17.16.41.13-.36.28-.87,0-1.17-.18.08,0,.36-.19.45-.26-.21-.09-.65-.06-.92.46.24-.18-.29.18-.3,0-.12-.14.06-.26-.06.08-.41-.13-.67-.06-1.07.26.12,0,.24.17.36.25-.26-.19-.43-.07-.87-.23.15,0,.35-.27.4a.34.34,0,0,1-.17-.31.62.62,0,0,0,.26.06c-.08-1.61-.24-2.32-.34-3.94.08,0,.07.06.09.1.83-1.4-.06-3.06.12-4.64a.23.23,0,0,0-.18.25c-.3-.33.14-.64.11-1-.46.23.31-.23-.26-.06l0-.71a.22.22,0,0,1,.17.26c.24-1.91,0-4.24.32-5.86-.09,0-.07.06-.09.1-.17-1.1,1.13-3.19,1-4.32,0-.15-.35-.2-.26-.31-.1,0-.16,0-.18,0-.26-.12.61-.18.19-.4.18-.06.23.38.34.52a2.75,2.75,0,0,0,.41-2.29c.35.3.26-.33.28-.56.14-.06,0,.44.25.52a.8.8,0,0,0,0-1.07,0,0,0,0,1,.09,0c.09,0,.07-.06.09-.1.19,0,0,.18.08.26s0-.18.09-.25c.25.26.4-.12.36-.35,0-.06.4.55.61.21a1,1,0,0,0,.6.37c.37-.05.47-.27,1.06-.19.13-.11-.15-.42-.07-.67.15,0,.16.18.26.26.33-.12.58-.38,1-.19.1,0,.06-.1.18-.1s-.18-.1-.26-.16c.25-.1.65.14.52.42a.36.36,0,0,0,.36-.45c.14-.15.07.22.08.31.17-.07.06-.31.19-.41s0,.25.08.36.43.26.44,0c.17,0,.06.17.26.16.15-.22.26.16.27-.15.12,0,.07.13.08.21.57.09.38-.29.54-.45.2,0,0,.29.08.41s.36,0,.52.16c.2,0-.1-.08.09-.15a1.69,1.69,0,0,1,.35.16c.29-.15.23-.66.26,0,.21-.1.16-.35.28-.51.18.14-.07.47-.1.66.17.2.42.13.87.22.22-.13.06-.47-.07-.57h-.44c.11-.12.38-.09.53,0s0-.22.18-.25c-.33.25,1.25.69,1.83.44.17-.07-.1-.32.1-.41s.15.34.08.41c.54,0,.59-.23.63-.5.19,0,.18.13.17.26.5,0,.3-.44.46-.66,0,.32,0,.94.68.94.06-.1.14.06,0,.05.09.31.58.22.78.37C37.23,57.91,37.58,58.41,38.2,58.78Zm-.79,38a4.2,4.2,0,0,0-.72.8C37.2,97.5,37.37,96.95,37.41,96.76Zm1.52-11.37c0,.33-.16.52.07.77A.86.86,0,0,0,38.93,85.39Zm-.51,6.26c-.07.16.08.19.08.31,0,.74,0,.07.18-.2.18.13-.25.54.25.68-.05-.6.11-.83-.32-1.14a.33.33,0,0,0,0-.57C38.35,91.16,38.83,91.69,38.42,91.65Zm.37-7.71c.25.28-.2.61.16.72C38.88,84.43,39.13,84,38.79,83.94ZM39,71.65a.94.94,0,0,0,.07.77A.75.75,0,0,0,39,71.65Zm0,1.44c.06.3-.09.41.16.57C39.14,73.47,39.08,73.05,39,73.09ZM39,63.83c-.31.17.14,1.38.05,1.49C39.35,65.05,38.81,64,39,63.83Zm-2.6,33.31s0-.1-.09-.11c.14.18-.38.21-.1.31.06-.07.54-.14.27-.25C36.52,97.12,36.51,97.15,36.44,97.14Zm-10,.38v.26c.23,0,.31-.29.18-.3S26.53,97.53,26.43,97.52Zm-.44.14a.37.37,0,0,0,.34.27C26.36,97.76,26.23,97.68,26,97.66Zm-.18.2c-.17,0-.11-.14-.35-.11,0,.07-.15,0-.18.1C25.61,98,25.52,97.85,25.81,97.86Zm-5.5-18.31c.13.14-.19.5.16.62C20.63,79.88,20.6,79.71,20.31,79.55Zm.2,2.35a.57.57,0,0,0,0-.56A.56.56,0,0,0,20.51,81.9ZM20,77.7a12,12,0,0,0,.11,2.66v.41c0,.1,0,.47.08.21.17-.7-.31-1.52.05-2,0,.08-.11.26.08.26C20.22,78.58,20.3,78.11,20,77.7Zm20-5.77c.19-.1-.16-.42.1-.56s0,.18.08.26c.31-.08,0-.37.28-.56.16.36.08.66.23,1.19-.33,0,0-.38-.25-.47C40.09,72,40.2,72.15,40,71.93Zm-.57,8.63c-.45-.11.06-.75-.24-.93C39.66,79.62,39.16,80.28,39.4,80.56Zm.77-13c.11.64.22,2.3.35,3.4-.3-.1-.13-.47-.25-.67-.36.16.07.52-.2.77a14.73,14.73,0,0,1,0-5c-.31-.65.05-2,.08-3.09.23-.07-.06.57.16.67.19-.6-.14-1.11,0-1.75-.36,0-.21.36-.36.51-.31-.59.4-1.23.22-1.75.67,1.76.14,4.64.17,7.05C40.15,67.71,40.18,67.62,40.17,67.56Zm0,1.54c-.19.23,0,.64.07.88C40.31,69.73,40.38,69.3,40.13,69.1Z"/><path class="cls-1" d="M101,96.29c.17.24-.25.52,0,.65C101.05,96.75,101.38,96.32,101,96.29Zm-.68-4.2c-.28-.44-.2-.88-.34-1.16.34-.11.22.8.3.88ZM98.15,83.5c.83,1.81,1.14,4.44,1.83,6.42-.32,0-.28-.42-.35-.69C99.07,87.33,98.51,85.3,98.15,83.5Zm1.09,4.75c-.27.29-.21.56-.14,1-.14.18-.11-.28-.14-.4-.07-.28-.21-.55-.08-.69Zm-1.06-9.75c-.16-.14-.1-.41-.21-.59C98.35,78,98.22,78.36,98.17,78.51Zm.36,7.28c-.27,0-.28-.13-.25.12-.12,0-.17-.38-.23-.53.08,0,.16,0,.18.08s.06-.09.07-.15C98.51,85.37,98.35,85.69,98.53,85.78Zm1.06,9.31c.18.05.23.2.24.38s-.09-.33-.2-.11C99.39,95.36,99.73,95.2,99.59,95.09Zm.51,3.33c.21,0,.09.31.17.44C100.06,98.84,100.18,98.55,100.1,98.43Zm.21,1.09c-.31.23-.32-.24-.35-.4A.57.57,0,0,1,100.31,99.52ZM84.09,103.8c0,.21-.55.09-.77.16C83.43,103.69,83.69,104,84.09,103.8ZM80,92.93c-.21-.06-.09-.39-.16-.56C80.12,92.51,80,92.69,80,92.93ZM78.13,84c-.27-.1,0-.76-.08-1.1C78.45,83.22,78.23,83.56,78.13,84ZM78,82.2c-.21-.08-.06-.4-.13-.57C78.13,81.67,78.14,82.07,78,82.2Zm-.21-2c.12,0,.25.54-.06.53C78,80.51,77.67,80.3,77.8,80.16Zm23.77,18.08c.17,0-.21.27-.19.41-.31,0,.18-.27-.14-.25C101.3,98.26,101.58,98.42,101.58,98.24ZM95.88,65.42c.35-.08.42-.33.64-.48.71.43-.27,1.21.54,1.65a3.79,3.79,0,0,0,.19,2.56c.19,0,0-.16.09-.23.15,1.54-.57,3.3-.36,5.1,0,.36-.15-.23-.09-.23-.29,0,0,.57,0,.46A9.47,9.47,0,0,1,97,76.19c.19,0,.17-.07.17-.14.41,1.79.18,4.6.93,6.11H98c.4.31.21.8.26,1.14-.45-.58-.38-1.83-.72-2.64a20.22,20.22,0,0,0,0,2.19,5.09,5.09,0,0,1-.28-1.52c-.32.72.07,1.55.09,2.42.19-.19,0-.54,0-.79.49.16.32.49.33.72a37.75,37.75,0,0,0,.92,6.24c0,.14.18.25.23.39.64,1.65.39,3.57.7,5.22.08,0,.06-.07.07-.11.19.41.08,1.07.51,1.41.27-.09-.37-.35.1-.44-.09.16.15.45.13.73.35-.05,0-.1.05-.2.35.11.27.3.54.51.15,0,.16-.07.15-.12.25,0,0,.2.05.27-.3-.07-.6-.15-.62-.45-.21.25-.43.49-.29.85-.48-.18-.27-.76-.52-1.36-.07,0-.15.07-.16.12-.21,0,.08-.14.05-.2s-.23-.06-.45,0c0,.93,1,1.41.77,2.21-.24-.07-.16-.22-.27-.47-.1,0-.06.1-.06.15a3,3,0,0,1-.39-1.11,1.63,1.63,0,0,0,.29,1.55c.1,0,.06-.1.06-.15.53.09.15.49,0,.72-.11,0,0-.28-.08-.41-.16.13-.29.23-.11.35-.42-.08-.41.63-.28.82.34,0-.07-.13.22-.24-.31.07-.06-.17-.17-.39.18-.06.18,0,.2.1s.06-.07.07-.11a1.91,1.91,0,0,1,0,.81c0-.15-.22-.08-.46,0a2.55,2.55,0,0,1-1.58,1c.39-.29,1-.53.8-.89-.35,0-.94.35-.95.63-.11,0,0-.27-.19-.06-.16,0,0-.19,0-.25.17.14.33-.09.31-.26-.25.13-.58.23-.53.45-.21-.11-.38.07-.62,0,.07-.2.57-.26.62-.47-.29-.09-.32.34-.67.23.05,0-.27.31,0,.23a1,1,0,0,0-.89.47c-.26.1-.83.07-.51.15-.09.16-.52,0-.3-.14a6.52,6.52,0,0,0-1,.54c-.15,0-.21,0-.21-.15-.5.12-.58.14-.74.3,0-.15-.26-.11-.24-.3-.3.16-.33.2-.37.38-.25-.17-.44.23-.67.24a.29.29,0,0,1,.08.39c-.18.12.07-.28-.23-.25s-.08.28-.28.36-.12-.24-.39-.17c-.59.44-1.89.57-2,1.14a1.79,1.79,0,0,0-.49.21.21.21,0,0,0-.07-.35q-.33.08-.3.27c-.27,0,0-.2,0-.27-.17-.14-.34-.1-.56-.09a.69.69,0,0,0-.77-.67c-.24,0-.22.17-.21.3s.18,0,.17,0c.16,0-.32.42-.56.32.09.17-.15.23-.1.39-.4.08.15-.15-.06-.3-.1.32-.26,0-.46-.06s-.25.25-.51.16c-.2.1.25.17-.13.24-.27-.3,0-.54-.17-.81-.21.11-.24.22-.18,0-.06,0-.41,0-.42.14a.23.23,0,0,1-.21-.17c-.16.09-.09.25-.39.29-.21-.4.42-.52.17-.93.19-.05.12.13.29.1-.33-.57-1.17-.67-1.41-1.32.43,0,0-.52-.42-.35,0-.78.17-.55-.24-1.34a.48.48,0,0,0-.25.58c-.57-.05-.36-.56-.43-.94.21.14.19,0,.15-.19-.08,0-.06.07-.07.12-.44-1.2-.31-2.68-.57-4.1.14,0,.16,0,.27,0,.07-.64-.37-1-.21-.18-.14,0-.23-.54-.37-.74.15.16.28-.05.42-.16-.43-.09-.2-.37-.27-.7.3,0,0,.2.22.29.19-.12,0-.41-.07-.52s-.06.1-.07.17c-.19,0-.07-.22-.13-.3s.09,0,.18,0c-.06-.58-.17-.79-.26-1.29,0-.07-.11,0-.26,0,.21-.27-.2-.22-.06-.52.26,0,.13.15.22.4.07-.39.15-.92-.14-1.2-.17.1,0,.37-.12.49-.29-.18-.18-.65-.2-.93.49.18-.22-.27.14-.33-.06-.11-.13.08-.27,0,0-.43-.21-.67-.2-1.09.27.09,0,.24.21.35.21-.3-.24-.42-.18-.88-.21.18,0,.36-.22.45a.35.35,0,0,1-.21-.3.61.61,0,0,0,.27,0c-.29-1.64-.52-2.34-.8-4,.08,0,.07.06.1.1.69-1.52-.36-3.14-.3-4.78a.23.23,0,0,0-.16.27c-.33-.32.09-.67,0-1-.45.27.29-.25-.26,0l0-.74a.23.23,0,0,1,.18.26c.11-2-.27-4.38,0-6.06-.08,0-.07.06-.09.11-.21-1.14,1.07-3.31.92-4.46,0-.15-.35-.21-.25-.32-.1,0-.16,0-.18,0-.25-.12.61-.18.19-.42.18-.06.22.39.33.53a2.88,2.88,0,0,0,.43-2.34c.34.31.27-.33.29-.56.14-.06,0,.46.24.53a.83.83,0,0,0,.05-1.09,0,0,0,0,1,.09,0c.08,0,.07-.06.09-.1.19,0,0,.19.08.26s0-.18.1-.26c.24.27.4-.11.37-.35,0-.06.39.57.6.24a1,1,0,0,0,.6.39c.37,0,.48-.25,1.06-.15.13-.11-.14-.43-.05-.67.15.05.15.19.25.27.34-.11.59-.36,1-.15.1,0,.06-.1.18-.09s-.18-.11-.26-.17c.25-.09.64.17.51.43a.35.35,0,0,0,.37-.44c.14-.15.07.22.07.31.18-.06.06-.31.2-.39s0,.25.07.36.43.27.44,0c.17,0,.05.17.26.16.15-.21.26.16.27-.14.12,0,.07.13.08.2.57.1.39-.27.55-.42.2,0,0,.28.07.4s.36,0,.52.18c.2,0-.1-.08.09-.14a1.75,1.75,0,0,1,.34.17c.29-.14.25-.63.26,0,.21-.09.17-.34.29-.48.17.15-.08.45-.12.64.17.2.41.14.87.24.22-.11.07-.45-.06-.54l-.44,0c.11-.12.38-.07.52,0s0-.21.19-.24c-.34.23,1.23.7,1.82.49.17-.06-.1-.31.11-.38s.14.32.07.39c.54.05.6-.19.64-.45.19,0,.18.13.16.25.5,0,.31-.4.47-.6,0,.3,0,.88.66.9.07-.09.13.06,0,0,.08.29.58.22.77.37C94.93,64.59,95.27,65.07,95.88,65.42ZM98.66,99.8a3.89,3.89,0,0,0-.54.87A.9.9,0,0,0,98.66,99.8Zm-.44-10.4c.06.3-.1.49.17.68C98.47,89.9,98.38,89.47,98.23,89.4Zm.46,5.65c0,.15.12.15.13.26.15.65,0,.06.14-.21.2.08-.15.53.36.55-.16-.52,0-.75-.52-.95a.28.28,0,0,0-.08-.5C98.54,94.64,99.11,95,98.69,95.05Zm-.79-6.92c.28.22-.11.57.25.62C98.05,88.56,98.25,88.16,97.9,88.13ZM97,77.08a.77.77,0,0,0,.11.69C97.24,77.56,97.11,77.26,97,77.08Zm.05,1.3c.08.27-.06.38.2.5C97.22,78.7,97.13,78.33,97,78.38ZM96.71,70c-.31.16.16,1.24.08,1.35C97,71.12,96.49,70.13,96.71,70Zm1.08,30.34s0-.09-.11-.07c.17.13-.32.27,0,.29,0-.08.5-.25.21-.28C97.87,100.32,97.87,100.35,97.79,100.35ZM88.14,103l.05.25c.23,0,.23-.35.11-.33S88.24,103,88.14,103Zm-.4.24a.36.36,0,0,0,.39.18C88.12,103.27,88,103.22,87.74,103.26Zm-.13.23c-.17,0-.14-.11-.36,0,0,.07-.14.08-.15.14C87.46,103.72,87.33,103.55,87.61,103.49ZM79,86.29c.15.13-.13.53.23.61C79.38,86.6,79.33,86.42,79,86.29Zm.5,2.38a.6.6,0,0,0-.06-.57A.59.59,0,0,0,79.52,88.67Zm-1-4.23a12.23,12.23,0,0,0,.41,2.71l0,.42c0,.11.08.48.11.2.07-.73-.49-1.52-.19-2,.05.07-.08.28.11.25C78.83,85.31,78.85,84.83,78.52,84.44Zm19.43-7.17c.18-.1-.19-.37.07-.51s0,.16.1.23c.31-.09,0-.33.24-.52.18.31.11.58.3,1-.33,0-.07-.34-.28-.4C98.07,77.31,98.18,77.45,97.94,77.27ZM98.1,85c-.45,0,0-.67-.33-.81C98.27,84.16,97.84,84.81,98.1,85Zm-.17-11.69c.14.57.3,2.05.51,3-.31-.08-.16-.41-.28-.59-.35.16.1.46-.15.7A10.86,10.86,0,0,1,97.75,72c-.33-.58,0-1.77,0-2.77.23-.07-.06.52.17.6.19-.54-.16-1-.06-1.57-.36,0-.21.32-.36.45-.32-.53.41-1.1.22-1.57.64,1.59.17,4.16.28,6.32C97.92,73.48,97.95,73.4,97.93,73.35Zm0,1.38c-.18.21,0,.57.1.78C98.16,75.28,98.21,74.9,98,74.73Z"/><path class="cls-1" d="M109.08,51c.84.52,1.12,1.34,1.78,1.56C110.34,52.1,109.54,50.94,109.08,51ZM96.91,41.09c-1.5-.95-2.62-2-3.51-2.64,0-.42,2.43,1.84,2.73,2ZM70.36,21l1.88,1.38,1.14.79,2.37,1.7c1.61,1.18,3.29,2.44,5,3.72,3.37,2.56,6.79,5.2,9.86,7.42-.42.06-1.42-.87-2.26-1.5L79.55,28l-4.3-3.23-2.09-1.57-1-.77ZM85.27,32.4A12.14,12.14,0,0,0,88,34.94c.35.49-.87-.62-1.23-.89a11.65,11.65,0,0,1-2-1.6C84.94,32.41,85.12,32.44,85.27,32.4ZM45,23.06c-.34.45-1.18,1-1.66,1.44C43.43,23.92,44.49,23.33,45,23.06ZM77.8,26.87c-.28.12-.61-.16.1.42,0,.17-1.19-.81-1.68-1.14a.47.47,0,0,1,.37.08c0-.1-.19-.25-.34-.39C76.64,25.9,77.38,26.75,77.8,26.87Zm26.45,21.77a3.44,3.44,0,0,1,1.29.82c.48.58-1-.77-.5-.18C104.77,49.37,104.71,48.86,104.25,48.65Zm9.5,7.85c.31,0,.93.72,1.36,1C114.81,57.5,114.18,56.78,113.75,56.5Zm3.14,2.56c.25.65-1-.47-1.48-.86A5,5,0,0,1,116.89,59.05Zm-8,15.11c.54.45-.4.39-.5.61C107.91,74.14,108.9,74.7,108.93,74.17Zm-30-21.65c-.35,0-1-.79-1.49-1.1A4.18,4.18,0,0,1,78.89,52.52ZM59.33,37.84c-.07.27,0-.1-.07-.05C59.31,37.34,59.36,37.69,59.33,37.84Zm-.11,0c0,.23,0,.05,0,.12C59.14,37.68,59.2,37.66,59.22,37.82Zm-.39.4a1.15,1.15,0,0,1,.24-.27c.08-.08,0-.05,0-.07s0,0,.12.17c-.06-.1-.06-.08,0-.06s0,0,0,0A1.13,1.13,0,0,1,58.83,38.21ZM115,55.55c.3,0,.49.73.88,1.06-.31.15-.53-.72-.84-.57C114.69,55.69,115.45,56,115,55.55ZM8,53.1c-.48-.08-1.25.42-1.86.61.73-1.44,3.69-2.46,4.39-4A49.48,49.48,0,0,0,17.82,44c-.09-.17-.51.32-.73.43,4.42-3.48,10-6.72,15.16-10.72,1-.77-.59.61-.63.57.19.21,1.67-1.26,1.36-1,1.4-1.15,4.59-3.55,5.66-4.27,0-.2-.29,0-.51.16,2.25-1.85,5.14-4,8-6.14l6.71-5c2.51-1.89,4.89-3.7,7-5.39,1.36,1,2.42,1.83,3.4,2.54l0,.2a56.36,56.36,0,0,1,6.17,4.8c-2.36-1.58-6.05-4.57-9.55-7.32-1.72,1.3-3.37,2.58-4.76,3.72,1.46-1,3.09-2.16,4.75-3.36,2.44,2,4.91,4,6.6,5.46-2.06-1.52-4.28-3.27-6.6-5.16l-1.26.93c.4-.24.81-.5,1.25-.8,3.2,2.87,7.07,5.69,11,8.91-.75-.87-2.72-2.25-3.94-3.32,1.22.38,2.77,1.89,3.91,2.85l2.66,2.22,2.25,1.83,4.51,3.57,9,7c.4.32.87.52,1.29.82,5.15,3.66,10.1,8.37,14.86,12.22.05-.07-.12-.18-.21-.28,1.3.91,3,2.54,4.35,3.21.05-.32-1.35-.7-1.07-1.1.33.41,1.38,1,2.09,1.71.27-.24-.24-.26-.47-.49.7.15,1.1.63,2,1,.14-.08,0-.21-.15-.35.29-.08.54.47.79.64a3.13,3.13,0,0,1-1.9-.87,6.8,6.8,0,0,0,1.95,2.15c-1-.27-2.33-1.74-4.22-3.1a.47.47,0,0,0,.15.35c-.17.13-.29-.36-.47-.49s-.42-.06-.54.13c2.52,2.22,4.85,3.07,6.77,5.06-.48-.1-.76-.47-1.55-1,0,.1.19.25.34.39a37.67,37.67,0,0,1-3.38-2.53,20.27,20.27,0,0,0,4.45,3.62c0-.1-.19-.25-.34-.39.85,0,1.47,1.11,1.85,1.74-.12,0-.71-.67-1.18-1a1.38,1.38,0,0,0,.81.88c-.69,0,1.19,1.65,1.82,2,.27-.22-.42-.28-.36-.63-.16.27-.54-.4-1.23-.89.06-.19.29,0,.5.18.05-.07-.12-.18-.21-.28A23.23,23.23,0,0,1,118,61.43c-.37-.35-.46-.12-.67,0,.55,1,1.47,2.16.86,3-.29-.81-.18-1.57-1.35-2.35-.34.17-.2,1.12.51,1.78,0,.15-.67-.65-.37-.08-.12.12-.44-.45-.6-.6.56.28.15-.32-.3-.7a1.3,1.3,0,0,0,.53,1.22c-.52-.19-.28.28-.65.26-.43-.49,0-.8-.47-1.29-.58-.13.52.91-.18.76.08,0,.49.82.65.53-.4.11-.47.66.18,1.39-.06.3-.8.41-.2.52.29.4-.63.15-.69-.22.14.53,0,1,.25,1.56-.13.09-.35,0-.63-.29-.28.44-.31.52-.1.93-.41-.35-.59-.18-1-.61a1.33,1.33,0,0,0,.51,1c-.71-.3.06.66-.18.76a3,3,0,0,1,1,.85c.1.33-.6-.65-.9-.5,0,.27.58.65.56.91-.27,0-.73-.51-.88-.26.39,1.19-.79,1.89.45,3.19,0,.13-.19.28-.07.62a1.9,1.9,0,0,0-.92-.75q-.19.28.3.7c-.33.08-.46-.45-.6-.6-.53-.26-.64-.12-.86,0-1-.79-1.74-1.36-2.48-1.23-.17.18.16.46.49.74.18.12.24,0,.11-.14.27,0,.64,1,.14.9.52.35.38.56.81.88-.28.3-.18-.38-.79-.64.64.73-.25.13-.67,0-.1.2.31.63-.2.52,0,.29.68.28.41.56-1-.56-1.22-1.2-2.09-1.71,0,.32.25.56-.24,0-.08,0-.48.13-.15.45a1.05,1.05,0,0,1-.63-.29c0,.24.49.58.25.77-1.18-.8-.74-1.27-2-2.08.09-.19.44.23.56.12-1.7-1.11-2.87-1-4.65-2.31.47-.16-1.24-1.13-1.27-.58a14.62,14.62,0,0,0-3.4-2.77,2.68,2.68,0,0,0,1.09,1.34c-.72.12-1.7-1.05-2.65-1.82.55.22.22-.06-.28-.46-.05.07.12.18.21.28-3.27-2.37-6.63-5.58-10.28-8.49.05-.14.22,0,.3-.1-1.46-1.4-2.71-1.92-.63-.29A22.47,22.47,0,0,1,82,55.39c.53.26.15-.25,0-.55-.64,0-1.08-.69-1.94-1.36.39-.05.48.41.9.5-.11-.36-1-.87-1.31-1.07,0,.1.19.25.34.39-.14.14-.58-.42-.84-.57.07,0,.19,0,.24,0-1.44-1.2-2-1.58-3.33-2.6-.22-.13,0,.13-.17.2-.46-.68-.72-.36-1.31-1.07.34,0,.49.26,1.16.72a13.38,13.38,0,0,0-3-2.45c.09.31.9.77,1.07,1.1a10.72,10.72,0,0,1-2.41-1.85c.88.11-.85-.45-.67-.78-.33-.2.07.24-.3.1-1-.91-1.8-1.28-2.8-2.17.46,0,.61.49,1,.61-.53-.75-1.22-.74-2.28-1.74.25.5.91.73.88,1.06a2.29,2.29,0,0,1-.9-.5c.11,0,.23,0,.3-.1-2.1-1.64-3.63-2.78-5.16-3.93l-1.16-.87-.6-.45-.15-.11-.07-.06h0l-.13,0c0-.09,0-.07,0-.08.05-.28,0-.45-.11-.51a.8.8,0,0,0-.19.39l0,.16h0l-.06,0-.13.1-.54.4-1.09.78a1.25,1.25,0,0,0,.78-.36c-.67.88-1.78,1.16-2.64,1.83.93-.11-.8.22,0,.31l-1.9,1.4c0-.19.23-.4.58-.64-5.2,3.59-11.21,8.42-15.74,11.36.05.07.21-.07.32-.13-2.82,2.31-9.2,5.46-12.08,7.8-.39.31-.3.67-.66.81,0,.1.12.1.24,0-.15.43-.86-.11-1.19.66-.28,0,.85-.92,1.15-1.28a27.81,27.81,0,0,0-6.32,4.22c.57-.86-1,.45-1.65.89-.25,0,1.15-.91,1.2-1.21A7.68,7.68,0,0,0,16.49,67c-.16.1-.13,0-.05-.07s-.21.07-.32.13c-.14-.14.46-.39.63-.57-.09-.17-.51.32-.73.43.53-.71-.58-.07-1.16.42-.15.12,1.2-1.4.18-.89.33-.42.64-.83.59-1.19-.37-.19-1,.16-1.17-.45-.37.11-1,.94-1.72,1.37,0-.22.38-.48.52-.71-.53,0-1.38.3-1.12-.38-.09-.05-.31.15-.37.06-.4.22-.16.34-.25.51-.43,0,0-.78.78-1.22-.29-.18-.81.12-1.43.62-.5.2.54-.5.76-.67-.29,0-.86.57-1.19.66-.06-.2.65-.52.9-.77s.42-.85-.26-.35c-.08-.14.41-.38.25-.51-.68.32.25-.51-.56.09,0-.13.3-.31.49-.47-.13-.61-1,.27-1.54.48,0-.23.74-.59,1-.87.43-.47-.24-.27.1-.72-.19-.1-.15.24-.46.23a2.16,2.16,0,0,1,.2-.58c-.59.08-1.88,1.12-.29-.11-.39,0-1,.58-1.52.79A8,8,0,0,1,10.6,61c.43-.54.07-.57,0-1.11A3.23,3.23,0,0,0,9.18,61l.26.35c-.4.16-.47-.13-.31-.42-.14-.12-.61.42-.78.36.87-.23,1-2.33,0-2.28-.31,0-.78.71-1.14.73-.14,0,.79-.78,1-.87-.25-.49-1,0-1.72.51-.09-.17.23-.4.58-.64-.33-.38-1.35.63-2,.95.84-.64,2.48-1.85,2-2.36-.3.14.07-.22.14-.1.76-.68.2-.88.48-1.34C6.29,55.57,7.4,54.29,8,53.1Zm107.74,7.14a22.18,22.18,0,0,0,1.65,2.25C117.48,61.93,116.16,60.65,115.71,60.24ZM87.43,35.62a9.37,9.37,0,0,0,2,1.53A8.65,8.65,0,0,0,87.43,35.62ZM103.17,48.9c.36.38.53.32.84.57,1.92,1.51.2.12-.41-.56.44.12,1.24,1.32,1.87,1.18-1.57-1.19-2.06-1.79-3.1-2.07a2.76,2.76,0,0,0-1.44-1.17C101.89,48,103.5,48.62,103.17,48.9ZM83.66,32.77c.86.38,1.46,1.42,1.94,1.36C85,33.7,84.06,32.66,83.66,32.77ZM41.28,27.18a9.52,9.52,0,0,0,2-1.57A7.42,7.42,0,0,0,41.28,27.18Zm3.81-2.8c.75-.63,1.14-.74,1.39-1.24C46,23.51,44.91,24.38,45.09,24.38ZM20.72,42.53c.65-.1,3.53-2.81,3.89-3C23.72,39.88,21.2,42.45,20.72,42.53Zm95.43,19.31c-.11-.07-.26-.21-.32-.14.53.25.32.74.73.71-.15-.2-.07-.74-.49-.74C116.15,61.73,116.22,61.8,116.15,61.84Zm-4.48,9.24.65.53c.22-.12-.57-.85-.67-.78C111.74,70.94,111.75,71,111.67,71.08Zm.11.66c.35.21.68.41.88.26C112.25,71.64,112,71.57,111.78,71.74Zm.41.56c-.11.13-.43-.2-.48.06.17.14,0,.22.15.35C112.57,72.86,112,72.52,112.19,72.3ZM62,39.08c.43.18,1.17,1.18,1.68,1.14A2.89,2.89,0,0,0,62,39.08Zm6.19,4.7a5.84,5.84,0,0,0-1.44-1.17A5.75,5.75,0,0,0,68.16,43.78ZM59.5,37.52l.11.08,1,.8c1.1.88,2.16,1.7,3.35,2.53l1,.85c.23.24,1.23,1,.58.36-1.7-1.58-4.09-2.89-5.1-4.16.22.12.61.63.71.46L60,37.53l-.14-.11h-.1C59.66,37.38,59.59,37.4,59.5,37.52ZM41.39,25.9c-.39.05-1,1-1.55,1-.14-.14.46-.39.63-.57-.4-.09-1,.72-1.65.89.84-.82,1.68-1.35,3-2.51.17.29-1,.78-1.07,1.11C41.44,25.71,41.81,25.3,41.39,25.9Zm34-.57c-.53.15-1.87-1.58-2.52-1.72C73.08,23.17,74.5,24.95,75.35,25.33Zm-45.57,9c1.6-1.34,5.91-4.69,8.71-7-.07.43-1.15,1-1.61,1.51.66,0,1.32-1.08,2.14-1.36a157.21,157.21,0,0,1-13.08,9.84c-1.51,1.51-5.22,3.84-8.16,6-.34,0,1.55-1.08,1.66-1.44-1.7,1-2.83,2.29-4.57,3.47.29.23,1.08-.55,1.57-.72-1.34,1.4-3.5,2.11-4.73,3.26,4.2-4,12.1-9.22,18.42-14C30.17,34.06,29.93,34.21,29.78,34.33Zm4.08-3a10,10,0,0,0,2.26-1.77A7.55,7.55,0,0,0,33.86,31.33Z"/><path class="cls-1" d="M104.79,50.74c.13.25-.33.45-.08.62C104.74,51.18,105.12,50.82,104.79,50.74Zm-.1-4.1c-.22-.45-.11-.86-.21-1.14.35-.07.14.79.2.88Zm-1.58-8.36c.79,1.75.92,4.28,1.42,6.24-.31-.06-.23-.42-.29-.7C103.86,42,103.43,40,103.12,38.28Zm.83,4.59c-.29.25-.25.52-.22,1-.16.16-.08-.28-.1-.39,0-.27-.16-.53,0-.66Zm-.77-9.35c-.17-.13-.11-.39-.21-.56C103.35,33.05,103.23,33.37,103.18,33.52Zm.22,7c-.27,0-.27-.14-.26.1-.12,0-.14-.37-.2-.52.08,0,.16,0,.18.08s.07-.08.08-.14C103.41,40.07,103.23,40.37,103.4,40.47Zm.13,8.93c.17.07.19.22.18.39s0-.32-.18-.13C103.3,49.63,103.66,49.52,103.53,49.4Zm0,3.21c.2.06,0,.31.09.44C103.39,53,103.56,52.74,103.5,52.61Zm0,1.06c-.35.16-.26-.28-.27-.44A.53.53,0,0,1,103.51,53.67Zm-16.74,1c0,.17-.55,0-.79,0C86.15,54.45,86.34,54.73,86.77,54.65ZM84.4,45.57c-.2-.06,0-.32-.1-.45C84.53,45.24,84.42,45.38,84.4,45.57Zm-1.29-7.08c-.26-.08,0-.6-.05-.87C83.44,37.84,83.22,38.11,83.11,38.49ZM83,37c-.2-.06-.05-.31-.11-.45A.26.26,0,0,1,83,37Zm-.19-1.61c.12,0,.25.42-.06.42C83,35.71,82.7,35.55,82.83,35.44ZM105,52.68c.16.07-.25.22-.26.36-.31,0,.22-.23-.09-.26C104.72,52.65,105,52.86,105,52.68Zm-5.15-31.3c.34-.12.37-.36.56-.54.76.3-.08,1.16.77,1.46a3.54,3.54,0,0,0,.5,2.38c.19,0,0-.16.07-.23.32,1.44-.23,3.17.07,4.84,0,.34-.16-.21-.1-.21-.29,0,.06.54,0,.44a7.5,7.5,0,0,1,.23,1.83c.19,0,.16-.07.17-.14.49,1.68.28,4.35,1,5.79H103c.4.3.2.76.24,1.09-.42-.57-.35-1.75-.67-2.51a18.93,18.93,0,0,0-.05,2.07,4.67,4.67,0,0,1-.26-1.44c-.33.68.05,1.46,0,2.28.19-.17,0-.51,0-.75.48.16.31.47.3.69a52.85,52.85,0,0,0,.53,6c0,.13.15.26.19.39.47,1.63,0,3.42,0,5,.09,0,.07-.05.09-.09.13.41-.08,1,.29,1.4.28,0-.32-.38.17-.4-.11.14.08.45,0,.7.36,0,0-.09.09-.18.33.16.21.32.45.57.15,0,.16,0,.17-.09.25,0,0,.19,0,.26-.29-.12-.56-.24-.53-.52-.25.2-.5.4-.43.75-.44-.25-.13-.76-.28-1.36-.08,0-.16,0-.17.09-.21,0,.1-.12.08-.18s-.22-.09-.44-.08c-.12.87.71,1.47.38,2.19-.23-.11-.12-.23-.18-.48-.1,0-.07.08-.09.13a2.67,2.67,0,0,1-.19-1.09,1.47,1.47,0,0,0,0,1.49c.1,0,.07-.08.09-.13.5.17.07.48-.17.66-.11,0,.07-.25,0-.39-.18.09-.32.17-.17.31-.4-.14-.52.52-.43.7.34,0,0-.13.26-.18-.31,0,0-.17-.09-.39.19,0,.17.06.18.13s.07-.05.09-.09a1.72,1.72,0,0,1-.17.75c0-.13-.2-.11-.44-.13a2.6,2.6,0,0,1-1.75.67c.44-.19,1.1-.3,1-.66-.35,0-1,.15-1,.4-.12,0,.07-.24-.18-.09-.17,0,.07-.16.09-.22.13.16.34,0,.35-.18-.27.07-.61.11-.61.31-.19-.13-.39,0-.61-.08.1-.17.61-.14.7-.31-.27-.13-.38.25-.7.09.05,0-.33.23,0,.22a1,1,0,0,0-1,.27c-.27,0-.82-.09-.53,0-.12.12-.51-.1-.26-.17a7.36,7.36,0,0,0-1.05.31c-.15,0-.2-.07-.18-.17-.52,0-.6,0-.79.13,0-.14-.23-.14-.18-.3-.33.09-.36.12-.44.26-.22-.19-.47.12-.7.09a.23.23,0,0,1,0,.34c-.2.07.13-.22-.18-.26s-.13.22-.35.26-.07-.22-.35-.21c-.67.27-2,.16-2.19.6a2.1,2.1,0,0,0-.53.09.16.16,0,0,0,0-.3q-.33,0-.35.17c-.27-.05.06-.16.09-.21a.78.78,0,0,0-.53-.17c0-.31,0-.55-.62-.67-.25,0-.25.1-.26.21s.17,0,.17,0c.15.05-.39.29-.61.17.06.15-.19.16-.17.3-.41,0,.18-.1,0-.25-.16.24-.26,0-.44-.12s-.29.16-.53,0c-.22.05.21.17-.17.17-.21-.28.15-.42,0-.67-.23.06-.27.14-.18,0-.06,0-.4-.07-.44,0a.2.2,0,0,1-.18-.17c-.18,0-.14.19-.44.17-.13-.35.51-.34.35-.71.2,0,.1.12.26.12-.21-.5-1-.7-1.15-1.24.42.06.09-.41-.36-.33.16-.61.27-.42,0-1.08-.24.08-.37.22-.34.42-.55-.11-.27-.48-.28-.78.18.14.19,0,.17-.13-.08,0-.07.05-.09.08a22.46,22.46,0,0,1,0-3.28c.14,0,.15,0,.26,0,.15-.5-.25-.81-.18-.16-.14,0-.17-.45-.28-.61.13.14.28,0,.44-.1-.41-.11-.16-.31-.19-.58.29.06,0,.16.18.24.21-.08,0-.33,0-.42s-.07.08-.08.13c-.19,0,0-.17-.1-.25s.09,0,.18,0a6.48,6.48,0,0,0-.12-1c0-.06-.11,0-.26,0,.23-.2-.18-.19,0-.41.25,0,.12.13.19.33.11-.3.23-.72,0-1-.18.07,0,.29-.16.38-.27-.16-.12-.52-.12-.74.48.17-.19-.23.17-.26-.05-.09-.13.06-.26,0,.05-.34-.17-.53-.13-.87.27.08,0,.19.19.28.23-.23-.22-.34-.12-.7-.22.14,0,.29-.25.34a.27.27,0,0,1-.19-.24.75.75,0,0,0,.26,0c-.17-1.3-.39-1.86-.6-3.16.08,0,.07,0,.09.08.73-1.2-.28-2.47-.23-3.76q-.19.07-.16.22c-.33-.24.09-.53,0-.79-.44.23.29-.21-.27,0l0-.58c.13,0,.2.09.19.19.08-1.56-.39-3.42-.2-4.76-.08,0-.06.06-.08.09-.27-.87.82-2.7.56-3.59,0-.12-.37-.12-.29-.22-.1,0-.15,0-.17.06-.27-.07.58-.21.14-.35.17-.07.26.28.39.38a1.89,1.89,0,0,0,.16-1.9c.38.2.23-.3.21-.48s.09.35.31.39a.57.57,0,0,0-.09-.87s.08,0,.09,0,.06-.06.08-.09c.19,0,.05.14.11.2s0-.15.06-.22c.28.18.39-.15.32-.33s.46.4.63.1a1,1,0,0,0,.64.23c.36-.09.44-.27,1-.28.12-.1-.19-.33-.14-.53.16,0,.17.13.28.18.32-.14.54-.38.94-.27.09,0,0-.09.16-.1s-.19-.06-.27-.1c.24-.11.66,0,.56.28.31-.06.36-.22.31-.42.12-.14.1.17.11.24s0-.26.14-.36.06.2.12.29.46.16.44,0c.17,0,.08.13.28.1.12-.2.28.1.25-.15.12,0,.08.1.11.16.57,0,.35-.28.48-.44.2,0,.06.23.12.33s.36,0,.54.07c.19,0-.11-.06.07-.14a1.89,1.89,0,0,1,.36.09c.27-.16.16-.57.26-.07.2-.11.12-.31.22-.45.19.1,0,.4,0,.56.2.15.43.06.89.08.21-.13,0-.4-.14-.46l-.43,0a.54.54,0,0,1,.52-.06c.18,0,0-.19.15-.23-.3.25,1.32.42,1.87.15.16-.08-.14-.26.05-.35s.19.26.12.33c.54,0,.56-.26.56-.5.19,0,.2.09.2.2.5-.07.25-.4.38-.61,0,.27.11.79.78.7.05-.09.14,0,0,0,.12.25.6.11.82.22A2.5,2.5,0,0,1,99.85,21.38Zm2,32.25a3.87,3.87,0,0,0-.7.71A.86.86,0,0,0,101.85,53.64Zm1-9.76c0,.28-.13.45.11.66C103,44.37,103,44,102.85,43.88Zm-.19,5.36c-.06.14.09.16.09.26.05.63,0,.06.17-.18.18.1-.23.47.27.57-.08-.51.07-.71-.37-1,.2-.11.22-.34,0-.48C102.57,48.83,103.07,49.25,102.66,49.24Zm0-6.58c.26.23-.16.53.2.61C102.74,43.07,103,42.71,102.62,42.66Zm-.68-10.47a.7.7,0,0,0,.13.65C102.23,32.64,102.08,32.36,101.94,32.19Zm.09,1.23c.08.25-.06.36.21.47C102.23,33.72,102.13,33.37,102,33.42Zm-.81-7.86c-.29.18.28,1.15.2,1.26C101.67,26.56,101,25.69,101.22,25.56ZM100.88,54s0-.09-.09-.09c.14.15-.37.19-.09.26.06-.06.54-.14.26-.22C101,54,101,54,100.88,54Zm-10,.67v.21c.23,0,.3-.25.17-.26S91,54.67,90.89,54.67Zm-.44.13a.36.36,0,0,0,.35.21C90.83,54.87,90.7,54.8,90.46,54.8Zm-.17.17c-.17,0-.11-.11-.35-.08,0,.06-.15,0-.17.09C90.09,55.13,90,55,90.28,55ZM83.91,40.27c.14.1-.16.42.2.49C84.25,40.52,84.21,40.38,83.91,40.27Zm.35,1.9a.39.39,0,0,0,0-.46A.38.38,0,0,0,84.26,42.17Zm-.78-3.37a8,8,0,0,0,.29,2.14l0,.33c0,.08.05.38.1.16.13-.58-.4-1.21-.08-1.62.05.06-.09.22.1.2C83.75,39.5,83.8,39.11,83.48,38.8Zm19.44-6.46c.18-.1-.2-.34.05-.49s.05.15.1.21c.3-.09,0-.32.23-.5.19.29.13.55.34,1-.33,0-.08-.32-.29-.38C103,32.37,103.17,32.51,102.92,32.34Zm.1,7.4c-.45-.06,0-.64-.3-.78C103.21,38.91,102.76,39.52,103,39.74Zm-.29-11.13c.17.53.44,1.94.66,2.86-.31-.06-.17-.39-.3-.55-.35.17.12.44-.13.67a11.19,11.19,0,0,1-.51-4.24c-.37-.52-.15-1.68-.24-2.63.22-.09,0,.49.23.55.13-.53-.26-.93-.23-1.48-.35.06-.17.33-.31.47-.37-.46.27-1.09,0-1.5.86,1.42.63,3.92.9,6C102.72,28.73,102.74,28.66,102.72,28.61Zm.1,1.32c-.17.21,0,.55.15.74C103.06,30.44,103.09,30.06,102.83,29.92Z"/><path class="cls-1" d="M39.91,80.89c.13.26-.33.46-.08.62C39.86,81.33,40.24,81,39.91,80.89Zm0-4.13c-.21-.46-.07-.87-.16-1.16.35-.06.1.8.17.89Zm-1-8.53c.61,1.84.56,4.4,1,6.39-.31-.08-.21-.44-.25-.71C39.3,72,39,70,38.87,68.24Zm.47,4.7c-.31.24-.28.51-.28,1-.17.15-.07-.28-.08-.4,0-.28-.13-.55,0-.67Zm.13-9.49c-.15-.15-.06-.41-.14-.59C39.7,63,39.53,63.31,39.47,63.45Zm-.5,7c-.27,0-.26-.16-.27.08-.12,0-.12-.38-.16-.54.08,0,.16,0,.17.1s.08-.08.09-.13C39,70.08,38.79,70.36,39,70.48Zm-.29,9.05c.17.08.19.23.18.4s0-.33-.18-.13C38.44,79.76,38.8,79.65,38.67,79.53Zm0,3.26c.2.06,0,.31.1.44C38.52,83.17,38.69,82.92,38.63,82.79Zm0,1.07c-.34.17-.27-.28-.27-.44A.54.54,0,0,1,38.65,83.86ZM21.94,85.23c0,.2-.55,0-.79,0C21.31,85,21.51,85.33,21.94,85.23ZM19.66,74.73c-.2-.09,0-.37-.08-.53C19.81,74.36,19.7,74.52,19.66,74.73Zm-.73-8.33c-.25-.12.1-.69,0-1C19.34,65.69,19.09,66,18.94,66.4ZM19,64.71c-.2-.09,0-.37-.06-.54C19.2,64.24,19.17,64.6,19,64.71Zm0-1.89c.11.06.2.52-.12.48C19.16,63.16,18.89,62.94,19,62.82Zm21.08,20c.16.06-.25.23-.26.36-.31,0,.22-.23-.09-.26C39.85,82.82,40.1,83,40.12,82.84ZM38.31,50.67c.36-.05.44-.28.67-.42.68.46-.34,1.15.43,1.63a3.58,3.58,0,0,0,0,2.47c.19,0,.05-.15.11-.21,0,1.5-.83,3.13-.79,4.87,0,.34-.13-.23-.07-.23-.29,0,0,.55,0,.45a8.45,8.45,0,0,1-.05,1.88c.19,0,.17-.05.18-.12.23,1.76-.3,4.43.26,6h-.17c.36.35.12.79.13,1.12-.37-.61-.16-1.8-.4-2.61a19,19,0,0,0-.28,2.09,4.78,4.78,0,0,1-.1-1.48c-.4.65-.11,1.49-.19,2.32.21-.16.05-.52.12-.76.47.22.26.51.23.73a39.73,39.73,0,0,0,.09,6.08c0,.14.14.27.17.4.4,1.67-.14,3.47-.1,5.09.09,0,.07-.06.09-.09.13.42-.09,1,.28,1.42.28,0-.31-.39.17-.4-.11.14.07.45,0,.71.36,0,0-.09.08-.18.33.16.21.33.45.57.15,0,.16,0,.17-.09.25,0,0,.19,0,.27-.29-.12-.57-.24-.54-.52-.25.2-.5.4-.42.77-.44-.25-.14-.77-.29-1.38-.08,0-.16,0-.17.09-.21,0,.1-.12.09-.18s-.22-.09-.44-.08c-.12.89.71,1.5.39,2.23-.23-.11-.12-.23-.18-.49-.1,0-.07.08-.08.14a2.77,2.77,0,0,1-.2-1.12,1.52,1.52,0,0,0,0,1.52C38,83.1,38,83,38,83c.51.17.07.49-.16.68-.11,0,.07-.26,0-.4-.18.09-.32.17-.17.32-.4-.14-.51.54-.42.73.34,0-.05-.13.26-.19-.31,0,0-.18-.1-.4.19,0,.17.06.18.13s.07-.06.08-.09a1.79,1.79,0,0,1-.15.77c0-.14-.2-.11-.44-.12a2.59,2.59,0,0,1-1.73.73c.44-.21,1.09-.33.94-.7-.35,0-1,.18-1,.44-.12,0,.07-.25-.18-.09-.17,0,.07-.17.08-.23.14.16.34,0,.35-.19-.26.08-.61.12-.6.33-.19-.14-.39,0-.62-.07.1-.18.6-.16.69-.34-.27-.13-.37.27-.7.11.05,0-.32.25,0,.23a1,1,0,0,0-1,.3c-.27,0-.82-.07-.52.06-.12.13-.51-.09-.27-.18a6.84,6.84,0,0,0-1,.35c-.15,0-.2-.07-.18-.18-.52,0-.6,0-.78.16,0-.15-.24-.15-.18-.32-.32.1-.36.13-.43.29-.22-.2-.47.14-.7.11a.27.27,0,0,1,0,.37c-.2.08.12-.24-.18-.27s-.13.24-.34.29-.07-.24-.36-.22c-.66.31-2,.22-2.17.72a1.91,1.91,0,0,0-.52.11.19.19,0,0,0,0-.33q-.33,0-.34.2c-.27,0,.06-.18.08-.24-.14-.16-.32-.15-.53-.17,0-.35-.06-.62-.64-.74-.25,0-.25.12-.26.24s.17,0,.17,0c.16.06-.39.33-.61.21.06.17-.18.19-.17.34-.41,0,.18-.11,0-.29-.15.27-.26,0-.44-.13s-.29.19-.53.06c-.22.06.22.19-.17.2-.22-.32.14-.49,0-.76-.23.07-.27.16-.18,0-.06,0-.4-.07-.44.06a.21.21,0,0,1-.18-.19c-.17.05-.13.22-.43.2-.14-.4.5-.4.33-.82.2,0,.1.14.27.14-.22-.57-1-.79-1.17-1.41.42.07.09-.48-.36-.38.16-.7.26-.48,0-1.25-.24.1-.38.25-.34.49-.55-.13-.26-.56-.27-.91.18.16.19,0,.17-.15-.08,0-.07.06-.09.1-.24-1.15.12-2.48.08-3.81.14,0,.15,0,.26,0,.16-.57-.22-.95-.17-.19-.14,0-.15-.53-.26-.73.13.17.28,0,.44-.09-.41-.14-.15-.37-.17-.68.29.08,0,.18.17.29.21-.09.05-.38,0-.48s-.07.09-.09.14c-.19,0,0-.2-.08-.29s.09,0,.17.05a10.2,10.2,0,0,0-.07-1.21c0-.07-.11,0-.26,0,.24-.22-.17-.23,0-.48.25.07.11.16.17.39.12-.35.28-.82,0-1.11-.18.07,0,.34-.18.43-.26-.2-.09-.61-.07-.87.46.23-.18-.28.18-.29,0-.11-.14.06-.26-.05.07-.39-.12-.63-.06-1,.26.12,0,.22.17.34.25-.25-.19-.41-.06-.82-.23.14,0,.33-.27.38a.31.31,0,0,1-.17-.3.65.65,0,0,0,.26.06c-.08-1.53-.22-2.19-.3-3.74.08,0,.07.06.08.1.86-1.3,0-2.9.23-4.4a.21.21,0,0,0-.19.23c-.29-.32.16-.6.14-.91-.47.2.32-.2-.26-.06l0-.68a.21.21,0,0,1,.16.25c.31-1.79.15-4,.6-5.54-.08,0-.07.05-.1.09-.11-1.06,1.33-2.94,1.26-4,0-.14-.34-.22-.23-.32-.1,0-.16,0-.18,0-.25-.13.62-.11.22-.37.18,0,.2.37.3.52a2.47,2.47,0,0,0,.58-2.12c.32.31.29-.29.32-.5.15,0,0,.42.21.51a.72.72,0,0,0,.12-1c0-.05.09,0,.09,0s.07-.05.1-.09c.19,0,0,.17.06.25s.06-.16.11-.23c.23.27.41-.08.39-.29,0-.05.36.55.59.26a1,1,0,0,0,.57.4c.37,0,.49-.2,1.07-.07.14-.09-.11-.4,0-.62.15.06.14.18.23.27.34-.08.61-.29,1-.07.1,0,.07-.09.18-.07s-.17-.11-.24-.17c.26-.07.63.2.48.44.32,0,.4-.16.4-.38.15-.13.05.21.05.29.18,0,.08-.28.22-.35s0,.23,0,.34.41.29.44.05c.16,0,0,.16.24.17.16-.19.25.17.28-.11.12,0,.06.13.07.2.56.14.4-.22.57-.36.19.06,0,.26,0,.38s.36,0,.51.2c.2,0-.1-.09.1-.13a1.81,1.81,0,0,1,.33.18c.3-.11.28-.57.27,0,.22-.07.19-.3.32-.43.16.15-.11.42-.16.59.16.2.4.16.85.29.23-.09.1-.42,0-.52l-.43-.05c.12-.1.39,0,.52.06s0-.2.2-.21c-.35.19,1.19.75,1.79.59.18,0-.08-.3.13-.35s.12.31,0,.38c.53.09.61-.14.66-.38.19,0,.17.14.15.25.5,0,.34-.36.5-.54,0,.29-.07.83.6.9.07-.08.13.06,0,0,.06.28.56.25.75.41A2.45,2.45,0,0,1,38.31,50.67ZM37,83.85a3.84,3.84,0,0,0-.68.74A.88.88,0,0,0,37,83.85Zm1.19-10c0,.29-.16.45.08.67C38.35,74.41,38.32,74,38.18,73.9Zm-.38,5.46c-.06.14.09.16.09.27,0,.65,0,.06.17-.18.18.11-.24.48.27.58-.07-.52.08-.72-.36-1a.27.27,0,0,0,0-.49C37.71,78.93,38.21,79.37,37.79,79.35ZM38,72.64c.25.25-.19.53.16.63C38.12,73.07,38.37,72.71,38,72.64Zm.39-10.69a.72.72,0,0,0,0,.68C38.64,62.44,38.53,62.14,38.42,61.95Zm-.08,1.25c.05.26-.11.35.15.5C38.49,63.54,38.45,63.17,38.34,63.2Zm.46-8.05c-.32.13.06,1.21,0,1.3C39,56.24,38.57,55.24,38.8,55.15ZM36,84.24s0-.09-.09-.09c.14.15-.37.2-.08.27.06-.07.53-.15.26-.23C36.11,84.22,36.11,84.24,36,84.24Zm-10,.92v.23c.23,0,.29-.28.17-.29S26.16,85.16,26.06,85.16Zm-.43.15a.36.36,0,0,0,.36.23C26,85.38,25.87,85.31,25.62,85.31Zm-.17.19c-.17,0-.11-.13-.35-.08,0,.06-.15,0-.17.1C25.27,85.69,25.17,85.51,25.45,85.51Zm-5.9-17c.13.13-.2.47.15.58C19.87,68.88,19.84,68.71,19.55,68.56Zm.19,2.23a.51.51,0,0,0,0-.53A.5.5,0,0,0,19.74,70.78Zm-.47-4a10.53,10.53,0,0,0,.08,2.52v.39c0,.09,0,.45.08.2.17-.66-.3-1.44.07-1.88,0,.07-.11.25.08.24C19.48,67.64,19.56,67.2,19.27,66.8Zm20.1-4.57c.19-.08-.15-.37.12-.48s0,.16.07.23c.31-.05,0-.32.3-.47.14.32.05.57.19,1-.33,0,0-.33-.24-.42C39.49,62.29,39.59,62.44,39.37,62.24Zm-.73,7.47c-.45-.1.07-.65-.23-.81C38.91,68.89,38.4,69.46,38.63,69.71Zm1.1-11.24c.09.56.11,2,.21,3-.3-.1-.11-.41-.22-.6-.37.12.06.46-.22.65a10.55,10.55,0,0,1,.17-4.33c-.28-.59.15-1.71.25-2.66.23,0-.1.49.12.59.23-.5-.08-1,.06-1.52-.36,0-.23.29-.4.41-.28-.54.49-1,.34-1.49.54,1.58-.15,4-.23,6.11C39.71,58.59,39.74,58.52,39.73,58.46Zm-.1,1.33c-.2.19,0,.55,0,.76C39.78,60.35,39.87,60,39.63,59.8Z"/><path class="cls-1" d="M97.82,76.06c.11.24-.37.36-.14.54C97.73,76.44,98.15,76.17,97.82,76.06Zm.28-3.64c-.18-.42,0-.78-.12-1,.36,0,.08.71.14.79Zm-1-7.49c.72,1.58.68,3.83,1,5.6-.3-.08-.2-.39-.24-.64Zm.57,4.1c-.31.21-.29.44-.29.85-.17.13-.06-.25-.08-.35s-.12-.48,0-.58Zm-.34-8.31c-.16-.12-.1-.35-.2-.5C97.49,60.3,97.35,60.59,97.3,60.71Zm-.06,6.16c-.27,0-.26-.13-.26.08-.12,0-.12-.33-.17-.47.08,0,.16,0,.17.08s.07-.07.09-.12C97.27,66.52,97.07,66.77,97.24,66.87Zm-.54,7.88c.16.08.17.22.14.36s0-.29-.16-.13C96.45,74.92,96.82,74.87,96.71,74.74Zm-.36,2.82c.19.08,0,.27,0,.4C96.2,77.88,96.39,77.68,96.35,77.56Zm-.1.93c-.36.1-.23-.27-.22-.42A.45.45,0,0,1,96.25,78.49ZM79.53,77.18c0,.13-.55-.08-.78-.1C78.94,76.95,79.1,77.18,79.53,77.18ZM78,69.92c-.2-.06,0-.25-.07-.36C78.11,69.68,78,69.78,78,69.92Zm-.88-5.49c-.26-.07.05-.46,0-.67C77.43,63.94,77.2,64.14,77.07,64.43Zm0-1.11c-.2,0,0-.24-.1-.35A.18.18,0,0,1,77,63.32Zm-.13-1.23c.11,0,.24.32-.07.32C77.06,62.3,76.77,62.18,76.91,62.09ZM97.82,77.8c.15.08-.28.17-.29.28-.31-.07.25-.18-.06-.24C97.56,77.74,97.78,78,97.82,77.8ZM94,50.11c.33-.13.36-.34.54-.51.76.22,0,1,.81,1.24a2.83,2.83,0,0,0,.54,2.07c.19,0,0-.14.06-.2.34,1.27-.21,2.8.08,4.27,0,.3-.16-.18-.1-.19-.29,0,.06.47,0,.38a5.58,5.58,0,0,1,.21,1.61c.19,0,.16-.07.17-.13.47,1.49.18,3.83.83,5.13H97c.39.28.17.68.19,1-.39-.51-.27-1.56-.57-2.24a15.13,15.13,0,0,0-.13,1.82,3.69,3.69,0,0,1-.2-1.27c-.36.59,0,1.29-.05,2,.2-.14,0-.45.08-.66.48.16.28.43.27.62-.14,1.79.15,3.53.18,5.27,0,.12.13.24.16.36.35,1.47-.27,3-.38,4.41.09,0,.07,0,.09-.07.09.37-.18.89.15,1.26.29,0-.28-.37.21-.33-.12.11,0,.4-.06.62.35,0,.05-.08.1-.15.31.18.18.31.38.55.15,0,.17,0,.18-.06.24.06,0,.16,0,.23-.27-.14-.53-.28-.47-.52-.27.15-.54.29-.51.61-.41-.27,0-.68-.14-1.22-.08,0-.16,0-.18.06-.21,0,.11-.09.1-.15s-.21-.1-.43-.12c-.2.75.55,1.37.15,2-.21-.12-.09-.21-.13-.44-.1,0-.08.06-.1.11a2.1,2.1,0,0,1-.07-1,1.16,1.16,0,0,0-.14,1.3c.1,0,.08-.06.1-.11.48.21,0,.43-.24.56-.11,0,.1-.21,0-.34-.19.06-.34.11-.2.25-.38-.17-.58.38-.51.56.33.06,0-.12.28-.12-.31,0,0-.15,0-.35.19,0,.16.07.16.13s.07,0,.1-.07a1.36,1.36,0,0,1-.25.63c.05-.11-.18-.12-.42-.17a2.8,2.8,0,0,1-1.81.35c.46-.11,1.12-.11,1-.44-.34-.08-1,0-1.09.21-.12,0,.1-.2-.16-.1s.09-.13.11-.18c.12.15.34,0,.37-.11-.27,0-.62,0-.64.19-.17-.14-.39-.06-.6-.15.12-.13.62,0,.73-.18-.25-.15-.4.17-.71,0,0,0-.35.16,0,.18a1.15,1.15,0,0,0-1,.1c-.28,0-.81-.18-.53,0-.14.09-.5-.15-.24-.18a8.65,8.65,0,0,0-1.08.12c-.15,0-.19-.09-.16-.17a1.63,1.63,0,0,0-.8,0c0-.11-.22-.15-.14-.27-.33,0-.37.05-.46.16-.19-.18-.48,0-.7,0a.17.17,0,0,1,0,.28c-.2,0,.15-.17-.15-.23s-.16.16-.37.17,0-.19-.33-.22c-.69.13-2-.13-2.23.2a2.57,2.57,0,0,0-.53,0,.12.12,0,0,0,0-.24q-.33,0-.36.09c-.26-.08.08-.12.11-.16a.91.91,0,0,0-.5-.2c0-.25,0-.45-.54-.61-.24,0-.26.05-.28.13s.17.06.17,0-.42.18-.62.06c0,.13-.2.1-.2.21-.41-.06.19-.05,0-.2-.18.17-.26-.05-.42-.15s-.31.09-.53,0,.19.16-.19.11c-.18-.25.2-.31.06-.52-.23,0-.29.07-.17-.05-.06,0-.39-.1-.44,0s-.15-.09-.16-.15c-.18,0-.16.13-.45.08-.09-.29.54-.2.42-.51.2,0,.08.1.25.13-.16-.41-1-.67-1-1.09.41.09.13-.31-.32-.29.21-.45.31-.29.08-.83-.25,0-.39.13-.38.29-.54-.14-.22-.4-.21-.63.17.12.19,0,.18-.08s-.07,0-.09.06a14.5,14.5,0,0,1,.28-2.51c.14,0,.15,0,.26,0,.19-.37-.19-.64-.17-.14-.14,0-.13-.36-.24-.49.12.12.28,0,.44,0-.4-.11-.14-.25-.15-.46.29.07,0,.12.17.2s.06-.25,0-.32-.08.05-.09.09c-.19,0,0-.14-.08-.2a1.19,1.19,0,0,0,.17,0,3.63,3.63,0,0,0-.05-.8s-.11,0-.26,0c.24-.14-.17-.15,0-.32.25.05.11.11.17.26.12-.23.28-.54,0-.74-.18,0,0,.22-.18.28-.26-.14-.09-.41-.07-.58.46.15-.18-.18.18-.19,0-.07-.14,0-.26,0,.07-.26-.14-.42-.08-.67.26.08,0,.15.17.23.25-.16-.2-.27-.08-.54-.23.09,0,.22-.27.25a.22.22,0,0,1-.17-.19,1,1,0,0,0,.26,0c-.1-1-.29-1.44-.44-2.45.08,0,.07,0,.09.06.78-.9-.18-1.9-.09-2.88q-.19,0-.17.17c-.32-.18.1-.4.06-.61-.45.18.29-.16-.26,0l0-.44c.13,0,.19.07.18.15.12-1.2-.31-2.61-.1-3.65-.08,0-.06,0-.08.07-.25-.66.83-2.1.57-2.79,0-.09-.37-.07-.29-.16-.1,0-.15,0-.17.05-.27,0,.58-.19.14-.28.17-.06.26.2.39.27A1.21,1.21,0,0,0,77.48,53c.38.13.22-.25.21-.39s.1.27.31.28a.38.38,0,0,0-.1-.67s.08,0,.09,0,.06,0,.08-.08c.19,0,.06.11.11.15s0-.12.06-.17c.28.12.38-.14.31-.28s.47.28.63,0a1.15,1.15,0,0,0,.64.13,3.43,3.43,0,0,1,1-.29c.12-.09-.2-.25-.15-.42.16,0,.18.09.28.12.31-.13.53-.34.93-.28.09,0,0-.08.16-.09s-.19,0-.28-.06c.23-.11.65,0,.56.19.31-.07.36-.2.3-.36.12-.12.1.13.12.19s0-.21.13-.3.06.16.12.22.46.1.43-.07c.16,0,.08.1.28.06s.28.06.24-.14c.12,0,.09.07.11.12.57,0,.34-.25.47-.39s.06.19.13.26.36-.06.54,0-.11,0,.07-.12a2.14,2.14,0,0,1,.36,0c.27-.15.14-.48.25-.08.19-.1.11-.27.21-.39.19.07,0,.33,0,.47.2.11.43,0,.89,0,.2-.12,0-.33-.15-.37l-.43.07a.63.63,0,0,1,.52-.08c.18,0,0-.16.15-.2-.3.23,1.32.27,1.86,0,.16-.08-.14-.21,0-.3s.19.21.13.27c.54-.07.55-.26.55-.46.19,0,.2.06.2.15.49-.09.24-.36.36-.54.05.23.13.66.79.55,0-.08.14,0,0,0,.13.21.6.06.82.14A2.78,2.78,0,0,1,94,50.11Zm.62,28.14a3.75,3.75,0,0,0-.77.52A.8.8,0,0,0,94.59,78.25Zm1.88-8.42c0,.25-.16.39.07.58C96.64,70.28,96.61,69.91,96.47,69.84Zm-.63,4.68c-.07.11.08.15.07.24,0,.56,0,.06.19-.14.17.11-.27.39.22.52,0-.46.14-.62-.28-.88.21-.07.25-.28,0-.42C95.8,74.15,96.26,74.57,95.85,74.52Zm.49-5.77c.25.21-.19.46.16.55C96.42,69.12,96.67,68.81,96.33,68.75Zm-.24-9.22a.55.55,0,0,0,.12.57C96.37,59.93,96.23,59.68,96.1,59.53Zm.06,1.08c.08.22-.07.31.19.42C96.34,60.88,96.26,60.57,96.16,60.61Zm-.74-6.9c-.28.17.29,1,.21,1.1C95.87,54.58,95.2,53.83,95.42,53.71ZM93.6,78.44s0-.07-.08-.09c.12.14-.39.12-.11.21.07,0,.55-.05.28-.16C93.68,78.44,93.67,78.46,93.6,78.44Zm-10-.72,0,.17c.23,0,.32-.16.2-.18S83.72,77.74,83.62,77.72Zm-.45,0c0,.09.1.17.33.21C83.53,77.88,83.41,77.81,83.17,77.77Zm-.19.11c-.17,0-.1-.11-.34-.11,0,0-.16,0-.18,0C82.77,78,82.7,77.85,83,77.88Zm-5.2-12.06c.13.08-.18.31.18.38C78.12,66,78.08,65.92,77.78,65.82ZM78,67.3c.15-.15.05-.27,0-.35A.24.24,0,0,0,78,67.3Zm-.61-2.62a4.83,4.83,0,0,0,.18,1.66v.25c0,.06,0,.29.09.13.16-.44-.34-.94,0-1.24,0,0-.1.17.09.16C77.67,65.22,77.73,64.93,77.43,64.68Zm19.64-5c.18-.09-.19-.3.06-.43s0,.14.1.19c.31-.08,0-.28.24-.44.18.26.12.49.32.88-.33,0-.07-.29-.28-.34C97.2,59.7,97.31,59.82,97.07,59.67Zm-.17,6.53c-.45-.07,0-.56-.27-.7C97.13,65.49,96.65,66,96.9,66.21Zm0-9.84c.16.47.43,1.71.63,2.54-.31-.05-.16-.34-.29-.49-.35.15.11.39-.14.6a9.26,9.26,0,0,1-.48-3.75c-.36-.45-.15-1.48-.25-2.32.22-.09,0,.44.23.48.12-.47-.26-.81-.24-1.3-.35.07-.16.3-.3.43-.38-.39.25-1,0-1.33.9,1.22.69,3.45.94,5.26C96.92,56.48,96.94,56.41,96.92,56.36ZM97,57.53c-.17.19,0,.48.14.65C97.25,58,97.28,57.65,97,57.53Z"/><path class="cls-1" d="M94.11,50c.63-.07,1,.44,1.48.24C95.15,50.15,94.34,49.68,94.11,50Zm-9.88-.81c-1.12.14-2.09,0-2.76,0-.12-.36,1.92,0,2.13-.05Zm-20.16.38c4.26-.62,10.32-.41,15.07-.6-.2.29-1,.16-1.7.18C72.94,49.25,68.2,49.43,64.07,49.57Zm11-.26a4.85,4.85,0,0,0,2.31.37c.35.18-.67,0-1,0a4.57,4.57,0,0,1-1.58-.07C74.95,49.52,75.05,49.44,75.11,49.31Zm-22.3-.25a8.78,8.78,0,0,1-1.35.16C51.74,48.84,52.48,49,52.81,49.06Zm16.5.47c-.1.27-.36.25.2.27.07.12-.9.1-1.26.13a.29.29,0,0,1,.21-.17c0-.1-.19-.08-.31-.1C68.38,49.48,69.06,49.7,69.31,49.53Zm21.39,1.39a1.44,1.44,0,0,1,1-.09c.45.19-.79,0-.33.15C91.22,51.2,91,50.82,90.71,50.92Zm7.72.86c.17-.18.74,0,1.07,0C99.33,52,98.76,51.76,98.43,51.78Zm2.54.3c.34.4-.7.17-1.09.13A2,2,0,0,1,101,52.07ZM100.91,69c.41.06-.11.55-.1.78C100.35,69.51,101,69.4,100.91,69Zm-22,.2c-.18.19-.77,0-1.11,0C78.11,69,78.43,69.1,78.88,69.16Zm-17.37.35c-.23.25-1.46-.09-2.13,0C60,69.11,60.59,69.36,61.51,69.51ZM58,69.45c-.18.2-.78,0-1.12.07C57,69.28,57.71,69.31,58,69.45Zm-4,0c.11-.11,1.07-.22,1,.1C54.69,69.37,54.24,69.64,54,69.5ZM98.81,50.32c.18-.14.5.31.82.35-.13.3-.52-.28-.65,0C98.7,50.58,99.23,50.39,98.81,50.32Zm-75.07.93c-.21-.35-.75-.41-1.12-.62.88-.72,2.68.23,3.58-.59a18.21,18.21,0,0,0,5.64-.25c0-.19-.36,0-.51-.09,3.42-.18,7.34.53,11.33.36.79,0-.51.14-.52.09,0,.29,1.28,0,1,0a41.44,41.44,0,0,1,4.34-.08c0-.19-.15-.17-.31-.18,4-.35,10.3.08,13.84-.48v.17a6.27,6.27,0,0,1,2.62-.12c-1.41.35-4.2.17-6.06.42,1.57.2,3.68.14,4.9.25a26,26,0,0,1-3.44.12c1.56.4,3.48.09,5.42.19-.38-.21-1.22-.06-1.77-.13.46-.46,1.17-.25,1.68-.22,4.83.26,9.56.11,14.28.25.32,0,.63-.1,1-.12,4-.19,8.19.61,12,1,0-.09-.12-.08-.2-.11,1,0,2.44.32,3.41,0-.07-.3-1,.22-.94-.26.31.14,1.09,0,1.7.17.07-.35-.22-.07-.42-.13.43-.28.81-.12,1.43-.28.05-.14-.07-.17-.19-.2.13-.23.45.07.64.07a1.5,1.5,0,0,1-1.33.38,2.93,2.93,0,0,0,1.76.63c-.65.37-1.84-.09-3.31-.09,0,.08.08.16.19.19,0,.2-.27-.13-.41-.13s-.25.2-.25.42c2.08.33,3.64-.3,5.33.21-.3.19-.57.05-1.18,0,0,.1.18.09.31.12a15.07,15.07,0,0,1-2.66-.12,8.12,8.12,0,0,0,3.59.39c0-.1-.18-.09-.31-.12.49-.45,1.16.06,1.57.35-.05.1-.6-.15-1-.11a.62.62,0,0,0,.72.26c-.4.35,1.17.68,1.63.65.09-.33-.32,0-.39-.32,0,.32-.42,0-1,0,0-.19.17-.15.34-.13,0-.08-.12-.08-.2-.11a9.34,9.34,0,0,1,1.77.41c-.32-.08-.29.16-.37.39.62.54,1.46.94,1.35,1.94-.4-.5-.56-1.18-1.45-1.16-.14.33.22,1,.81,1.17,0,.12-.57-.15-.23.15,0,.16-.38-.12-.51-.15.4-.08,0-.35-.37-.4.14.29.17.64.65.7-.35.14-.07.38-.29.58-.38-.16-.24-.64-.64-.79-.36.22.55.45.12.72,0,0,.51.4.52.07-.19.32-.07.8.5,1,.05.28-.33.79,0,.54.28.16-.31.47-.45.21.23.36.26.84.58,1.14,0,.15-.2.17-.43.12,0,.52,0,.6.21.82-.32-.06-.37.19-.74.08a.73.73,0,0,0,.56.51c-.48.15.22.51.11.72a1.16,1.16,0,0,1,.82.11c.15.22-.51-.19-.64.09.09.21.5.2.57.43-.16.13-.54,0-.56.28.54.75.09,2,1.12,2.36a1,1,0,0,0,.13.55.72.72,0,0,0-.7-.09c0,.22.1.36.35.4-.16.25-.37-.11-.49-.15-.36.09-.39.27-.47.47-.75-.1-1.32-.13-1.68.4,0,.24.21.28.47.33a.09.09,0,0,0,0-.17c.15-.14.63.48.32.66.37,0,.36.24.67.27-.07.41-.2-.21-.6-.08.54.23-.1.25-.36.39,0,.22.33.34,0,.54.09.23.44-.16.37.22-.7.12-1-.29-1.59-.21.11.24.29.31-.12.16,0,.06-.22.37,0,.45a.46.46,0,0,1-.42.12c.08.19.42.2.34.49-.85,0-.74-.61-1.64-.57,0-.2.3-.06.33-.22-1.21.06-1.81.82-3.11.8.2-.4-1-.2-.83.26a4.91,4.91,0,0,0-2.57-.27,1.12,1.12,0,0,0,1,.44c-.34.51-1.19.15-1.91.09.35-.15.1-.18-.28-.2,0,.08.12.08.19.11-2.39,0-5.09-.58-7.85-.72,0-.14.1-.14.12-.25-1.18-.25-2,.1-.41.15-.05.13-1.1.08-1.52.17.35-.11,0-.28-.17-.45-.31.39-.77.11-1.41.09.18-.28.37,0,.61-.14-.17-.22-.78-.09-1-.06,0,.1.18.08.3.1,0,.19-.43,0-.61.05,0-.07.11-.08.11-.17-1.12-.09-1.54,0-2.51,0-.15,0,0,.11,0,.26-.46-.26-.48.15-1,0,.15-.24.33-.1.81-.14a4.81,4.81,0,0,0-2.31-.1c.15.19.7.06.9.22-.41.25-1.27,0-1.81,0,.47-.45-.57.16-.6-.2-.23,0,.12.14-.11.26-.81-.1-1.32.1-2.12,0,.23-.26.47,0,.71-.15-.52-.26-.85.17-1.72,0,.3.24.7,0,.8.29a.91.91,0,0,1-.61.16.38.38,0,0,0,.11-.26c-3.18,0-4.58.17-7.79.23,0-.09.13-.07.2-.08-2.81-.84-6.09,0-9.25-.12a.54.54,0,0,0,.51.18c-.64.31-1.28-.13-1.94-.1.49.46-.47-.3-.1.26H49.9a.54.54,0,0,1,.51-.17c-3.83-.21-8.5.11-11.8-.2,0,.08.13.07.21.09-2.22.19-6.5-1.06-8.77-.89-.3,0-.39.36-.62.26,0,.1,0,.16.1.18-.23.26-.38-.6-.83-.18-.13-.18.76-.23,1-.35A10.63,10.63,0,0,0,25.07,68c.6-.35-.68-.26-1.14-.27-.13-.14.9,0,1-.25a3,3,0,0,0-2.18,0c-.12,0-.06-.09,0-.09s-.13-.07-.21-.09c0-.19.37,0,.52-.08s-.37,0-.52-.09c.52-.25-.26-.4-.72-.36-.12,0,1.11-.41.42-.61a1.15,1.15,0,0,0,.73-.61c-.11-.37-.55-.47-.41-1.06-.23-.13-.85.15-1.35.08.1-.15.36-.16.52-.26-.25-.33-.79-.58-.41-1,0-.09-.21-.06-.2-.18-.28-.06-.2.18-.31.26-.21-.25.27-.65.83-.52-.07-.32-.44-.39-.93-.36-.31-.14.45-.07.62-.08-.14-.17-.63-.05-.82-.18,0-.2.51,0,.72-.08s.52-.43,0-.44c0-.17.34-.06.31-.26-.45-.15.31-.26-.31-.27,0-.12.26-.07.41-.08.16-.57-.59-.38-.92-.53.08-.2.58,0,.83-.08s0-.36.31-.52c-.06-.2-.16.11-.31-.09a1.55,1.55,0,0,1,.31-.35c-.31-.29-1.33-.23-.1-.26-.2-.21-.72-.16-1-.27.29-.18,1,.07,1.34.1.4-.18.25-.42.42-.87-.26-.22-.95-.06-1.13.08v.44c-.25-.11-.18-.38,0-.53,0-.18-.45,0-.51-.18.51.33,1.35-1.26.84-1.83-.15-.17-.64.1-.82-.09s.67-.15.82-.08c.06-.54-.47-.59-1-.62,0-.19.26-.19.52-.17,0-.5-.89-.3-1.33-.45.64,0,1.88,0,1.85-.69-.2-.06.11-.14.1,0,.62-.09.42-.58.72-.78C22,52.23,23,51.87,23.74,51.25Zm76.93,2.46a10.24,10.24,0,0,0,1.6.91C102.16,54.1,101,53.8,100.66,53.71ZM77.38,50.55c.68,0,1.06.2,1.58,0A3.3,3.3,0,0,0,77.38,50.55Zm12.83,1.2c.32.09.39-.05.64,0,1.53.1.15,0-.41-.21.28-.16,1.1.34,1.4-.14-1.24,0-1.7-.24-2.36.14a1.12,1.12,0,0,0-1.16-.09C89.21,51.73,90.29,51.34,90.21,51.75ZM74.42,50.6c.58-.23,1.25.24,1.48-.11C75.43,50.54,74.59,50.26,74.42,50.6Zm-24.94-.42A3.63,3.63,0,0,0,51,50.1,2.84,2.84,0,0,0,49.48,50.18Zm2.9,0c.6-.06.84.09,1.14-.17C53.15,50,52.3,50.09,52.39,50.19Zm-18.6.13c.35.3,2.75-.17,3-.09C36.22,50,34.06,50.55,33.79,50.32Zm67.59,4.45c-.08,0-.21,0-.22.06.37-.09.4.43.62.17-.14-.08-.26-.57-.49-.33C101.36,54.69,101.41,54.71,101.39,54.78Zm.16,10.1.5.07c.09-.22-.55-.37-.58-.25S101.58,64.78,101.55,64.88Zm.24.47c.25,0,.48-.06.55-.28C102,65,101.84,65.11,101.79,65.35Zm.38.23c0,.17-.29.07-.25.32.13,0,.07.16.18.2C102.53,65.82,102.13,65.86,102.17,65.58ZM66,68.91c.27-.13,1,.2,1.22-.15A1.13,1.13,0,0,0,66,68.91Zm4.66-.12a2.12,2.12,0,0,0-1.11,0A2.08,2.08,0,0,0,70.63,68.79Zm-8.31.38a48.38,48.38,0,0,0,5.27,0l.81,0c.2,0,.93,0,.41-.07-1.38-.21-3,.26-3.94-.11.15,0,.52.12.51-.08A12.51,12.51,0,0,0,62.32,69.17ZM50,49.22c-.21-.19-.84.17-1.14-.09,0-.19.37,0,.52-.09-.17-.31-.75,0-1.14-.27.72-.16,1.32-.09,2.39-.25,0,.33-.77.05-.94.26C50.1,49.09,50.44,49,50,49.22Zm17.51.61c-.21.44-1.52-.08-1.89.22C65.59,49.54,67,50.05,67.52,49.83ZM41.21,49.1c1.28-.12,4.61-.28,6.83-.42-.19.3-.94.14-1.35.26.34.36,1-.08,1.56.18a60.39,60.39,0,0,1-10,.16c-1.29.32-4,0-6.17,0-.16-.22,1.15,0,1.34-.17-1.2-.18-2.22.17-3.49.08.06.36.72.2,1,.35-1.16.33-2.47-.38-3.48-.19,3.48-.69,9.25-.24,14.09-.33C41.5,49.12,41.33,49.09,41.21,49.1Zm3.1,0A3.8,3.8,0,0,0,46.07,49,2.88,2.88,0,0,0,44.31,49.11Z"/><path class="cls-1" d="M80.71,42.39c.36-.09.57.39.82.17C81.29,42.51,80.86,42.07,80.71,42.39Zm-5.53-.56a9.54,9.54,0,0,1-1.56,0c0-.36,1.08,0,1.21-.06Zm-11.47.08c2.48-.44,5.91-.12,8.61-.28-.13.29-.6.16-1,.17C68.78,41.86,66.08,41.93,63.71,41.91Zm6.3,0c.3.33.66.34,1.28.39.19.18-.38,0-.54,0-.38,0-.74.07-.89-.09C69.9,42.14,70,42.06,70,41.93Zm-12.69-1c-.21.14-.55,0-.79.1C56.74,40.65,57.14,40.84,57.33,40.92ZM66.7,42c-.08.26-.23.24.09.27,0,.12-.52.08-.73.1,0-.08.07-.15.14-.16s-.1-.08-.17-.1C66.17,42,66.54,42.2,66.7,42Zm12,1.39c.12-.16.33-.16.55-.12s-.44,0-.2.16C79,43.7,78.93,43.32,78.75,43.43Zm4.33.52c.1-.19.42,0,.6,0C83.58,44.12,83.26,43.92,83.08,44Zm1.43.14c.18.37-.4.22-.62.2A.8.8,0,0,1,84.5,44.1ZM84,60.88c.25,0-.08.55-.08.79C83.67,61.47,84.08,61.31,84,60.88Zm-13.24.87c-.12.19-.46,0-.66,0C70.33,61.55,70.51,61.69,70.78,61.75Zm-10.32-.07c-.16.24-.85-.15-1.25-.13C59.6,61.22,59.94,61.49,60.46,61.68Zm-2.08-.21c-.12.19-.46,0-.66,0C57.81,61.26,58.25,61.31,58.38,61.47Zm-2.33-.15c.07-.11.65-.16.59.15C56.48,61.23,56.19,61.48,56.05,61.32ZM83.34,42.48c.11-.15.27.29.45.31-.08.31-.28-.25-.37.05C83.27,42.75,83.58,42.53,83.34,42.48Zm-43-1c-.09-.36-.4-.45-.59-.68.58-.67,1.54.36,2.14-.4a6.35,6.35,0,0,0,3.3.07c0-.19-.21-.06-.29-.12,2,0,4.19.95,6.5,1,.46,0-.31.11-.31.06,0,.29.74.05.59.06a14.29,14.29,0,0,1,2.5.16c0-.18-.07-.18-.16-.19,2.36-.13,5.9.61,8,.19l0,.17c.48-.33,1.06,0,1.5,0-.83.31-2.41,0-3.5.18.88.27,2.09.3,2.78.46a8.48,8.48,0,0,1-2,0c.85.46,2,.24,3.08.4-.2-.22-.69-.1-1-.19.31-.45.69-.21,1-.17,2.74.44,5.44.37,8.11.55a4.07,4.07,0,0,0,.55-.12c2.26-.19,4.61.57,6.77.77,0-.09-.07-.08-.11-.1.57-.06,1.36.24,1.93-.07,0-.29-.56.25-.52-.23.17.13.61,0,1,.1.05-.35-.12-.06-.23-.11.26-.3.46-.16.82-.36,0-.15,0-.17-.1-.19.08-.24.25,0,.36,0-.19.27-.39.52-.77.45a1.14,1.14,0,0,0,1,.54c-.38.4-1,0-1.87.08,0,.08,0,.16.1.19,0,.2-.15-.12-.23-.11s-.15.21-.16.42c1.17.25,2.07-.48,3-.05-.17.21-.32.08-.67.11,0,.1.1.08.17.1a4.83,4.83,0,0,1-1.5,0,2.63,2.63,0,0,0,2,.2c0-.1-.1-.08-.17-.1.29-.48.65,0,.87.26,0,.11-.34-.11-.53-.05.1.19.19.35.4.22-.24.38.64.59.91.53.06-.33-.18,0-.21-.29,0,.31-.24,0-.54,0,0-.19.1-.16.2-.16s-.07-.07-.11-.1a3.05,3.05,0,0,1,1,.28c-.18-.06-.17.18-.22.42a2.29,2.29,0,0,1,.72,1.83c-.21-.47-.29-1.14-.79-1-.09.34.1,1,.43,1.1,0,.12-.32-.11-.14.16,0,.17-.21-.09-.29-.12.23-.11,0-.35-.2-.37.07.27.08.62.35.65-.2.17-.05.39-.18.6-.22-.13-.12-.62-.35-.74-.21.25.31.41,0,.71,0,0,.28.36.3,0a.85.85,0,0,0,.26,1c0,.28-.21.8,0,.53.16.14-.19.49-.26.24a5.82,5.82,0,0,0,.31,1.09c0,.15-.12.19-.26.15,0,.52,0,.6.1.8-.19,0-.22.21-.43.13.08.34.12.38.31.47-.28.19.12.49,0,.71a.41.41,0,0,1,.48,0c.08.21-.29-.16-.37.14s.29.17.32.38-.32,0-.33.32c.3.71,0,2,.61,2.26a1.55,1.55,0,0,0,.07.54.28.28,0,0,0-.42,0c0,.22.05.35.2.37-.1.26-.22-.08-.29-.12s-.23.29-.29.5c-.44,0-.78,0-1,.52,0,.24.12.27.27.29s.08-.17,0-.17c.09-.15.36.44.18.63.22,0,.21.21.4.22,0,.41-.12-.19-.36,0,.32.19-.07.26-.22.42,0,.22.19.31,0,.53,0,.22.27-.19.22.2-.42.17-.58-.22-1-.1.06.23.16.29-.08.17,0,.06-.14.39,0,.44a.25.25,0,0,1-.26.15c0,.18.25.17.19.46-.51.07-.43-.56-1-.45,0-.2.18-.08.2-.24-.73.14-1.11.91-1.9,1,.13-.41-.58-.15-.51.3-.85-.25-.56-.33-1.55-.16a.56.56,0,0,0,.56.41c-.23.53-.72.19-1.16.15.22-.16.07-.18-.16-.19,0,.08.07.08.11.1a43.41,43.41,0,0,1-4.69-.56c0-.14.07-.14.09-.26-.69-.23-1.19.11-.26.15,0,.14-.66.09-.92.17.22-.11,0-.28-.07-.45-.21.39-.46.1-.85.09.12-.28.22,0,.37-.14-.09-.22-.46-.1-.59-.06s.1.08.17.1c0,.19-.26,0-.37.05s.07-.08.08-.17a14.1,14.1,0,0,0-1.49-.06c-.09,0,0,.11,0,.26-.25-.26-.29.15-.59-.06.11-.24.2-.09.49-.13-.42-.16-1-.36-1.37-.14.08.19.41.07.52.23-.26.24-.76,0-1.08,0,.31-.44-.35.15-.34-.21-.14,0,.06.14-.09.26-.47-.11-.79.06-1.26,0,.16-.25.28,0,.43-.13-.29-.27-.52.15-1,0,.16.25.41,0,.45.31a.41.41,0,0,1-.37.14.55.55,0,0,0,.09-.26c-1.89-.07-2.72,0-4.62,0,0-.08.08-.06.13-.08-1.57-1-3.58-.22-5.41-.54a.26.26,0,0,0,.28.2c-.4.27-.74-.2-1.12-.2.24.48-.24-.33-.09.26l-.83-.08a.26.26,0,0,1,.31-.14c-2.21-.41-4.95-.36-6.82-.86,0,.08.07.08.11.1-1.3.06-3.64-1.42-5-1.38-.18,0-.26.33-.38.23,0,.1,0,.16,0,.18-.16.24-.16-.62-.46-.22-.06-.18.46-.19.63-.29a3.68,3.68,0,0,0-2.64-.62c.37-.32-.37-.29-.63-.33-.06-.15.52,0,.62-.2a1.05,1.05,0,0,0-1.25-.13,0,0,0,0,1,0-.09c0-.08-.07-.07-.11-.1,0-.19.22,0,.31-.06s-.21-.06-.29-.12c.33-.23-.11-.41-.38-.39-.07,0,.67-.35.3-.59a1,1,0,0,0,.48-.57c0-.37-.27-.5-.13-1.07-.12-.14-.5.11-.78,0,.07-.15.22-.14.32-.23-.11-.34-.4-.62-.14-1,0-.1-.11-.07-.1-.19-.15-.08-.13.17-.2.24A.4.4,0,0,1,38,53c0-.32-.22-.41-.5-.4-.17-.15.27-.05.37-.05-.06-.18-.36-.08-.46-.22s.3,0,.42,0,.34-.41,0-.44c0-.16.2,0,.2-.24-.24-.17.21-.25-.15-.28,0-.12.16-.06.25-.06.15-.56-.3-.41-.48-.58.06-.19.34,0,.48,0s0-.36.23-.51c0-.2-.1.1-.17-.1a1.6,1.6,0,0,1,.21-.33c-.15-.3-.74-.29,0-.27-.1-.22-.4-.19-.57-.32.18-.16.55.12.76.17.25-.16.18-.4.33-.85-.13-.23-.54-.11-.66,0l0,.44c-.14-.12-.07-.39.05-.52s-.26,0-.28-.2c.26.35.9-1.18.66-1.78-.07-.18-.38.07-.47-.13s.4-.12.48,0c.08-.54-.22-.61-.53-.67,0-.19.17-.17.32-.14,0-.5-.48-.34-.73-.51.37,0,1.09.09,1.14-.59-.11-.07.08-.13.06,0,.37-.06.3-.56.5-.74C39.25,42.39,39.87,42.08,40.34,41.5Zm43.94,4.25a4.82,4.82,0,0,0,.88.79C85.12,46,84.49,45.8,84.28,45.75ZM71.21,43.2c.39,0,.59.21.9,0A1.14,1.14,0,0,0,71.21,43.2Zm7.22,1.08c.18.08.23-.07.37-.05.86,0,.09,0-.22-.2.16-.17.61.3.8-.18-.7,0-1-.18-1.34.22a.42.42,0,0,0-.65-.07C77.85,44.3,78.49,43.86,78.42,44.28Zm-8.9-1.07c.34-.22.7.25.85-.09C70.1,43.16,69.64,42.87,69.52,43.2ZM55.31,41.86a1.24,1.24,0,0,0,.9,0A1,1,0,0,0,55.31,41.86ZM57,42c.35,0,.47.13.67-.11C57.42,41.9,56.94,41.92,57,42Zm-10.72-.9c.17.32,1.6,0,1.73.09C47.7,40.92,46.39,41.37,46.26,41.13Zm38.4,5.63s-.12,0-.13.08c.21-.12.22.4.35.12-.08-.07-.13-.55-.27-.29C84.64,46.67,84.67,46.68,84.66,46.75Zm-.17,10,.3,0c.06-.23-.31-.33-.34-.21S84.51,56.68,84.49,56.78Zm.13.45a.38.38,0,0,0,.33-.32C84.76,56.88,84.66,57,84.62,57.24Zm.22.2c0,.17-.17.09-.15.34.08,0,0,.16.1.19C85,57.65,84.81,57.72,84.84,57.44Zm-21.7,3.81c.17-.12.57.24.73-.1C63.56,61,63.35,61,63.14,61.24Zm2.76,0a.76.76,0,0,0-.65-.07A.75.75,0,0,0,65.91,61.26ZM61,61.38a16.34,16.34,0,0,0,3.11.14l.48,0c.11,0,.55,0,.25-.06-.8-.23-1.79.16-2.32-.23.09,0,.3.13.31-.06A4.56,4.56,0,0,0,61,61.38ZM55.7,40.93c-.1-.2-.5.12-.64-.15,0-.19.21,0,.31-.06-.06-.32-.43,0-.63-.33.43-.12.77,0,1.39-.12,0,.33-.44,0-.56.21C55.77,40.81,56,40.72,55.7,40.93Zm9.95,1.35c-.16.44-.86-.13-1.1.15C64.58,41.94,65.31,42.5,65.65,42.29Zm-15-2c.75-.05,2.68,0,4,0-.14.29-.55.09-.8.18.16.38.61,0,.87.26a19.81,19.81,0,0,1-5.78-.41c-.78.25-2.28-.23-3.57-.36-.07-.23.66.12.79-.1-.68-.25-1.3,0-2-.12,0,.36.4.24.56.41-.71.26-1.4-.52-2-.38,2.09-.5,5.38.28,8.18.47C50.83,40.37,50.73,40.33,50.66,40.34Zm1.78.18c.25.21.74.08,1,0C53.18,40.39,52.69,40.29,52.44,40.52Z"/><path class="cls-1" d="M79.1,31.24c.26-.12.45.35.63.11C79.55,31.32,79.2,30.91,79.1,31.24Zm-4.21-.14c-.48.19-.89,0-1.18.14-.05-.36.82-.08.91-.15ZM66.21,32c1.86-.63,4.47-.56,6.51-.93-.09.3-.45.2-.73.24C70.05,31.61,68,31.89,66.21,32ZM71,31.59c.24.31.51.29,1,.29.15.17-.29.06-.41.07-.28,0-.56.12-.68,0S71,31.72,71,31.59Zm-9.66-.05c-.15.15-.41.07-.6.16C60.87,31.32,61.18,31.48,61.33,31.54Zm7.15.41c0,.27-.16.26.08.27,0,.12-.39.11-.55.16,0-.08,0-.16.1-.17s-.08-.08-.13-.09C68.08,31.91,68.37,32.12,68.48,31.95Zm9.2.48c.08-.17.24-.18.41-.16s-.34,0-.14.17C77.9,32.67,77.81,32.31,77.68,32.43Zm3.31.2c.07-.2.32,0,.45-.07C81.37,32.75,81.12,32.57,81,32.62Zm1.09,0c.16.35-.29.25-.46.25A.54.54,0,0,1,82.07,32.66Zm.66,16.77c.19,0,0,.55,0,.79C82.5,50,82.8,49.86,82.73,49.43ZM72.58,51.29c-.08.2-.35,0-.51.07C72.22,51.13,72.37,51.25,72.58,51.29Zm-8,.7c-.11.25-.66-.09-1,0C63.91,51.6,64.19,51.85,64.6,52ZM63,51.94c-.09.2-.35,0-.51.07C62.53,51.77,62.88,51.8,63,51.94Zm-1.81,0c.05-.11.49-.21.46.1C61.5,51.84,61.29,52.12,61.17,52ZM81.1,31.13c.07-.15.22.26.36.27,0,.31-.23-.23-.27.08C81.06,31.41,81.28,31.17,81.1,31.13ZM48.44,33.4c-.08-.35-.32-.41-.47-.63.42-.71,1.18.24,1.62-.56A3.75,3.75,0,0,0,52.09,32c0-.19-.16,0-.22-.09,1.52-.13,3.21.63,5,.51.35,0-.23.14-.23.08,0,.29.56,0,.45,0a8.28,8.28,0,0,1,1.91,0c0-.19-.06-.17-.13-.18,1.78-.3,4.5.17,6.05-.42v.17c.35-.37.8-.13,1.14-.14-.62.37-1.83.18-2.65.44a19.9,19.9,0,0,0,2.13.25,5,5,0,0,1-1.5.13c.67.39,1.51.09,2.36.16-.16-.21-.53,0-.77-.11.21-.47.51-.26.73-.24a48.93,48.93,0,0,0,6.17-.06c.14,0,.27-.13.41-.16,1.7-.36,3.52.23,5.17.26,0-.09-.05-.07-.09-.09.43-.11,1,.13,1.46-.21,0-.28-.41.3-.4-.19.14.12.46-.05.72,0,0-.36-.09,0-.18-.09.18-.32.34-.2.6-.42,0-.15,0-.17-.09-.18.05-.25.19,0,.27,0-.13.28-.26.55-.55.51.2.26.39.52.76.46-.27.43-.78.1-1.41.22,0,.08,0,.16.09.18,0,.21-.12-.1-.18-.09s-.1.22-.1.44c.9.16,1.54-.64,2.27-.28-.12.22-.24.11-.5.16,0,.1.08.08.13.09a2.82,2.82,0,0,1-1.14.14,1.56,1.56,0,0,0,1.54.05c0-.1-.08-.08-.13-.09.19-.5.5,0,.68.2,0,.11-.26-.08-.41,0,.09.18.16.33.31.19-.16.39.52.54.72.46,0-.34-.14,0-.18-.27,0,.31-.18,0-.41.07,0-.19.07-.16.14-.17s-.05-.07-.09-.09a1.85,1.85,0,0,1,.77.2c-.14,0-.12.19-.14.43A2.61,2.61,0,0,1,83.2,36c-.19-.45-.29-1.11-.67-1,0,.35.13,1,.39,1.07,0,.12-.25-.08-.09.17,0,.17-.17-.08-.23-.09.17-.13,0-.35-.18-.36.07.27.1.62.31.62-.14.18,0,.39-.1.61-.17-.11-.13-.61-.31-.71-.15.26.26.39.08.7,0,0,.24.34.23,0a1,1,0,0,0,.26,1c0,.27-.11.82,0,.53.13.13-.11.51-.19.26a7,7,0,0,0,.3,1.06c0,.15-.08.2-.19.17,0,.52,0,.6.13.79-.14,0-.16.23-.32.16.08.33.12.36.27.45-.2.21.12.48.08.7a.26.26,0,0,1,.37,0c.07.2-.23-.13-.28.17s.23.14.27.36-.24.06-.23.34c.28.68.13,2,.61,2.21a2,2,0,0,0,.08.53.18.18,0,0,0-.32,0q0,.34.18.36c-.06.26-.17-.07-.23-.09-.16.13-.16.31-.19.52-.34,0-.6,0-.74.59,0,.25.11.26.23.27s0-.17,0-.17.31.41.17.62c.17-.05.17.2.32.19,0,.41-.1-.18-.28,0,.26.17,0,.26-.14.43s.17.3,0,.53c.05.22.19-.21.18.18-.31.2-.46-.17-.74,0,.06.23.14.28,0,.17,0,.06-.09.4,0,.44a.2.2,0,0,1-.19.17c0,.18.2.15.18.44-.39.11-.37-.53-.78-.38,0-.2.13-.09.14-.26-.55.19-.8,1-1.4,1.09.08-.42-.46-.11-.38.34-.67-.19-.45-.29-1.2,0,.08.24.23.38.46.37-.14.54-.55.24-.88.23.16-.17,0-.19-.14-.18,0,.08.06.07.09.09a26,26,0,0,1-3.65-.21c0-.14,0-.15.05-.26-.55-.18-.91.2-.19.17,0,.14-.51.14-.7.24.16-.12,0-.28-.08-.44-.14.41-.35.14-.65.15.08-.29.17,0,.28-.17-.08-.21-.36-.06-.46,0s.08.08.14.09c0,.19-.2,0-.28.08s0-.09.05-.17a8.46,8.46,0,0,0-1.16,0c-.07,0,0,.11,0,.26-.21-.25-.22.17-.46,0,.07-.25.15-.11.37-.16-.33-.13-.78-.29-1.06,0,.07.19.32,0,.41.19-.19.26-.59.08-.83.06.22-.46-.26.18-.27-.18-.11,0,.05.14-.05.26-.37-.08-.61.12-1,.06.11-.26.21,0,.33-.17-.24-.25-.39.19-.79.06.13.23.32,0,.36.27a.3.3,0,0,1-.28.17.68.68,0,0,0,.05-.26c-1.46.07-2.1.23-3.57.32,0-.08.06-.07.1-.08-1.26-.84-2.78,0-4.21-.14q.05.2.22.18c-.3.3-.58-.14-.88-.12.21.47-.2-.31-.06.26l-.65,0c0-.13.12-.19.24-.17-1.72-.24-3.85,0-5.31-.35,0,.08.05.07.09.09-1,.16-2.87-1.15-3.89-1-.14,0-.19.35-.29.25,0,.1,0,.16,0,.18-.11.25-.14-.61-.36-.19-.05-.18.35-.22.48-.33a2.27,2.27,0,0,0-2.06-.42c.28-.34-.29-.27-.49-.28,0-.14.4,0,.47-.25a.67.67,0,0,0-1,0c-.05,0,0-.09,0-.09s-.05-.07-.09-.09c0-.19.17,0,.24-.08s-.16,0-.23-.09c.25-.25-.1-.4-.3-.36-.05,0,.51-.4.22-.61a1,1,0,0,0,.35-.6c0-.37-.22-.47-.13-1.06-.09-.13-.38.14-.6.07,0-.15.17-.15.24-.25-.1-.33-.32-.58-.14-1,0-.09-.09-.06-.08-.18s-.1.18-.15.26c-.08-.25.15-.64.39-.51,0-.32-.18-.39-.4-.36-.13-.14.2-.07.28-.08-.05-.17-.28-.06-.36-.19s.23,0,.33-.08.25-.43,0-.44c0-.17.15-.06.15-.26-.19-.15.15-.26-.12-.27,0-.12.12-.07.19-.08.1-.57-.24-.38-.39-.54,0-.2.26,0,.37-.07s0-.36.16-.52c0-.2-.08.1-.13-.09a1.85,1.85,0,0,1,.16-.35c-.13-.29-.58-.23,0-.26-.08-.21-.31-.16-.44-.28.14-.18.42.07.59.11.19-.17.13-.41.23-.87-.11-.22-.42-.07-.51.07l0,.44c-.11-.11-.06-.38,0-.52s-.2,0-.22-.18c.21.33.66-1.24.46-1.83-.06-.17-.29.1-.36-.1s.3-.15.37-.08c.05-.54-.18-.59-.43-.63,0-.19.12-.18.24-.17,0-.5-.38-.31-.57-.46.29,0,.84,0,.86-.67-.08-.06.06-.13,0,0,.28-.08.21-.58.36-.78A2.46,2.46,0,0,1,48.44,33.4ZM82,34.32a4,4,0,0,0,.72.72A.9.9,0,0,0,82,34.32ZM72,32.76c.29,0,.46.17.68-.07C72.47,32.6,72,32.62,72,32.76Zm5.52.53c.14.07.17-.08.27-.08.66,0,.06,0-.18-.18.12-.18.48.26.59-.24-.53,0-.73-.11-1,.32a.27.27,0,0,0-.5,0C77,33.36,77.5,32.88,77.48,33.3Zm-6.8-.4c.25-.25.54.2.64-.15C71.11,32.81,70.75,32.56,70.68,32.9Zm-10.84-.27a.74.74,0,0,0,.68-.07C60.33,32.4,60,32.51,59.83,32.63Zm1.27,0c.27-.06.36.1.51-.16C61.44,32.5,61.07,32.56,61.1,32.67Zm-8.17-.09c.14.31,1.22-.14,1.32,0C54,32.27,53,32.81,52.93,32.58ZM82.35,35.3s-.09,0-.09.08c.16-.14.19.38.27.1-.06-.06-.13-.54-.22-.27C82.33,35.22,82.36,35.22,82.35,35.3Zm.49,10h.23c0-.23-.26-.31-.27-.18S82.84,45.21,82.83,45.31Zm.13.44a.35.35,0,0,0,.24-.34C83.05,45.38,83,45.51,83,45.76Zm.18.18c0,.17-.13.11-.1.35.06,0,0,.15.09.18C83.32,46.14,83.14,46.22,83.15,45.94ZM66.65,51.36c.13-.13.45.19.56-.16C67,51,66.8,51.07,66.65,51.36Zm2.13-.19a.47.47,0,0,0-.51,0A.47.47,0,0,0,68.79,51.17ZM65,51.66a9.84,9.84,0,0,0,2.41-.1h.37c.09,0,.43,0,.19-.08-.63-.17-1.38.3-1.8-.06.07,0,.24.11.23-.08C65.78,51.44,65.36,51.37,65,51.66Zm-4.88-20c-.09-.19-.37.16-.5-.1s.16,0,.23-.08c-.06-.31-.33,0-.49-.28.32-.15.58-.07,1.05-.23,0,.33-.34,0-.42.25C60.14,31.55,60.29,31.45,60.1,31.67Zm7.6.6c-.1.45-.66-.07-.82.24C66.87,32,67.45,32.51,67.7,32.27Zm-11.45-.81c.56-.11,2-.21,3-.34-.1.3-.42.13-.6.24.13.36.46-.07.67.2a11.48,11.48,0,0,1-4.4,0c-.58.31-1.74-.06-2.72-.09-.06-.23.5.06.6-.16-.52-.2-1,.14-1.54,0,0,.36.31.21.44.37-.53.31-1.08-.41-1.53-.23,1.58-.66,4.1-.12,6.22-.15C56.38,31.48,56.3,31.45,56.25,31.46Zm1.36,0c.2.19.56,0,.77-.06C58.16,31.33,57.78,31.26,57.61,31.5Z"/><path class="cls-1" d="M85,63.33c.43-.11.74.36,1,.13C85.68,63.41,85.11,63,85,63.33Zm-6.89-.26a14.6,14.6,0,0,1-1.93.1c-.09-.36,1.34-.06,1.49-.12Zm-14.2.69c3-.58,7.3-.43,10.64-.74-.14.3-.73.19-1.2.22C70.14,63.43,66.8,63.65,63.87,63.76Zm7.8-.32c.39.32.84.31,1.62.32.25.17-.47.05-.67.06-.47,0-.91.11-1.11,0C71.55,63.66,71.63,63.57,71.67,63.44Zm-15.79-.33c-.24.15-.68.06-1,.14C55.13,62.87,55.65,63,55.88,63.11Zm11.7.62c-.07.27-.26.25.14.27,0,.12-.64.1-.9.14,0-.08.07-.15.15-.17s-.13-.08-.22-.1C66.92,63.67,67.4,63.89,67.58,63.72Zm15,.74c.13-.17.39-.17.67-.15s-.55,0-.23.17C83,64.72,82.83,64.35,82.61,64.47Zm5.41.29c.11-.2.52,0,.74-.06C88.65,64.89,88.24,64.71,88,64.76Zm1.78.07c.25.36-.48.24-.75.24A1.12,1.12,0,0,1,89.79,64.82Zm.85,16.79c.31,0,0,.55,0,.79C90.26,82.22,90.76,82,90.64,81.61ZM74.34,83.19c-.13.2-.57,0-.82.06C73.76,83,74,83.15,74.34,83.19Zm-12.78.48c-.17.25-1.07-.1-1.56-.06C60.45,83.26,60.89,83.52,61.56,83.67ZM59,83.58c-.13.2-.57,0-.82.06C58.24,83.4,58.79,83.43,59,83.58Zm-2.89,0c.08-.11.79-.2.74.12C56.59,83.44,56.26,83.7,56.07,83.55ZM88.22,63.27c.12-.15.36.27.58.28-.07.31-.37-.24-.45.07C88.15,63.54,88.51,63.31,88.22,63.27ZM34.9,64.59c-.14-.35-.53-.42-.79-.64.66-.7,1.94.27,2.62-.51a9.69,9.69,0,0,0,4.08-.11c0-.19-.26,0-.37-.1,2.48-.09,5.27.72,8.14.66.57,0-.37.13-.37.07,0,.29.92,0,.74,0a22,22,0,0,1,3.11,0c0-.19-.1-.17-.22-.18,2.91-.25,7.35.3,9.88-.24v.17c.56-.36,1.31-.1,1.86-.1-1,.35-3,.13-4.32.36,1.11.22,2.61.19,3.48.31a13,13,0,0,1-2.45.08c1.1.41,2.47.13,3.85.23-.27-.21-.86-.06-1.26-.13.34-.46.83-.25,1.2-.22,3.43.3,6.76.08,10.09.12a6,6,0,0,0,.67-.15c2.78-.31,5.75.33,8.44.41,0-.09-.09-.07-.14-.09.7-.09,1.71.16,2.38-.17-.06-.29-.67.28-.66-.2.22.12.76,0,1.19,0,0-.36-.15-.05-.29-.1.29-.31.56-.19,1-.4,0-.15-.05-.17-.14-.18.08-.24.31,0,.44,0a.94.94,0,0,1-.91.49,1.58,1.58,0,0,0,1.24.49c-.44.42-1.28.07-2.31.18,0,.08.06.16.14.18,0,.21-.19-.11-.29-.1s-.17.21-.16.43c1.47.19,2.53-.59,3.72-.21-.2.22-.39.1-.82.14,0,.1.13.08.22.1a7.37,7.37,0,0,1-1.86.11,4,4,0,0,0,2.52.1c0-.1-.13-.08-.22-.1.32-.49.81,0,1.11.22,0,.11-.42-.09-.67,0,.14.19.26.34.51.2-.26.39.84.56,1.17.48,0-.34-.22,0-.29-.27,0,.31-.29,0-.67.06,0-.19.11-.16.23-.17s-.09-.07-.14-.09a4.61,4.61,0,0,1,1.25.22c-.22,0-.2.19-.24.43.46.48,1.07.79,1,1.79-.31-.45-.45-1.12-1.07-1a1,1,0,0,0,.63,1.08c0,.12-.41-.09-.15.17,0,.17-.27-.08-.37-.1.27-.12,0-.35-.28-.36.11.27.15.62.5.63-.24.18,0,.39-.17.61-.28-.12-.2-.62-.49-.72-.24.26.41.39.12.71,0,0,.38.34.37,0a.78.78,0,0,0,.41,1c.05.28-.19.81.05.53.21.13-.19.5-.31.25.18.33.23.81.48,1.07,0,.15-.13.19-.3.16,0,.52,0,.6.19.8-.23,0-.26.22-.53.16.13.33.19.37.43.45-.33.2.19.48.12.71a.62.62,0,0,1,.59,0c.12.2-.38-.14-.45.16s.37.15.43.37c-.1.14-.39.05-.38.34.44.69.18,2,1,2.23a1.3,1.3,0,0,0,.13.53A.4.4,0,0,0,92,78c0,.22.09.34.28.36-.1.26-.28-.07-.37-.1-.26.13-.26.3-.32.51-.55,0-1,0-1.21.57,0,.25.17.26.36.28s.08-.17,0-.17c.1-.15.49.42.27.62.27,0,.28.2.51.2,0,.41-.16-.19-.44,0,.41.18-.06.26-.24.43,0,.22.27.3.05.53.08.22.32-.2.29.19-.51.19-.74-.19-1.19,0,.09.23.23.28-.08.17,0,.06-.14.39.06.44a.31.31,0,0,1-.3.16c.07.18.32.15.28.45-.63.1-.58-.54-1.25-.4,0-.2.22-.09.23-.25-.89.18-1.3,1-2.27,1.05.13-.41-.73-.12-.61.33a2.89,2.89,0,0,0-1.93-.07.72.72,0,0,0,.73.38c-.23.54-.88.22-1.42.21.25-.17.07-.19-.22-.18,0,.08.09.07.14.09-1.78.16-3.8-.28-5.85-.31,0-.14.08-.15.08-.26-.88-.2-1.46.17-.3.16,0,.14-.81.12-1.12.22.26-.12,0-.28-.13-.44-.23.4-.57.13-1,.14.13-.28.28,0,.45-.16-.13-.21-.58-.07-.74,0,0,.1.13.08.22.1,0,.19-.32,0-.45.07s.08-.08.08-.17c-.82-.05-1.14,0-1.86,0-.11,0,0,.11,0,.26-.34-.25-.35.16-.74,0,.11-.24.24-.1.6-.15a2.64,2.64,0,0,0-1.7-.06c.11.19.52,0,.66.2-.31.26-.94.07-1.34,0,.35-.46-.42.17-.44-.19-.17,0,.08.14-.08.26-.6-.09-1,.11-1.56,0,.18-.26.34,0,.53-.16-.38-.26-.63.18-1.26,0,.22.24.51,0,.58.28a.55.55,0,0,1-.45.16.46.46,0,0,0,.08-.26c-2.34,0-3.36.17-5.72.22,0-.08.09-.06.15-.08-2-.87-4.44,0-6.74-.25a.34.34,0,0,0,.36.19c-.48.3-.93-.16-1.4-.14.34.47-.33-.31-.08.26l-1,0a.34.34,0,0,1,.38-.16c-2.77-.29-6.16-.09-8.51-.5,0,.09.09.07.14.09-1.61.13-4.63-1.23-6.26-1.11-.22,0-.29.35-.45.25,0,.1,0,.16.07.18-.17.25-.25-.61-.59-.2-.09-.18.55-.21.75-.32a5.54,5.54,0,0,0-3.32-.48c.44-.34-.48-.27-.8-.29-.08-.14.65,0,.75-.24a1.57,1.57,0,0,0-1.56-.06c-.08,0,0-.09,0-.09s-.09-.07-.14-.09c0-.19.26,0,.37-.07s-.26,0-.37-.1c.38-.24-.17-.41-.51-.37-.08,0,.8-.39.32-.6a1,1,0,0,0,.54-.59c-.07-.37-.38-.48-.26-1.06-.16-.13-.61.13-1,.05.07-.15.27-.15.38-.25-.17-.34-.54-.59-.26-1,0-.1-.15-.06-.14-.18-.2-.07-.15.18-.23.25-.15-.25.22-.64.61-.5,0-.32-.3-.39-.65-.38-.22-.14.32-.06.45-.07-.1-.18-.45-.06-.59-.2,0-.19.37,0,.52-.07s.39-.42,0-.44c0-.17.25-.05.23-.25-.32-.15.23-.26-.21-.27,0-.12.19-.07.3-.08.13-.57-.41-.39-.65-.55.06-.19.42,0,.6-.06s0-.36.24-.52c0-.2-.12.1-.22-.1a1.51,1.51,0,0,1,.24-.34c-.22-.3-.95-.25-.06-.26-.14-.21-.51-.17-.73-.29.21-.17.68.09,1,.12.3-.17.19-.41.33-.87-.18-.23-.68-.08-.82.06l0,.44c-.18-.11-.12-.38,0-.53,0-.18-.32,0-.36-.19.36.34,1-1.23.66-1.82-.11-.18-.47.09-.59-.11s.49-.14.6-.07c.06-.54-.32-.6-.72-.64,0-.19.19-.18.38-.16,0-.5-.63-.32-.95-.47.46,0,1.36,0,1.36-.65-.14-.07.08-.13.07,0,.45-.08.32-.58.55-.77C33.63,65.54,34.37,65.2,34.9,64.59Zm54.75,1.89a6.1,6.1,0,0,0,1.16.74C90.72,66.72,89.92,66.53,89.66,66.49Zm-16.4-1.85c.48,0,.75.18,1.11,0A1.72,1.72,0,0,0,73.26,64.64Zm9,.69c.22.07.27-.08.45-.07,1.07,0,.1,0-.29-.19.19-.18.78.27,1-.23-.87,0-1.19-.13-1.64.29a.6.6,0,0,0-.82,0C81.58,65.38,82.33,64.92,82.28,65.33Zm-11.11-.59c.41-.24.88.21,1-.14C71.88,64.66,71.29,64.4,71.18,64.74Zm-17.71-.58a1.88,1.88,0,0,0,1.11,0A1.49,1.49,0,0,0,53.47,64.16Zm2.07.08c.43,0,.59.11.82-.14C56.09,64.08,55.48,64.12,55.54,64.23ZM42.2,63.91c.24.31,2-.1,2.15,0C44,63.62,42.38,64.14,42.2,63.91Zm48,3.57c-.06,0-.15,0-.15.08.26-.13.3.38.44.1-.1-.06-.21-.54-.36-.28C90.19,67.39,90.23,67.4,90.21,67.47Zm.66,10h.37c0-.23-.42-.31-.44-.19S90.89,77.4,90.87,77.5Zm.21.45c.18,0,.35-.11.38-.34C91.22,77.58,91.1,77.7,91.08,77.95Zm.29.19c0,.17-.21.1-.16.34.1,0,.06.16.14.18C91.64,78.34,91.36,78.41,91.37,78.13Zm-26.52,5c.2-.13.72.21.9-.14C65.33,82.79,65.07,82.81,64.84,83.1ZM68.26,83a1.16,1.16,0,0,0-.82,0A1.14,1.14,0,0,0,68.26,83Zm-6.1.38a25.11,25.11,0,0,0,3.86,0l.59,0c.15,0,.68,0,.3-.08-1-.19-2.21.26-2.89-.11.11,0,.38.12.37-.07A6.85,6.85,0,0,0,62.16,83.35ZM53.87,63.21c-.14-.19-.61.15-.81-.12,0-.19.26,0,.37-.07-.11-.31-.54,0-.8-.29.52-.14.95-.06,1.71-.2,0,.33-.55,0-.68.24C53.95,63.08,54.19,63,53.87,63.21ZM66.31,64c-.16.44-1.07-.09-1.34.21C64.94,63.74,65.9,64.25,66.31,64ZM47.58,62.88c.92-.09,3.32-.15,4.91-.25-.15.3-.68.12-1,.23.23.37.75-.06,1.1.22a30.44,30.44,0,0,1-7.19-.1c-.94.29-2.84-.11-4.45-.17-.1-.23.83.08,1-.14a22.42,22.42,0,0,0-2.52,0c0,.36.52.22.73.38-.85.3-1.77-.44-2.51-.27,2.55-.62,6.69,0,10.16,0C47.79,62.9,47.67,62.87,47.58,62.88ZM49.8,63c.33.2.92,0,1.26,0A1.52,1.52,0,0,0,49.8,63Z"/><path class="cls-1" d="M76.6,74.09c.37-.13.66.33.9.08C77.24,74.14,76.72,73.76,76.6,74.09Zm-6,.12a11.3,11.3,0,0,1-1.67.22c-.1-.35,1.16-.14,1.28-.21ZM58.37,75.88c2.58-.82,6.28-1,9.15-1.5-.1.31-.62.24-1,.3C63.77,75.09,60.89,75.54,58.37,75.88ZM65.09,75c.36.29.75.25,1.42.21.23.16-.4.09-.58.11-.4.05-.78.17-1,0C65,75.22,65.06,75.12,65.09,75Zm-13.68.92c-.2.17-.58.12-.82.22C50.74,75.74,51.2,75.86,51.41,75.91Zm10.16-.34c0,.27-.21.27.14.26,0,.12-.54.15-.76.21,0-.08,0-.16.12-.18s-.12-.07-.2-.08C61,75.57,61.43,75.75,61.57,75.57Zm13.05-.21c.11-.17.33-.19.58-.18s-.47,0-.19.18C75,75.59,74.81,75.23,74.62,75.35Zm4.69,0c.09-.2.45,0,.64-.09C79.87,75.48,79.51,75.32,79.32,75.38Zm1.54,0c.23.35-.4.26-.64.27A.89.89,0,0,1,80.86,75.36ZM82.21,92.1c.26,0,0,.55,0,.79C81.92,92.73,82.33,92.53,82.21,92.1ZM68.64,94.52c-.1.2-.47,0-.68.11C68.15,94.39,68.35,94.5,68.64,94.52ZM58,95.91c-.12.27-.89,0-1.3.07C57.06,95.59,57.45,95.81,58,95.91ZM55.85,96c-.1.21-.47.06-.68.12C55.23,95.91,55.7,95.89,55.85,96Zm-2.41.22c.06-.12.64-.26.62.05C53.87,96.09,53.61,96.38,53.45,96.25Zm26-22.37c.1-.16.33.25.52.26-.05.31-.33-.22-.39.09C79.39,74.16,79.69,73.91,79.43,73.88ZM33.54,79.57c-.16-.33-.51-.36-.76-.54.48-.77,1.69,0,2.18-.82a7.41,7.41,0,0,0,3.5-.57c0-.19-.23,0-.33-.06,2.12-.36,4.61.14,7.07-.2.49,0-.31.17-.31.11,0,.29.79-.08.64,0a15.84,15.84,0,0,1,2.68-.27c0-.19-.1-.16-.2-.16,2.48-.53,6.36-.38,8.5-1.11v.17c.46-.41,1.12-.21,1.6-.25-.84.43-2.57.38-3.7.72,1,.13,2.27,0,3,0a9.87,9.87,0,0,1-2.11.29c1,.32,2.14-.08,3.34-.08-.25-.19-.75,0-1.09,0,.26-.49.7-.31,1-.31,3,0,5.84-.42,8.72-.61a4.61,4.61,0,0,0,.57-.19c2.39-.49,5,0,7.33-.08,0-.09-.08-.07-.13-.09.6-.13,1.49.07,2.05-.3-.07-.28-.56.32-.58-.17.2.11.65-.08,1,0,0-.36-.13,0-.26-.08.24-.33.47-.21.83-.45,0-.15-.05-.16-.13-.17.06-.25.27,0,.39,0-.17.29-.35.56-.77.53a1.27,1.27,0,0,0,1.1.43c-.36.44-1.11.13-2,.29,0,.08.06.16.13.17,0,.21-.17-.1-.26-.08s-.13.22-.12.44c1.28.11,2.16-.71,3.21-.39-.16.23-.34.12-.7.18,0,.1.12.07.19.09a5.56,5.56,0,0,1-1.6.19,3,3,0,0,0,2.18,0c0-.1-.12-.07-.19-.09.26-.5.7-.07,1,.17,0,.11-.37-.07-.58,0,.13.18.24.32.45.17-.21.4.75.52,1,.43,0-.34-.19,0-.26-.26,0,.31-.25,0-.58.09,0-.19.09-.17.19-.18s-.08-.07-.13-.09a3.5,3.5,0,0,1,1.09.17c-.2,0-.16.2-.19.44.42.46,1,.74,1,1.75-.28-.44-.43-1.1-1-1-.06.35.22,1,.58,1,0,.12-.35-.07-.13.18,0,.17-.24-.07-.32-.09.23-.13,0-.34-.26-.35.11.27.15.61.45.61-.2.19,0,.39-.12.61-.24-.1-.2-.61-.45-.7-.2.27.37.38.13.7,0-.05.34.33.32,0a.82.82,0,0,0,.39,1c.06.27-.13.82.07.53.18.12-.15.51-.25.26a5.67,5.67,0,0,0,.45,1.05c0,.15-.11.2-.25.18,0,.52,0,.6.19.79-.2,0-.21.23-.44.18.13.33.17.36.38.44-.28.22.18.47.13.7a.46.46,0,0,1,.51,0c.11.2-.33-.13-.38.18s.32.13.38.35-.33.07-.31.35c.4.67.22,2,.89,2.19a1.48,1.48,0,0,0,.13.53.3.3,0,0,0-.44,0c0,.22.09.34.25.35-.08.27-.24-.06-.31-.09-.21.14-.21.31-.25.53-.47,0-.82,0-1,.62,0,.25.15.25.31.26s.06-.17,0-.17c.08-.15.43.39.25.61.23-.06.24.19.44.17,0,.41-.14-.18-.37,0,.36.16,0,.26-.19.44,0,.22.24.29.06.53.07.22.26-.21.25.17-.42.21-.63-.15-1,0,.09.23.2.27-.06.18,0,.06-.11.4.06.44a.26.26,0,0,1-.25.18c.06.18.28.14.25.44-.52.13-.51-.51-1.06-.35,0-.2.18-.1.18-.26-.74.21-1.05,1-1.86,1.16.09-.42-.62-.09-.49.36-.9-.16-.62-.27-1.61,0a.58.58,0,0,0,.63.34c-.17.55-.72.27-1.17.28.2-.18,0-.19-.19-.17,0,.08.08.07.13.09-1.48.25-3.19-.08-4.9,0,0-.14.05-.15.06-.26-.75-.15-1.21.26-.24.18,0,.14-.67.17-.92.29.21-.13,0-.28-.14-.43-.17.42-.47.16-.86.2.09-.29.23,0,.37-.19-.12-.21-.49,0-.62,0s.12.07.19.08c0,.19-.26,0-.37.1s.06-.09.06-.18a14.08,14.08,0,0,0-1.55.13c-.09,0,0,.11,0,.26-.3-.23-.28.19-.62,0,.08-.25.2-.12.49-.19a1.87,1.87,0,0,0-1.43,0c.1.18.43,0,.56.16-.24.28-.78.13-1.11.13.26-.48-.34.2-.38-.16-.14.05.08.13-.05.27-.5,0-.8.17-1.3.14.13-.27.29,0,.43-.19-.33-.23-.51.22-1,.13.2.22.43,0,.51.24a.43.43,0,0,1-.36.19.53.53,0,0,0,.05-.27c-1.95.19-2.79.42-4.75.65,0-.08.07-.07.12-.09-1.76-.71-3.7.33-5.63.31a.28.28,0,0,0,.32.16c-.37.34-.79-.08-1.18,0,.33.44-.3-.28,0,.27l-.87.06a.27.27,0,0,1,.3-.19c-2.33,0-5.12.48-7.12.32,0,.08.08.06.13.08-1.32.29-4-.74-5.32-.45-.18,0-.2.38-.35.3,0,.1,0,.15.08.17-.11.27-.28-.58-.51-.13-.1-.17.43-.27.59-.4a4,4,0,0,0-2.81-.1c.32-.38-.43-.22-.7-.2-.09-.13.53-.1.59-.32a1.13,1.13,0,0,0-1.3.12,0,0,0,0,1,0-.09c0-.08-.08-.06-.13-.08,0-.19.22-.06.3-.12s-.22,0-.32-.06c.29-.29-.2-.38-.47-.31-.07,0,.62-.48.19-.63a1,1,0,0,0,.38-.65c-.1-.36-.38-.43-.35-1-.15-.11-.49.2-.8.16,0-.16.2-.18.29-.29-.19-.31-.53-.53-.34-.94,0-.09-.13,0-.14-.16-.17,0-.1.19-.16.28a.41.41,0,0,1,.45-.57c-.08-.31-.31-.35-.6-.3-.2-.12.26-.1.37-.12-.1-.16-.39,0-.52-.13s.3-.06.43-.13.27-.47,0-.44c0-.17.2-.08.16-.28-.29-.12.16-.28-.21-.24,0-.12.15-.09.24-.11,0-.58-.39-.34-.61-.47,0-.2.35-.07.49-.13s0-.36.14-.54c-.05-.19-.09.12-.2-.07a1.56,1.56,0,0,1,.15-.37c-.22-.27-.83-.14-.09-.26-.14-.19-.45-.11-.65-.2.16-.2.59,0,.83,0,.23-.2.11-.43.17-.9-.18-.2-.58,0-.68.15l0,.44c-.17-.09-.15-.37-.05-.52s-.28,0-.33-.14c.34.3.7-1.34.33-1.88-.11-.16-.38.15-.51,0s.39-.2.5-.14c0-.54-.35-.56-.69-.55,0-.19.14-.2.3-.2-.07-.5-.58-.24-.87-.36.4-.05,1.16-.13,1.07-.81-.13,0,.06-.14.06,0,.37-.13.2-.61.37-.83C32.57,80.66,33.16,80.23,33.54,79.57ZM80.81,77a5.2,5.2,0,0,0,1,.7C81.73,77.22,81,77.06,80.81,77Zm-14.26-.95c.42,0,.66.13,1-.12A1.3,1.3,0,0,0,66.54,76.08Zm7.84.15c.2.06.23-.09.38-.09.93-.06.09,0-.26-.17.15-.19.69.23.83-.28-.75.08-1-.07-1.41.37a.47.47,0,0,0-.71,0C73.78,76.32,74.4,75.82,74.38,76.23Zm-9.63.09c.34-.27.78.15.89-.21C65.36,76.2,64.83,76,64.75,76.32Zm-15.32.85a1.43,1.43,0,0,0,1-.15A1.13,1.13,0,0,0,49.43,77.17Zm1.79-.11c.37-.09.52.05.69-.22C51.68,76.86,51.17,77,51.23,77.06Zm-11.51,1c.25.28,1.69-.32,1.85-.24C41.2,77.59,39.9,78.27,39.71,78.06ZM81.32,78s-.13,0-.13.09c.22-.14.28.37.38.09-.09-.06-.2-.54-.32-.26C81.3,77.91,81.34,77.92,81.32,78Zm.94,10h.31c0-.23-.37-.3-.38-.17S82.27,87.88,82.26,88Zm.19.44c.15-.06.29-.12.31-.35C82.56,88,82.46,88.17,82.45,88.42Zm.25.17c0,.17-.17.11-.12.35.08,0,.06.15.13.17C82.94,88.79,82.7,88.88,82.7,88.59Zm-22,6.49c.16-.14.62.15.74-.21C61.09,94.74,60.88,94.78,60.71,95.08Zm2.84-.38a.82.82,0,0,0-.68,0A.81.81,0,0,0,63.55,94.7Zm-5.05.84a17.85,17.85,0,0,0,3.21-.32l.5,0c.12,0,.57-.06.24-.1-.86-.12-1.82.42-2.42.11.09-.05.32.09.31-.1A4.88,4.88,0,0,0,58.5,95.54ZM49.69,76.19c-.14-.18-.51.21-.71,0,0-.19.23-.05.32-.11-.12-.3-.47,0-.72-.22.43-.19.81-.15,1.46-.36,0,.33-.47.08-.56.3C49.74,76.06,49.94,75.94,49.69,76.19ZM60.49,76c-.1.45-.93,0-1.14.32C59.3,75.78,60.16,76.22,60.49,76Zm-16.26.51c.78-.18,2.85-.49,4.21-.73-.1.31-.57.18-.82.32.24.34.64-.13,1,.11a24,24,0,0,1-6.21.62c-.78.38-2.46.19-3.85.31-.12-.22.72,0,.82-.24-.77-.12-1.37.28-2.17.27.07.35.47.16.67.29-.7.39-1.58-.24-2.19,0,2.12-.91,5.75-.75,8.75-1.07C44.41,76.48,44.31,76.46,44.23,76.48Zm1.92-.14c.3.16.8-.05,1.08-.17C46.91,76.09,46.37,76.07,46.16,76.34Z"/><path class="cls-1" d="M85.89,80.63c.51-.09.85.41,1.2.19C86.74,80.76,86.08,80.31,85.89,80.63Zm-8-.57a21.1,21.1,0,0,1-2.26.06c-.1-.36,1.57,0,1.74-.09Zm-16.56.67c3.52-.68,8.5-.53,12.4-.8-.16.3-.86.17-1.4.2C68.59,80.3,64.69,80.53,61.28,80.73Zm9.09-.4a3.32,3.32,0,0,0,1.89.33c.29.18-.55.05-.78.06a3.08,3.08,0,0,1-1.3,0C70.24,80.54,70.33,80.45,70.38,80.33Zm-18.43.09c-.28.16-.78.09-1.12.19C51.05,80.22,51.67,80.36,51.95,80.41Zm13.66.21c-.08.27-.3.25.17.27.05.12-.74.11-1,.15,0-.08.08-.16.18-.17s-.16-.08-.26-.09C64.83,80.58,65.4,80.79,65.61,80.62Zm17.51,1a1,1,0,0,1,.79-.11c.37.17-.64,0-.27.15C83.54,81.92,83.38,81.55,83.12,81.65Zm6.28.62c.14-.19.6,0,.87,0C90.12,82.44,89.66,82.23,89.39,82.26Zm2.06.2c.27.38-.57.2-.88.17A1.43,1.43,0,0,1,91.46,82.46Zm0,16.83c.34,0-.09.55-.08.79C91,99.87,91.53,99.74,91.43,99.29Zm-18,.82c-.15.19-.62,0-.9,0C72.77,99.93,73,100.06,73.4,100.11Zm-14,.59c-.18.26-1.17-.06-1.71,0C58.15,100.33,58.65,100.57,59.38,100.7Zm-2.84,0c-.14.2-.62,0-.89.09C55.73,100.55,56.34,100.56,56.54,100.7Zm-3.17.12c.08-.11.85-.24.81.08C53.93,100.68,53.58,101,53.37,100.82Zm36.34-20c.15-.14.41.3.67.32-.1.31-.42-.26-.53,0C89.62,81.06,90,80.86,89.71,80.8ZM27.81,84c-.21-.33-.67-.34-1-.52.66-.79,2.27,0,2.95-.88A13.59,13.59,0,0,0,34.47,82c0-.19-.31,0-.44-.06,2.86-.38,6.18.12,9.49-.19.66,0-.42.16-.43.1,0,.29,1.07-.07.86,0a26.47,26.47,0,0,1,3.61-.22c0-.19-.13-.16-.26-.17,3.36-.48,8.56-.16,11.47-.78v.17c.64-.38,1.52-.15,2.16-.16-1.16.36-3.47.24-5,.52,1.3.18,3,.08,4.05.17a18,18,0,0,1-2.85.18c1.29.37,2.88,0,4.48.11-.32-.21-1,0-1.46-.1.38-.47,1-.27,1.38-.25,4,.19,7.87,0,11.74.06a7.86,7.86,0,0,0,.78-.14c3.25-.26,6.7.47,9.82.7,0-.09-.1-.08-.17-.1.82-.06,2,.25,2.78,0-.06-.29-.79.25-.76-.24.25.13.88,0,1.38.12.06-.35-.18-.06-.34-.12.35-.3.66-.15,1.16-.33,0-.15-.05-.17-.16-.19.11-.24.36.06.52,0a1.13,1.13,0,0,1-1.08.43,2,2,0,0,0,1.43.57c-.53.39-1.49,0-2.69,0,0,.08.06.16.16.19,0,.2-.22-.12-.34-.11s-.2.21-.21.42c1.69.27,3-.43,4.33,0-.24.21-.46.07-1,.09,0,.1.15.09.25.11a9.94,9.94,0,0,1-2.16,0,5.37,5.37,0,0,0,2.92.27c0-.1-.15-.09-.25-.11.4-.47.94,0,1.27.29,0,.1-.49-.12-.77-.07.15.2.29.35.58.23-.33.37.95.63,1.33.58.07-.33-.26,0-.32-.3,0,.31-.34,0-.78,0,0-.19.14-.15.27-.15s-.1-.08-.16-.1a6.17,6.17,0,0,1,1.44.33c-.26-.07-.24.17-.3.41.5.51,1.19.87,1.1,1.88-.32-.48-.45-1.15-1.18-1.09A1,1,0,0,0,92.82,86c0,.12-.46-.12-.19.16,0,.17-.31-.1-.42-.13.32-.1,0-.35-.3-.38.11.28.14.63.53.67-.28.16-.06.39-.23.59-.31-.14-.2-.63-.52-.76-.29.24.45.43.1.72,0,0,.42.37.42,0a.75.75,0,0,0,.41,1c0,.28-.27.8,0,.53.23.15-.25.49-.37.23.19.35.22.83.48,1.11,0,.15-.17.18-.35.14,0,.52,0,.6.17.81-.26,0-.3.2-.6.11.13.34.19.38.46.49-.39.17.18.5.09.72a.78.78,0,0,1,.67.07c.12.21-.42-.17-.52.12.07.2.41.18.46.4-.13.13-.44,0-.45.31.45.72.08,2,.93,2.3a1.19,1.19,0,0,0,.11.54.5.5,0,0,0-.58-.06.32.32,0,0,0,.29.38c-.13.25-.31-.09-.4-.13-.3.11-.31.28-.39.49-.61-.06-1.08-.07-1.38.47,0,.24.18.27.38.3s.1-.16,0-.17c.12-.14.52.45.26.64.31,0,.29.22.56.23-.05.41-.17-.2-.49-.05.45.21-.08.25-.29.41,0,.22.28.32,0,.53.07.23.36-.18.31.21-.57.15-.81-.24-1.31-.14.09.24.24.3-.1.17,0,.06-.18.38,0,.44a.35.35,0,0,1-.34.14c.06.18.35.18.28.47-.7.05-.61-.58-1.35-.49,0-.2.24-.07.27-.24-1,.11-1.49.89-2.55.91.16-.41-.8-.17-.68.29a3.39,3.39,0,0,0-2.11-.18.83.83,0,0,0,.78.41c-.28.52-1,.18-1.56.14.29-.16.08-.18-.23-.19,0,.08.09.08.16.1-2,.06-4.16-.45-6.42-.54,0-.14.09-.15.1-.26-1-.23-1.61.14-.34.15,0,.13-.9.1-1.24.2.28-.11,0-.28-.14-.45-.26.4-.62.12-1.15.12.15-.28.3,0,.5-.15-.14-.22-.64-.08-.81,0,0,.1.14.08.24.1,0,.19-.35,0-.49.06,0-.07.09-.08.09-.17-.91-.07-1.25,0-2,0-.12,0,0,.11,0,.26-.37-.25-.39.16-.81,0,.12-.24.27-.1.66-.15a3.18,3.18,0,0,0-1.87-.07c.12.19.57.05.73.2-.34.25-1,.06-1.47,0,.38-.45-.46.17-.48-.19-.19,0,.09.14-.09.26-.65-.09-1.07.11-1.71,0,.19-.26.38,0,.57-.16-.42-.25-.69.18-1.39.05.24.24.56,0,.64.28a.64.64,0,0,1-.49.16.43.43,0,0,0,.09-.26c-2.57,0-3.69.23-6.27.34,0-.08.1-.07.16-.09-2.26-.8-4.87.14-7.4,0a.39.39,0,0,0,.41.17c-.5.32-1-.11-1.55-.07.4.45-.38-.29-.08.27l-1.14,0a.39.39,0,0,1,.4-.19c-3-.11-6.74.35-9.35.18,0,.08.1.06.17.08-1.74.27-5.18-.75-7-.44-.24,0-.28.38-.47.3,0,.1,0,.15.09.17-.16.27-.35-.58-.66-.12-.12-.17.57-.28.78-.41a6.66,6.66,0,0,0-3.69-.06c.43-.39-.56-.21-.92-.18-.11-.13.7-.12.79-.34a1.88,1.88,0,0,0-1.71.16c-.09,0-.05-.08,0-.09s-.11-.06-.17-.07c0-.19.29-.07.4-.13s-.29,0-.42,0c.39-.29-.24-.38-.6-.3-.09,0,.83-.5.27-.64a1,1,0,0,0,.52-.66c-.12-.36-.48-.42-.42-1-.19-.11-.66.22-1.06.19.06-.16.27-.19.39-.3-.24-.31-.68-.51-.42-.93,0-.09-.17,0-.18-.16-.23,0-.14.2-.22.29-.2-.23.15-.67.61-.59-.09-.31-.39-.35-.78-.28-.27-.11.35-.11.49-.13-.13-.16-.51,0-.68-.11,0-.2.4-.07.57-.14s.37-.48,0-.44c0-.17.27-.09.22-.29-.37-.11.22-.29-.27-.24,0-.12.2-.09.32-.12.07-.58-.51-.33-.8-.45,0-.2.46-.08.66-.15s-.05-.36.2-.55c-.07-.19-.12.12-.26-.06a1.49,1.49,0,0,1,.22-.37c-.28-.26-1.1-.11-.11-.25-.18-.19-.6-.09-.86-.18.21-.2.78,0,1.09,0,.31-.21.16-.43.25-.9-.23-.2-.78,0-.91.17l0,.44c-.22-.08-.19-.36-.05-.52,0-.18-.37,0-.44-.14.45.29,1-1.36.5-1.9-.14-.16-.51.16-.68,0s.53-.21.67-.15c0-.54-.45-.55-.9-.53,0-.19.19-.21.41-.21-.07-.5-.76-.22-1.14-.33.53-.06,1.55-.17,1.46-.84-.17,0,.08-.14.08,0,.5-.14.29-.62.52-.84C26.48,85.12,27.27,84.68,27.81,84Zm63.4.11a7.47,7.47,0,0,0,1.3.84C92.42,84.43,91.51,84.18,91.21,84.11Zm-19-2.57c.56,0,.87.18,1.3,0A2.25,2.25,0,0,0,72.23,81.54Zm10.48,1c.26.08.32-.06.52,0,1.25.06.12,0-.33-.2.23-.17.9.31,1.14-.18-1,0-1.38-.2-1.92.2a.77.77,0,0,0-.95-.06C81.89,82.51,82.78,82.09,82.71,82.5Zm-12.9-.87c.47-.24,1,.22,1.21-.13C70.63,81.55,69.94,81.28,69.81,81.62Zm-20.6,0a2.53,2.53,0,0,0,1.29-.12A2,2,0,0,0,49.21,81.62Zm2.41-.06c.5-.07.7.07.95-.19C52.25,81.37,51.55,81.45,51.62,81.56Zm-15.49.83c.32.28,2.28-.33,2.49-.24C38.15,81.9,36.37,82.6,36.14,82.39Zm55.66,2.75c-.07,0-.17,0-.18.07.3-.11.33.41.5.14-.11-.07-.21-.56-.4-.31C91.77,85.06,91.82,85.07,91.79,85.14Zm.15,10.06.41,0c.07-.22-.45-.35-.48-.23S92,95.11,91.94,95.21Zm.2.46c.2,0,.4-.08.45-.31A.34.34,0,0,0,92.14,95.67Zm.31.21c0,.17-.24.09-.2.33.11,0,.06.16.15.19C92.75,96.1,92.43,96.16,92.46,95.88ZM63,100c.22-.13.8.19,1-.16C63.5,99.71,63.22,99.75,63,100Zm3.75-.18a1.39,1.39,0,0,0-.9,0A1.37,1.37,0,0,0,66.72,99.86Zm-6.69.5a31.5,31.5,0,0,0,4.23-.12l.65,0c.16,0,.75,0,.33-.08-1.12-.19-2.42.3-3.18-.06.12,0,.42.11.41-.08A8.19,8.19,0,0,0,60,100.35ZM49.62,80.64c-.18-.18-.7.19-1-.06,0-.19.31,0,.43-.1-.15-.31-.63,0-1-.24.59-.18,1.1-.12,2-.32,0,.33-.64.07-.77.28C49.7,80.52,50,80.4,49.62,80.64Zm14.51.3c-.17.45-1.25-.06-1.56.24C62.54,80.68,63.66,81.18,64.13,80.94Zm-21.86-.13c1.06-.16,3.85-.45,5.69-.65-.15.31-.78.16-1.12.29.3.35.87-.11,1.3.14a47.82,47.82,0,0,1-8.37.52c-1.06.37-3.31.19-5.18.32-.15-.22,1,0,1.11-.25a27.68,27.68,0,0,0-2.93.29c.08.35.62.15.89.29-.95.4-2.11-.21-2.94.05,2.87-1,7.75-.82,11.8-1.1C42.52,80.82,42.37,80.79,42.27,80.81Zm2.59-.11a2.68,2.68,0,0,0,1.47-.15A2,2,0,0,0,44.86,80.71Z"/><path d="M68.41,101.45c.08.25-.41.32-.2.52C68.27,101.83,68.72,101.6,68.41,101.45Zm.67-3.62c-.14-.44,0-.78,0-1,.36,0,0,.72.06.81Zm-.48-7.56c.64,1.61.44,3.87.66,5.67-.29-.11-.16-.41-.18-.66C69,93.59,68.76,91.82,68.6,90.28Zm.3,4.13c-.32.18-.32.42-.35.83-.18.11,0-.25,0-.36s-.09-.49.06-.58Zm.1-8.32c-.16-.12-.08-.35-.18-.5C69.21,85.68,69.07,86,69,86.08Zm-.35,6.14c-.27-.05-.25-.15-.27.06-.12,0-.1-.34-.14-.48.08,0,.15,0,.17.09s.08-.07.1-.11C68.72,91.88,68.5,92.12,68.66,92.23ZM67.45,100a.29.29,0,0,1,.1.38c-.18.14,0-.29-.15-.15C67.17,100.16,67.54,100.15,67.45,100Zm-.69,2.75c.18.1,0,.27,0,.4C66.57,103.07,66.78,102.9,66.76,102.77Zm-.22.91c-.37,0-.19-.3-.16-.44A.45.45,0,0,1,66.54,103.68Zm-16.37-3.58c0,.11-.53-.15-.76-.2C49.6,99.8,49.73,100,50.16,100.09Zm-.93-6.5c-.19-.07,0-.21,0-.31C49.4,93.4,49.28,93.48,49.23,93.6Zm-.57-4.78c-.26-.07.07-.39,0-.57C49,88.41,48.8,88.58,48.66,88.82Zm0-1c-.2,0,0-.21-.08-.3C48.84,87.6,48.82,87.8,48.68,87.87Zm-.09-1.06c.11,0,.23.28-.08.27C48.73,87,48.45,86.88,48.59,86.81Zm19.6,16.39c.14.1-.3.13-.33.25-.3-.11.27-.15,0-.25C67.93,103.1,68.13,103.34,68.19,103.19ZM65.66,75.56c.33-.14.34-.35.52-.52.77.19,0,1,.85,1.21a2.85,2.85,0,0,0,.58,2.05c.19,0,0-.14.06-.2.36,1.26-.17,2.79.1,4.25,0,.29-.16-.18-.1-.18-.29,0,.06.47,0,.38a5.3,5.3,0,0,1,.19,1.6c.19,0,.17-.06.17-.12.45,1.49.08,3.81.67,5.13h-.17c.38.3.14.69.14,1-.35-.53-.2-1.57-.47-2.26a15.53,15.53,0,0,0-.21,1.8,3.69,3.69,0,0,1-.15-1.27c-.38.57-.06,1.28-.15,2,.21-.13.05-.44.12-.65.47.18.26.44.23.62-.24,1.77-.07,3.51-.18,5.25,0,.12.11.25.13.37.22,1.5-.55,3-.81,4.34.08,0,.08,0,.1-.06,0,.38-.27.86,0,1.27.29,0-.23-.4.24-.31-.13.09,0,.4-.13.61.35.09.06-.07.12-.13.28.21.14.33.31.59.14,0,.17,0,.19,0,.23.09-.06.16-.05.23-.25-.17-.5-.34-.41-.58-.28.12-.57.22-.58.55-.38-.32,0-.68,0-1.23-.08,0-.16,0-.19,0-.2-.05.12-.08.12-.13s-.2-.13-.41-.17c-.28.72.38,1.42-.09,2-.2-.15-.07-.22-.07-.45-.1,0-.09.05-.11.09a2.09,2.09,0,0,1,0-1,1.15,1.15,0,0,0-.3,1.27c.1,0,.09-.05.11-.09.45.27,0,.43-.31.52-.1,0,.13-.2.08-.34-.19,0-.35.06-.23.22-.36-.22-.62.3-.58.48.32.1,0-.12.29-.08-.31-.07,0-.15,0-.35.19,0,.15.09.14.15s.08,0,.1-.05a1.35,1.35,0,0,1-.34.58c.07-.1-.17-.14-.39-.22a2.8,2.8,0,0,1-1.84.09c.47,0,1.13,0,1.08-.29-.33-.12-1-.13-1.1.05-.12,0,.13-.18-.15-.12s.1-.11.13-.16c.09.16.34.07.38-.05-.27,0-.61-.07-.66.09-.15-.16-.38-.11-.57-.23.14-.11.62,0,.74-.07-.23-.18-.42.11-.7-.11,0,0-.37.1,0,.18a1.18,1.18,0,0,0-1,0c-.27,0-.77-.29-.52-.1-.15.06-.47-.21-.22-.2a9.22,9.22,0,0,0-1.08,0c-.15,0-.18-.11-.13-.18a1.71,1.71,0,0,0-.79-.11c0-.1-.2-.17-.11-.27-.33,0-.37,0-.48.08-.17-.2-.48,0-.69-.12.07.12.05.19-.07.26s.17-.13-.12-.24-.17.13-.39.1,0-.18-.3-.25c-.7,0-1.92-.41-2.23-.15a2.82,2.82,0,0,0-.52-.08.11.11,0,0,0,.06-.21q-.32-.08-.37,0c-.25-.11.09-.1.12-.13a1,1,0,0,0-.48-.26c.06-.22.06-.4-.47-.63-.24-.07-.26,0-.29.08s.16.07.17,0-.44.09-.62,0c0,.12-.21.06-.22.16-.4-.11.19,0,0-.17-.2.12-.25-.09-.4-.2s-.31,0-.52-.11.17.17-.2.07c-.15-.24.23-.24.12-.45-.23,0-.29,0-.16-.07-.06,0-.37-.15-.43-.08s-.14-.1-.14-.15c-.18,0-.17.09-.45,0-.06-.26.56-.09.46-.38.2,0,.07.1.23.15-.11-.38-.88-.72-.91-1.1.4.14.16-.25-.29-.3.25-.36.34-.21.16-.71-.25,0-.39.06-.4.2-.52-.19-.19-.37-.15-.57.16.13.18.06.19,0s-.07,0-.1,0c-.08-.69.4-1.36.48-2.13a1.87,1.87,0,0,1,.25.07c.22-.3-.14-.57-.15-.14-.13,0-.11-.32-.2-.45.11.11.28,0,.44,0-.39-.14-.12-.23-.12-.41.28.08,0,.1.15.19s.08-.21,0-.28-.08,0-.1.07c-.19,0,0-.12-.06-.18a1.36,1.36,0,0,0,.17.05,2.59,2.59,0,0,0,0-.7s-.11,0-.26,0c.25-.1-.16-.15,0-.27.24.07.1.1.15.24.14-.18.31-.44.07-.63-.19,0-.05.19-.2.23-.25-.14-.06-.36,0-.5.45.17-.17-.17.19-.15,0-.07-.14,0-.26-.05.09-.22-.11-.37,0-.58.26.08,0,.13.16.21.25-.12-.18-.25-.05-.47-.24.07,0,.19-.28.2-.12,0-.16-.11-.16-.18A1.11,1.11,0,0,0,49,91c0-.87-.22-1.26-.31-2.12.08,0,.07,0,.08.06.81-.74-.1-1.64,0-2.48q-.19,0-.17.14c-.31-.16.12-.34.08-.52-.45.14.3-.13-.26,0l0-.38c.13,0,.19.06.18.13.15-1-.24-2.24,0-3.12-.08,0-.06,0-.08.06-.24-.55.85-1.83.59-2.41,0-.08-.37,0-.29-.12-.1,0-.15,0-.17.05-.27,0,.58-.19.14-.24.17-.06.26.16.39.22A1,1,0,0,0,49.27,79c.38.1.22-.23.2-.35s.1.23.31.23a.31.31,0,0,0-.11-.58s.08,0,.09,0,.06,0,.08-.07c.19,0,.06.09.11.12s0-.11.06-.16c.28.09.38-.15.31-.26s.47.22.62,0a1.24,1.24,0,0,0,.64.08,3.86,3.86,0,0,1,1-.31c.11-.09-.2-.21-.16-.36.16,0,.18.07.29.1a1.7,1.7,0,0,1,.92-.31c.09,0,0-.07.16-.09s-.19,0-.28,0c.23-.11.65-.05.56.14.3-.08.35-.21.29-.34.11-.12.1.12.12.17s0-.2.13-.28.06.14.13.2.46.07.43-.09c.16,0,.08.09.28,0s.28,0,.24-.14c.12,0,.09.06.11.11.57-.06.33-.25.46-.39s.07.17.13.24.35-.08.54,0-.11,0,.07-.11a2.24,2.24,0,0,1,.36,0c.26-.15.13-.46.25-.08.19-.1.1-.25.2-.38.19.05,0,.31,0,.44.2.09.43,0,.89,0,.2-.13,0-.31-.16-.35l-.43.09a.67.67,0,0,1,.52-.1c.18,0,0-.15.14-.2-.29.23,1.33.19,1.86-.09.16-.09-.15-.19,0-.29s.2.19.14.26c.53-.09.54-.27.53-.47.19,0,.2.05.21.14.49-.11.23-.36.34-.54.06.22.15.64.81.49,0-.08.14,0,0,0,.13.19.6,0,.82.1A2.8,2.8,0,0,1,65.66,75.56Zm-.73,27.67a3.82,3.82,0,0,0-.83.41A.8.8,0,0,0,64.93,103.23Zm2.75-8.1c0,.25-.19.37,0,.58C67.82,95.58,67.81,95.21,67.68,95.12ZM66.62,99.7c-.09.1.06.15,0,.24-.07.55,0,.06.2-.12.16.13-.32.35.16.54,0-.45.21-.6-.18-.9.22,0,.27-.25.07-.42C66.62,99.33,67,99.79,66.62,99.7Zm1-5.67c.23.23-.23.44.12.55C67.69,94.41,68,94.12,67.62,94Zm.21-9.16a.55.55,0,0,0,.11.57C68.1,85.28,68,85,67.84,84.88Zm0,1.07c.07.22-.08.31.18.42C68,86.23,68,85.92,67.87,86Zm-.68-6.86c-.28.17.3,1,.22,1.09C67.65,79.95,67,79.21,67.19,79.09Zm-3.27,24.19s0-.07-.07-.09c.1.16-.4.06-.14.19.07,0,.55,0,.3-.11C64,103.28,64,103.3,63.92,103.28Zm-9.79-2.09,0,.15c.22.08.33-.1.22-.14S54.23,101.22,54.13,101.19Zm-.45,0c0,.09.08.17.3.24C54,101.32,53.92,101.24,53.69,101.17Zm-.2.07c-.17,0-.09-.11-.32-.15,0,0-.16,0-.18,0C53.27,101.3,53.21,101.17,53.49,101.24ZM49.3,90.05c.13.08-.19.26.16.34C49.62,90.25,49.59,90.15,49.3,90.05Zm.17,1.29c.15-.12.07-.23,0-.3A.19.19,0,0,0,49.47,91.34ZM49,89a3.62,3.62,0,0,0,.1,1.43l0,.22c0,.05,0,.25.08.12.19-.37-.29-.83.07-1.07,0,0-.11.14.08.14C49.22,89.52,49.29,89.28,49,89Zm19.8-4c.18-.09-.19-.31.07-.43s0,.14.1.19c.31-.07,0-.28.24-.44.17.26.11.5.3.89-.33,0-.07-.29-.28-.34C68.93,85.07,69,85.19,68.81,85Zm-.44,6.51c-.44-.1.07-.56-.23-.71C68.64,90.84,68.13,91.32,68.36,91.54Zm.34-9.82c.15.47.42,1.72.6,2.55-.31-.06-.15-.35-.28-.5-.35.15.1.39-.15.59a9.82,9.82,0,0,1-.45-3.75c-.36-.45-.16-1.48-.27-2.32.21-.09,0,.44.24.48.12-.48-.27-.81-.27-1.3-.35.08-.15.3-.29.44-.39-.38.22-1,0-1.33.94,1.2.75,3.45,1,5.25C68.7,81.84,68.72,81.77,68.7,81.73Zm.08,1.17c-.17.19,0,.48.13.66C69,83.35,69,83,68.79,82.89Z"/></g></svg>