<svg xmlns="http://www.w3.org/2000/svg" viewBox="0 0 124 124"><defs><style>.cls-1{fill:#fff;}</style></defs><title>contact-logo</title><g id="Layer_7" data-name="Layer 7"><path class="cls-1" d="M42.59,112.26c.12.3-.35.51-.11.72C42.52,112.77,42.92,112.37,42.59,112.26Zm.12-4.79a7.15,7.15,0,0,1-.14-1.34c.36-.06.09.93.15,1Zm-1-9.86c.64,2.11.58,5.07,1,7.39-.3-.1-.2-.51-.24-.83C42.18,102,41.9,99.65,41.73,97.61Zm.48,5.42c-.31.27-.29.58-.29,1.12-.17.17-.06-.33-.08-.47,0-.32-.12-.64,0-.77C42,103,42.08,103,42.21,103Zm0-11c-.15-.17-.07-.47-.16-.67C42.44,91.54,42.29,91.9,42.22,92.07Zm-.38,8.12c-.27-.05-.26-.18-.27.1-.12,0-.12-.44-.16-.62.08,0,.16,0,.17.11s.08-.09.09-.15C41.88,99.73,41.67,100.06,41.84,100.19Zm-.44,10.44c.17.09.18.27.16.47s0-.38-.17-.16C41.16,110.88,41.52,110.78,41.4,110.63Zm-.18,3.75c.2.08,0,.36.07.52C41.1,114.82,41.27,114.54,41.22,114.38Zm0,1.23c-.35.17-.25-.33-.25-.52A.65.65,0,0,1,41.19,115.61Zm-16.76.46c0,.21-.55,0-.79,0C23.81,115.81,24,116.15,24.43,116.08Zm-1.91-11.25c-.2-.09,0-.39-.07-.56C22.67,104.43,22.56,104.6,22.52,104.83ZM21.78,96c-.26-.12.08-.73,0-1.07C22.17,95.27,21.92,95.57,21.78,96Zm0-1.78c-.2-.09,0-.39-.07-.56C22,93.74,22,94.13,21.82,94.24Zm0-2c.11.06.21.54-.1.51C21.91,92.61,21.64,92.38,21.78,92.25Zm20.92,22.28c.15.08-.26.25-.27.4-.31-.05.23-.26-.08-.31C42.44,114.48,42.67,114.73,42.71,114.53Zm-2.39-37c.35-.1.41-.37.63-.55.71.45-.24,1.35.57,1.81a4.74,4.74,0,0,0,.19,2.83c.19,0,0-.18.09-.26.14,1.72-.61,3.66-.49,5.65,0,.39-.14-.26-.08-.26-.29,0,0,.64,0,.51a10.61,10.61,0,0,1,0,2.16c.19,0,.17-.07.18-.15.31,2-.15,5.1.44,6.85h-.17c.37.39.13.91.14,1.29-.37-.7-.19-2.07-.45-3-.2.77-.13,1.81-.24,2.41a6.32,6.32,0,0,1-.13-1.7c-.39.76-.08,1.72-.16,2.67.21-.18,0-.6.11-.87.47.24.27.58.24.83a62.9,62.9,0,0,0,.09,7c0,.16.13.31.16.47.37,1.93-.21,4-.24,5.86.09,0,.07-.06.09-.1.11.49-.13,1.19.22,1.65.28,0-.3-.46.19-.46-.11.15.06.53,0,.82.36,0,0-.11.09-.2.32.2.2.39.42.68.15,0,.17,0,.18-.1.25.06,0,.22,0,.31-.28-.15-.55-.31-.51-.63-.25.22-.52.44-.46.86-.43-.31-.1-.89-.22-1.6-.08,0-.16,0-.18.1-.21,0,.1-.13.09-.2s-.22-.12-.44-.12c-.16,1,.64,1.76.29,2.58-.22-.14-.11-.27-.16-.57-.1,0-.08.09-.09.15a3.63,3.63,0,0,1-.14-1.29,2,2,0,0,0,0,1.75c.1,0,.08-.09.09-.15.5.23,0,.56-.19.77-.11,0,.08-.29,0-.46-.18.1-.33.18-.18.35-.4-.19-.54.58-.46.81.34,0,0-.16.27-.2-.31,0,0-.2-.08-.47.19,0,.16.08.17.16s.07-.06.09-.1a2.29,2.29,0,0,1-.2.87c0-.16-.19-.14-.43-.17a2.4,2.4,0,0,1-1.77.71c.45-.21,1.11-.31,1-.74-.35-.06-1,.14-1.06.43-.12,0,.08-.28-.17-.11-.17,0,.07-.19.09-.25.13.19.34,0,.36-.19-.27.07-.62.1-.62.34-.18-.17-.39,0-.61-.12.11-.19.61-.14.71-.34-.26-.17-.39.28-.7.08,0,0-.33.26,0,.26a.91.91,0,0,0-1,.28c-.27,0-.82-.14-.53,0-.13.14-.51-.14-.26-.21a6.38,6.38,0,0,0-1.06.32c-.15,0-.2-.09-.17-.21-.52,0-.6,0-.79.13,0-.16-.23-.18-.17-.36-.33.09-.36.13-.45.29-.21-.23-.48.12-.7.08a.32.32,0,0,1,0,.41c-.2.08.13-.26-.17-.31s-.14.26-.36.3-.06-.27-.34-.27c-.68.3-2,.11-2.21.64a1.76,1.76,0,0,0-.53.08.22.22,0,0,0,0-.36q-.33,0-.36.19c-.26-.07.07-.19.09-.25-.13-.18-.31-.19-.52-.22a.7.7,0,0,0-.59-.84c-.25,0-.26.12-.27.25s.17.06.17,0-.41.33-.62.18c.05.19-.19.19-.18.35-.41,0,.18-.11,0-.31-.17.28-.26,0-.43-.17s-.3.18-.53,0c-.22.05.21.22-.18.2-.2-.35.17-.51,0-.82-.23.06-.28.16-.17-.06-.06,0-.4-.1-.44,0a.22.22,0,0,1-.17-.21c-.18,0-.14.22-.44.19-.11-.43.52-.4.37-.86.2,0,.09.15.26.16-.19-.62-1-.9-1.1-1.57.42.09.11-.5-.34-.42.19-.74.29-.5,0-1.33a.47.47,0,0,0-.36.5c-.54-.16-.24-.61-.24-1,.17.18.19,0,.18-.15-.08,0-.07.06-.09.1a31.69,31.69,0,0,1,.19-4c.14,0,.15.05.26.06.18-.6-.2-1-.17-.21-.14,0-.14-.56-.24-.77.12.18.28,0,.44-.09-.41-.16-.14-.39-.16-.72.29.09,0,.19.17.31.21-.09.06-.4,0-.51s-.08.09-.09.15c-.19,0,0-.22-.08-.31s.09.05.17.06a10.32,10.32,0,0,0-.06-1.28c0-.08-.11,0-.26,0,.24-.23-.17-.24,0-.51.25.08.11.17.16.41.13-.36.28-.87,0-1.17-.18.08,0,.36-.19.45-.26-.21-.09-.65-.06-.92.46.24-.18-.29.18-.3,0-.12-.14.06-.26-.06.08-.41-.13-.67-.06-1.07.26.12,0,.24.17.36.25-.26-.19-.43-.07-.87-.23.15,0,.35-.27.4a.34.34,0,0,1-.17-.31.62.62,0,0,0,.26.06c-.08-1.61-.24-2.32-.34-3.94.08,0,.07.06.09.1.83-1.4-.06-3.06.12-4.64a.23.23,0,0,0-.18.25c-.3-.33.14-.64.11-1-.46.23.31-.23-.26-.06l0-.71a.22.22,0,0,1,.17.26c.24-1.91,0-4.24.32-5.86-.08,0-.07.06-.09.1-.17-1.1,1.13-3.19,1-4.32,0-.15-.35-.2-.26-.31-.1,0-.16,0-.18,0-.26-.12.61-.18.19-.4.18-.06.23.38.34.52a2.75,2.75,0,0,0,.41-2.29c.35.3.26-.33.28-.56.14-.06,0,.44.25.52a.8.8,0,0,0,0-1.07,0,0,0,0,1,.09,0c.09,0,.07-.06.09-.1.19,0,0,.18.08.26s0-.18.09-.25c.25.26.4-.12.36-.35,0-.06.4.55.61.21A1,1,0,0,0,26,77c.37-.05.47-.27,1.06-.19.13-.11-.15-.42-.07-.67.15,0,.16.18.26.26.33-.12.58-.38,1-.19.1,0,.06-.1.18-.1s-.18-.1-.26-.16c.25-.1.65.14.52.42A.36.36,0,0,0,29,75.9c.14-.15.07.22.08.31.17-.07.06-.31.19-.41s0,.25.08.36.43.26.44,0c.17,0,.06.17.26.16.15-.22.26.16.27-.15.12,0,.07.13.08.21.57.09.38-.29.54-.45.2,0,0,.29.08.41s.36,0,.52.16c.2,0-.1-.08.09-.15a1.69,1.69,0,0,1,.35.16c.29-.15.23-.66.26,0,.21-.1.16-.35.28-.51.18.14-.07.47-.1.66.17.2.42.13.87.22.22-.13.06-.47-.07-.57H32.8c.11-.12.38-.09.53,0s0-.22.18-.25c-.33.25,1.25.69,1.83.44.17-.07-.1-.32.1-.41s.15.34.08.41c.54,0,.59-.23.63-.5.19,0,.18.13.17.26.5,0,.3-.44.46-.66,0,.32,0,.94.68.94.06-.1.14.06,0,.05.09.31.58.22.78.37C39.34,76.65,39.7,77.16,40.31,77.52Zm-.79,38a4.2,4.2,0,0,0-.72.8C39.31,116.24,39.49,115.69,39.52,115.51ZM41,104.13c0,.33-.16.52.07.77A.86.86,0,0,0,41,104.13Zm-.51,6.26c-.07.16.08.19.08.31,0,.74,0,.07.18-.2.18.13-.25.54.25.68-.05-.6.11-.83-.32-1.14a.33.33,0,0,0,0-.57C40.47,109.91,40.95,110.43,40.53,110.39Zm.37-7.71c.25.28-.2.61.16.72C41,103.18,41.24,102.77,40.9,102.69Zm.22-12.29a.94.94,0,0,0,.07.77A.75.75,0,0,0,41.13,90.4Zm0,1.44c.06.3-.09.41.16.57C41.26,92.21,41.2,91.8,41.09,91.84Zm.06-9.26c-.31.17.14,1.38.05,1.49C41.47,83.8,40.92,82.7,41.15,82.58Zm-2.6,33.31s0-.1-.09-.11c.14.18-.38.21-.1.31.06-.07.54-.14.27-.25C38.63,115.87,38.62,115.9,38.55,115.89Zm-10,.38v.26c.23,0,.31-.29.18-.3S28.64,116.28,28.54,116.27Zm-.44.14a.37.37,0,0,0,.34.27C28.47,116.51,28.35,116.42,28.1,116.4Zm-.18.2c-.17,0-.11-.14-.35-.11,0,.07-.15,0-.18.1C27.72,116.79,27.64,116.59,27.92,116.6Zm-5.5-18.31c.13.14-.19.5.16.62C22.74,98.63,22.71,98.45,22.42,98.29Zm.2,2.35a.57.57,0,0,0,0-.56A.56.56,0,0,0,22.62,100.65Zm-.51-4.2a12,12,0,0,0,.11,2.66v.41c0,.1,0,.47.08.21.17-.7-.31-1.52.05-2,0,.08-.11.26.08.26C22.33,97.32,22.41,96.86,22.12,96.45Zm20-5.77c.19-.1-.16-.42.1-.56s0,.18.08.26c.31-.08,0-.37.28-.56.16.36.08.66.23,1.19-.33,0,0-.38-.25-.47C42.21,90.73,42.31,90.89,42.08,90.67Zm-.57,8.63c-.45-.11.06-.75-.24-.93C41.78,98.36,41.28,99,41.51,99.31Zm.77-13c.11.64.22,2.3.35,3.4-.3-.1-.13-.47-.25-.67-.36.16.07.52-.2.77a14.73,14.73,0,0,1,0-5c-.31-.65.05-2,.08-3.09.23-.07-.06.57.16.67.19-.6-.14-1.11,0-1.75-.36,0-.21.36-.36.51-.31-.59.4-1.23.22-1.75.67,1.76.14,4.64.17,7.05C42.26,86.45,42.29,86.37,42.28,86.3Zm0,1.54c-.19.23,0,.64.07.88C42.42,88.47,42.49,88,42.24,87.85Z"/><path class="cls-1" d="M103.15,115c.17.24-.25.52,0,.65C103.17,115.49,103.49,115.06,103.15,115Zm-.68-4.2c-.28-.44-.2-.88-.34-1.16.34-.11.22.8.3.88Zm-2.21-8.59c.83,1.81,1.14,4.44,1.83,6.42-.32,0-.28-.42-.35-.69C101.18,106.07,100.62,104,100.26,102.25Zm1.09,4.75c-.27.29-.21.56-.14,1-.14.18-.11-.28-.14-.4-.07-.28-.21-.55-.08-.69Zm-1.06-9.75c-.16-.14-.1-.41-.21-.59C100.47,96.77,100.34,97.1,100.29,97.25Zm.36,7.28c-.27,0-.28-.13-.25.12-.12,0-.17-.38-.23-.53.08,0,.16,0,.18.08s.06-.09.07-.15C100.62,104.12,100.46,104.44,100.64,104.53Zm1.06,9.31c.18.05.23.2.24.38s-.09-.33-.2-.11C101.5,114.11,101.84,113.95,101.7,113.84Zm.51,3.33c.21,0,.09.31.17.44C102.17,117.58,102.29,117.3,102.21,117.17Zm.21,1.09c-.31.23-.32-.24-.35-.4A.57.57,0,0,1,102.42,118.26Zm-16.21,4.29c0,.21-.55.09-.77.16C85.55,122.43,85.8,122.73,86.21,122.55Zm-4.06-10.87c-.21-.06-.09-.39-.16-.56C82.23,111.25,82.15,111.44,82.14,111.68Zm-1.9-8.89c-.27-.1,0-.76-.08-1.1C80.56,102,80.35,102.3,80.25,102.79Zm-.13-1.84c-.21-.08-.06-.4-.13-.57C80.24,100.42,80.26,100.81,80.12,100.95Zm-.21-2c.12,0,.25.54-.06.53C80.07,99.26,79.78,99,79.92,98.9ZM103.69,117c.17,0-.21.27-.19.41-.31,0,.18-.27-.14-.25C103.42,117,103.69,117.16,103.69,117ZM98,84.16c.35-.08.42-.33.64-.48.71.43-.27,1.21.54,1.65a3.79,3.79,0,0,0,.19,2.56c.19,0,0-.16.09-.23.15,1.54-.57,3.3-.36,5.1,0,.36-.15-.23-.09-.23-.29,0,0,.57,0,.46a9.47,9.47,0,0,1,.13,1.95c.19,0,.17-.07.17-.14.41,1.79.18,4.6.93,6.11h-.17c.4.31.21.8.26,1.14-.45-.58-.38-1.83-.72-2.64a20.22,20.22,0,0,0,0,2.19,5.09,5.09,0,0,1-.28-1.52c-.32.72.07,1.55.09,2.42.19-.19,0-.54,0-.79.49.16.32.49.33.72a37.75,37.75,0,0,0,.92,6.24c0,.14.18.25.23.39.64,1.65.39,3.57.7,5.22.08,0,.06-.07.07-.11.19.41.08,1.07.51,1.41.27-.09-.37-.35.1-.44-.09.16.15.45.13.73.35-.05,0-.1.05-.2.35.11.27.3.54.51.15,0,.16-.07.15-.12.25,0,0,.2.05.27-.3-.07-.6-.15-.62-.45-.21.25-.43.49-.29.85-.48-.18-.27-.76-.52-1.36-.07,0-.15.07-.16.12-.21,0,.08-.14.05-.2s-.23-.06-.45,0c0,.93,1,1.41.77,2.21-.24-.07-.16-.22-.27-.47-.1,0-.06.1-.06.15a3,3,0,0,1-.39-1.11,1.63,1.63,0,0,0,.29,1.55c.1,0,.06-.1.06-.15.53.09.15.49,0,.72-.11,0,0-.28-.08-.41-.16.13-.29.23-.11.35-.42-.08-.41.63-.28.82.34,0-.07-.13.22-.24-.31.07-.06-.17-.17-.39.18-.06.18,0,.2.1s.06-.07.07-.11a1.91,1.91,0,0,1,0,.81c0-.15-.22-.08-.46,0a2.55,2.55,0,0,1-1.58,1c.39-.29,1-.53.8-.89-.35,0-.94.35-.95.63-.11,0,0-.27-.19-.06-.16,0,0-.19,0-.25.17.14.33-.09.31-.26-.25.13-.58.23-.53.45-.21-.11-.38.07-.62,0,.07-.2.57-.26.62-.47-.29-.09-.32.34-.67.23.05,0-.27.31,0,.23a1,1,0,0,0-.89.47c-.26.1-.83.07-.51.15-.09.16-.52,0-.3-.14a6.52,6.52,0,0,0-1,.54c-.15,0-.21,0-.21-.15-.5.12-.58.14-.74.3,0-.15-.26-.11-.24-.3-.3.16-.33.2-.37.38-.25-.17-.44.23-.67.24a.29.29,0,0,1,.08.39c-.18.12.07-.28-.23-.25s-.08.28-.28.36-.12-.24-.39-.17c-.59.44-1.89.57-2,1.14a1.79,1.79,0,0,0-.49.21.21.21,0,0,0-.07-.35q-.33.08-.3.27c-.27,0,0-.2,0-.27-.17-.14-.34-.1-.56-.09a.69.69,0,0,0-.77-.67c-.24,0-.22.17-.21.3s.18,0,.17,0c.16,0-.32.42-.56.32.09.17-.15.23-.1.39-.4.08.15-.15-.06-.3-.1.32-.26,0-.46-.06s-.25.25-.51.16c-.2.1.25.17-.13.24-.27-.3,0-.54-.17-.81-.21.11-.24.22-.18,0-.06,0-.41,0-.42.14a.23.23,0,0,1-.21-.17c-.16.09-.09.25-.39.29-.21-.4.42-.52.17-.93.19-.05.12.13.29.1-.33-.57-1.17-.67-1.41-1.32.43,0,0-.52-.42-.35,0-.78.17-.55-.24-1.34a.48.48,0,0,0-.25.58c-.57-.05-.36-.56-.43-.94.21.14.19,0,.15-.19-.08,0-.06.07-.07.12-.44-1.2-.31-2.68-.57-4.1.14,0,.16,0,.27,0,.07-.64-.37-1-.21-.18-.14,0-.23-.54-.37-.74.15.16.28-.05.42-.16-.43-.09-.2-.37-.27-.7.3,0,0,.2.22.29.19-.12,0-.41-.07-.52s-.06.1-.07.17c-.19,0-.07-.22-.13-.3s.09,0,.18,0c-.06-.58-.17-.79-.26-1.29,0-.07-.11,0-.26,0,.21-.27-.2-.22-.06-.52.26,0,.13.15.22.4.07-.39.15-.92-.14-1.2-.17.1,0,.37-.12.49-.29-.18-.18-.65-.2-.93.49.18-.22-.27.14-.33-.06-.11-.13.08-.27,0,0-.43-.21-.67-.2-1.09.27.09,0,.24.21.35.21-.3-.24-.42-.18-.88-.21.18,0,.36-.22.45a.35.35,0,0,1-.21-.3.61.61,0,0,0,.27,0c-.29-1.64-.52-2.34-.8-4,.08,0,.07.06.1.1.69-1.52-.36-3.14-.3-4.78a.23.23,0,0,0-.16.27c-.33-.32.09-.67,0-1-.45.27.29-.25-.26,0l0-.74a.23.23,0,0,1,.18.26c.11-2-.27-4.38,0-6.06-.08,0-.07.06-.09.11-.21-1.14,1.07-3.31.92-4.46,0-.15-.35-.21-.25-.32-.1,0-.16,0-.18,0-.25-.12.61-.18.19-.42.18-.06.22.39.33.53a2.88,2.88,0,0,0,.43-2.34c.34.31.27-.33.29-.56.14-.06,0,.46.24.53A.83.83,0,0,0,81.81,83a0,0,0,0,1,.09,0c.08,0,.07-.06.09-.1.19,0,0,.19.08.26s0-.18.1-.26c.24.27.4-.11.37-.35,0-.06.39.57.6.24a1,1,0,0,0,.59.39c.37,0,.48-.25,1.06-.15.13-.11-.14-.43-.05-.67.15.05.15.19.25.27.34-.11.59-.36,1-.15.1,0,.06-.1.18-.09s-.18-.11-.26-.17c.25-.09.64.17.51.43a.35.35,0,0,0,.37-.44c.14-.15.07.22.07.31.18-.06.06-.31.2-.39s0,.25.07.36.43.27.44,0c.17,0,.05.17.26.16.15-.21.26.16.27-.14.12,0,.07.13.08.2.57.1.39-.27.55-.42.2,0,0,.28.07.4s.36,0,.52.18c.2,0-.1-.08.09-.14a1.75,1.75,0,0,1,.34.17c.29-.14.25-.63.26,0,.21-.09.17-.34.29-.48.17.15-.08.45-.12.64.17.2.41.14.87.24.22-.11.07-.45-.06-.54l-.44,0c.11-.12.38-.07.52,0s0-.21.19-.24c-.34.23,1.23.7,1.82.49.17-.06-.1-.31.11-.38s.14.32.07.39c.54.05.6-.19.64-.45.19,0,.18.13.16.25.5,0,.31-.4.47-.6,0,.3,0,.88.66.9.07-.09.13.06,0,0,.08.29.58.22.77.37C97,83.33,97.39,83.81,98,84.16Zm2.78,34.38a3.89,3.89,0,0,0-.54.87A.9.9,0,0,0,100.78,118.54Zm-.44-10.4c.06.3-.1.49.17.68C100.58,108.65,100.49,108.21,100.34,108.15Zm.46,5.65c0,.15.12.15.13.26.15.65,0,.06.14-.21.2.08-.15.53.36.55-.16-.52,0-.75-.52-.95a.28.28,0,0,0-.08-.5C100.65,113.38,101.22,113.75,100.8,113.8Zm-.79-6.92c.28.22-.11.57.25.62C100.17,107.3,100.36,106.9,100,106.88Zm-.93-11.06a.77.77,0,0,0,.11.69C99.35,96.3,99.22,96,99.09,95.82Zm.05,1.3c.08.27-.06.38.2.5C99.33,97.45,99.24,97.08,99.14,97.12Zm-.31-8.36c-.31.16.16,1.24.08,1.35C99.16,89.86,98.6,88.88,98.83,88.76Zm1.08,30.34s0-.09-.11-.07c.17.13-.32.27,0,.29,0-.08.5-.25.21-.28C100,119.06,100,119.09,99.91,119.1Zm-9.65,2.67.05.25c.23,0,.23-.35.11-.33S90.35,121.75,90.25,121.77Zm-.4.24a.36.36,0,0,0,.39.18C90.24,122,90.1,122,89.85,122Zm-.13.23c-.17,0-.14-.11-.36,0,0,.07-.14.08-.15.14C89.57,122.47,89.44,122.29,89.72,122.24ZM81.14,105c.15.13-.13.53.23.61C81.5,105.34,81.45,105.17,81.14,105Zm.5,2.38a.6.6,0,0,0-.06-.57A.59.59,0,0,0,81.64,107.41Zm-1-4.23a12.23,12.23,0,0,0,.41,2.71l0,.42c0,.11.08.48.11.2.07-.73-.49-1.52-.19-2,.05.07-.08.28.11.25C80.94,104.06,81,103.57,80.63,103.18ZM100.06,96c.18-.1-.19-.37.07-.51s0,.16.1.23c.31-.09,0-.33.24-.52.18.31.11.58.3,1-.33,0-.07-.34-.28-.4C100.18,96.05,100.3,96.2,100.06,96Zm.16,7.77c-.45,0,0-.67-.33-.81C100.38,102.91,100,103.56,100.21,103.78ZM100,92.1c.14.57.3,2.05.51,3-.31-.08-.16-.41-.28-.59-.35.16.1.46-.15.7a10.86,10.86,0,0,1-.25-4.47c-.33-.58,0-1.77,0-2.77.23-.07-.06.52.17.6.19-.54-.16-1-.06-1.57-.36,0-.21.32-.36.45-.32-.53.41-1.1.22-1.57.64,1.59.17,4.16.28,6.32C100,92.23,100.06,92.15,100,92.1Zm0,1.38c-.18.21,0,.57.1.78C100.28,94,100.33,93.64,100.07,93.48Z"/><path class="cls-1" d="M111.2,69.74c.84.52,1.12,1.34,1.78,1.56C112.45,70.84,111.66,69.69,111.2,69.74ZM99,59.83c-1.5-.95-2.62-2-3.51-2.64,0-.42,2.43,1.84,2.73,2Zm-26.56-20,1.88,1.38,1.14.79,2.37,1.7c1.61,1.18,3.29,2.44,5,3.72,3.37,2.56,6.79,5.2,9.86,7.42-.42.06-1.42-.87-2.26-1.5l-8.76-6.53-4.3-3.23L75.28,42l-1-.77ZM87.38,51.14a12.14,12.14,0,0,0,2.71,2.55c.35.49-.87-.62-1.23-.89a11.65,11.65,0,0,1-2-1.6C87.05,51.15,87.23,51.18,87.38,51.14ZM47.07,41.81c-.34.45-1.18,1-1.66,1.44C45.55,42.67,46.6,42.08,47.07,41.81Zm32.84,3.81c-.28.12-.61-.16.1.42,0,.17-1.19-.81-1.68-1.14a.47.47,0,0,1,.37.08c0-.1-.19-.25-.34-.39C78.75,44.64,79.49,45.5,79.91,45.62Zm26.45,21.77a3.44,3.44,0,0,1,1.29.82c.48.58-1-.77-.5-.18C106.88,68.12,106.82,67.6,106.36,67.39Zm9.5,7.85c.31,0,.93.72,1.36,1C116.92,76.25,116.3,75.52,115.86,75.24ZM119,77.8c.25.65-1-.47-1.48-.86A5,5,0,0,1,119,77.8Zm-8,15.11c.54.45-.4.39-.5.61C110,92.88,111,93.44,111,92.91ZM81,71.27c-.35,0-1-.79-1.49-1.1A4.18,4.18,0,0,1,81,71.27ZM61.45,56.58c-.07.27,0-.1-.07-.05C61.42,56.09,61.47,56.43,61.45,56.58Zm-.11,0c0,.23,0,.05,0,.12C61.26,56.43,61.31,56.4,61.33,56.56Zm-.39.4a1.15,1.15,0,0,1,.24-.27c.08-.08,0-.05,0-.07s0,0,.12.17c-.06-.1-.06-.08,0-.06s0,0,0,0A1.13,1.13,0,0,1,60.94,57ZM117.07,74.3c.3,0,.49.73.88,1.06-.31.15-.53-.72-.84-.57C116.8,74.43,117.56,74.74,117.07,74.3Zm-107-2.45c-.48-.08-1.25.42-1.86.61.73-1.44,3.69-2.46,4.39-4a49.48,49.48,0,0,0,7.32-5.71c-.09-.17-.51.32-.73.43,4.42-3.48,10-6.72,15.16-10.72,1-.77-.59.61-.63.57.19.21,1.67-1.26,1.36-1,1.4-1.15,4.59-3.55,5.66-4.27,0-.2-.29,0-.51.16,2.25-1.85,5.14-4,8-6.14l6.71-5c2.51-1.89,4.89-3.7,7-5.39,1.36,1,2.42,1.83,3.4,2.54l0,.2a56.35,56.35,0,0,1,6.17,4.8c-2.36-1.58-6.05-4.57-9.55-7.32-1.72,1.3-3.37,2.58-4.76,3.72,1.46-1,3.09-2.16,4.75-3.36,2.44,2,4.91,4,6.6,5.46-2.06-1.52-4.28-3.27-6.6-5.16l-1.26.93c.4-.24.81-.5,1.25-.8,3.2,2.87,7.07,5.69,11,8.91C72.18,40.41,70.21,39,69,38c1.22.38,2.77,1.89,3.91,2.85L75.56,43l2.25,1.83,4.51,3.57,9,7c.4.32.87.52,1.29.82,5.15,3.66,10.1,8.37,14.86,12.22.05-.07-.12-.18-.21-.28,1.3.91,3,2.54,4.35,3.21.05-.32-1.35-.7-1.07-1.1.33.41,1.38,1,2.09,1.71.27-.24-.24-.26-.47-.49.7.15,1.1.63,2,1,.14-.08,0-.21-.15-.35.29-.08.54.47.79.64a3.13,3.13,0,0,1-1.9-.87,6.8,6.8,0,0,0,1.95,2.15c-1-.27-2.33-1.74-4.22-3.1a.47.47,0,0,0,.15.35c-.17.13-.29-.36-.47-.49s-.42-.06-.54.13c2.52,2.22,4.85,3.07,6.77,5.06-.48-.1-.76-.47-1.55-1,0,.1.19.25.34.39a37.67,37.67,0,0,1-3.38-2.53,20.27,20.27,0,0,0,4.45,3.62c0-.1-.19-.25-.34-.39.85,0,1.47,1.11,1.85,1.74-.12,0-.71-.67-1.18-1a1.38,1.38,0,0,0,.81.88c-.69,0,1.19,1.65,1.82,2,.27-.22-.42-.28-.36-.63-.16.27-.54-.4-1.23-.89.06-.19.29,0,.5.18.05-.07-.12-.18-.21-.28a23.23,23.23,0,0,1,2.11,1.95c-.37-.35-.46-.12-.67,0,.55,1,1.47,2.16.86,3-.29-.81-.18-1.57-1.35-2.35-.34.17-.2,1.12.51,1.78,0,.15-.67-.65-.37-.08-.12.12-.44-.45-.6-.6.56.28.15-.32-.3-.7a1.3,1.3,0,0,0,.53,1.22c-.52-.19-.28.28-.65.26-.43-.49,0-.8-.47-1.29-.58-.13.52.91-.18.76.08,0,.49.82.65.53-.4.11-.47.66.18,1.39-.06.3-.8.41-.2.52.29.4-.63.15-.69-.22.14.53,0,1,.25,1.56-.13.09-.35,0-.63-.29-.28.44-.31.52-.1.93-.41-.35-.59-.18-1-.61a1.33,1.33,0,0,0,.51,1c-.71-.3.06.66-.18.76a3,3,0,0,1,1,.85c.1.33-.6-.65-.9-.5,0,.27.58.65.56.91-.27,0-.73-.51-.88-.26.39,1.19-.79,1.89.45,3.19,0,.13-.19.28-.07.62a1.9,1.9,0,0,0-.92-.75q-.19.28.3.7c-.33.08-.46-.45-.6-.6-.53-.26-.64-.12-.86,0-1-.79-1.74-1.36-2.48-1.23-.17.18.16.46.49.74.18.12.24,0,.11-.14.27,0,.64,1,.14.9.52.35.38.56.81.88-.28.3-.18-.38-.79-.64.64.73-.25.13-.67,0-.1.2.31.63-.2.52,0,.29.68.28.41.56-1-.56-1.22-1.2-2.09-1.71,0,.32.25.56-.24,0-.08,0-.48.13-.15.45a1.05,1.05,0,0,1-.63-.29c0,.24.49.58.25.77-1.18-.8-.74-1.27-2-2.08.09-.19.44.23.56.12-1.7-1.11-2.87-1-4.65-2.31.47-.16-1.24-1.13-1.27-.58a14.62,14.62,0,0,0-3.4-2.77,2.68,2.68,0,0,0,1.09,1.34c-.72.12-1.7-1.05-2.65-1.82.55.22.22-.06-.28-.46-.05.07.12.18.21.28-3.27-2.37-6.63-5.58-10.28-8.49.05-.14.22,0,.3-.1-1.46-1.4-2.71-1.92-.63-.29a22.45,22.45,0,0,1-2.13-1.39c.53.26.15-.25,0-.55-.64,0-1.08-.69-1.94-1.36.39-.05.48.41.9.5-.11-.36-1-.87-1.31-1.07,0,.1.19.25.34.39-.14.14-.58-.42-.84-.57.07,0,.19,0,.24,0-1.44-1.2-2-1.58-3.33-2.6-.22-.13,0,.13-.17.2-.46-.68-.72-.36-1.31-1.07.34,0,.49.26,1.16.72a13.38,13.38,0,0,0-3-2.45c.09.31.9.77,1.07,1.1a10.72,10.72,0,0,1-2.41-1.85c.88.11-.85-.45-.67-.78-.33-.2.07.24-.3.1-1-.91-1.8-1.28-2.8-2.17.46,0,.61.49,1,.61-.53-.75-1.22-.74-2.28-1.74.25.5.91.73.88,1.06a2.29,2.29,0,0,1-.9-.5c.11,0,.23,0,.3-.1-2.1-1.64-3.63-2.78-5.16-3.93l-1.16-.87-.6-.45-.15-.11-.07-.06h0l-.13,0c0-.09,0-.07,0-.08.05-.28,0-.45-.11-.51a.8.8,0,0,0-.19.39l0,.16h0l-.06,0-.13.1-.54.4-1.09.78a1.25,1.25,0,0,0,.78-.36c-.67.88-1.78,1.16-2.64,1.83.93-.11-.8.22,0,.31l-1.9,1.4c0-.19.23-.4.58-.64C51,64.05,45,68.88,40.44,71.82c.05.07.21-.07.32-.13-2.82,2.31-9.2,5.46-12.08,7.8-.39.31-.3.67-.66.81,0,.1.12.1.24,0-.15.43-.86-.11-1.19.66-.28,0,.85-.92,1.15-1.28a27.82,27.82,0,0,0-6.32,4.22c.57-.86-1,.45-1.65.89-.25,0,1.15-.91,1.2-1.21a7.68,7.68,0,0,0-2.86,2.1c-.16.1-.13,0-.05-.07s-.21.07-.32.13c-.14-.14.46-.39.63-.57-.09-.17-.51.32-.73.43.53-.71-.58-.07-1.16.42-.15.12,1.2-1.4.18-.89.33-.42.64-.83.59-1.19-.37-.19-1,.16-1.17-.45-.37.11-1,.94-1.72,1.37,0-.22.38-.48.52-.71-.53,0-1.38.3-1.12-.38-.09-.05-.31.15-.37.06-.4.22-.16.34-.25.51-.43,0,0-.78.78-1.22-.29-.18-.81.12-1.43.62-.5.2.54-.5.76-.67-.29,0-.86.57-1.19.66-.06-.2.65-.52.9-.77s.42-.85-.26-.35c-.08-.14.41-.38.25-.51-.68.32.25-.51-.56.09,0-.13.3-.31.49-.47-.13-.61-1,.27-1.54.48,0-.23.74-.59,1-.87.43-.47-.24-.27.1-.72-.19-.1-.15.24-.46.23a2.16,2.16,0,0,1,.2-.58c-.59.08-1.88,1.12-.29-.11-.39,0-1,.58-1.52.79a8,8,0,0,1,1.82-1.23c.43-.54.07-.57,0-1.11a3.23,3.23,0,0,0-1.44,1.17l.26.35c-.4.16-.47-.13-.31-.42-.14-.12-.61.42-.78.36.87-.23,1-2.33,0-2.28-.31,0-.78.71-1.14.73-.14,0,.79-.78,1-.87-.25-.49-1,0-1.72.51-.09-.17.23-.4.58-.64-.33-.38-1.35.63-2,.95.84-.64,2.48-1.85,2-2.36-.3.14.07-.22.14-.1.76-.68.2-.88.48-1.34C8.4,74.31,9.51,73,10.08,71.85ZM117.82,79a22.19,22.19,0,0,0,1.65,2.25C119.59,80.67,118.28,79.4,117.82,79ZM89.54,54.37a9.37,9.37,0,0,0,2,1.53A8.64,8.64,0,0,0,89.54,54.37Zm15.74,13.28c.36.38.53.32.84.57,1.92,1.51.2.12-.41-.56.44.12,1.24,1.32,1.87,1.18-1.57-1.19-2.06-1.79-3.1-2.07A2.76,2.76,0,0,0,103,65.59C104,66.7,105.61,67.37,105.29,67.64ZM85.77,51.52c.86.38,1.46,1.42,1.94,1.36C87.07,52.45,86.17,51.4,85.77,51.52ZM43.39,45.92a9.52,9.52,0,0,0,2-1.57A7.42,7.42,0,0,0,43.39,45.92Zm3.81-2.8c.75-.63,1.14-.74,1.39-1.24C48.08,42.25,47,43.12,47.2,43.12ZM22.83,61.27c.65-.1,3.53-2.81,3.89-3C25.84,58.63,23.31,61.19,22.83,61.27Zm95.43,19.31c-.11-.07-.26-.21-.32-.14.53.25.32.74.73.71-.15-.2-.07-.74-.49-.74C118.26,80.48,118.33,80.55,118.26,80.58Zm-4.48,9.24.65.53c.22-.12-.57-.85-.67-.78C113.85,89.68,113.86,89.76,113.78,89.83Zm.11.66c.35.21.68.41.88.26C114.36,90.38,114.08,90.31,113.89,90.49Zm.41.56c-.11.13-.43-.2-.48.06.17.14,0,.22.15.35C114.68,91.6,114.13,91.27,114.31,91ZM64.08,57.83C64.52,58,65.26,59,65.77,59A2.89,2.89,0,0,0,64.08,57.83Zm6.19,4.7a5.84,5.84,0,0,0-1.44-1.17A5.75,5.75,0,0,0,70.27,62.53Zm-8.66-6.26.11.08,1,.8c1.1.88,2.16,1.7,3.35,2.53l1,.85c.23.24,1.23,1,.58.36C66,59.3,63.6,58,62.59,56.72c.22.12.61.63.71.46l-1.22-.91-.14-.11h-.1C61.77,56.13,61.7,56.14,61.61,56.26ZM43.5,44.65c-.39.05-1,1-1.55,1-.14-.14.46-.39.63-.57-.4-.09-1,.72-1.65.89.84-.82,1.68-1.35,3-2.51.17.29-1,.78-1.07,1.11C43.55,44.46,43.92,44,43.5,44.65Zm34-.57c-.53.15-1.87-1.58-2.52-1.72C75.19,41.92,76.61,43.69,77.46,44.08Zm-45.57,9c1.6-1.34,5.91-4.69,8.71-7-.07.43-1.15,1-1.61,1.51.66,0,1.32-1.08,2.14-1.36a157.21,157.21,0,0,1-13.08,9.84c-1.51,1.51-5.22,3.84-8.16,6-.34,0,1.55-1.08,1.66-1.44-1.7,1-2.83,2.29-4.57,3.47.29.23,1.08-.55,1.57-.72-1.34,1.4-3.5,2.11-4.73,3.26,4.2-4,12.1-9.22,18.42-14C32.29,52.81,32,53,31.89,53.08Zm4.08-3a10,10,0,0,0,2.26-1.77A7.55,7.55,0,0,0,36,50.08Z"/><path class="cls-1" d="M106.9,69.49c.13.25-.33.45-.08.62C106.85,69.92,107.24,69.56,106.9,69.49Zm-.1-4.1c-.22-.45-.11-.86-.21-1.14.35-.07.14.79.2.88ZM105.23,57c.79,1.75.92,4.28,1.42,6.24-.31-.06-.23-.42-.29-.7C106,60.71,105.55,58.75,105.23,57Zm.83,4.59c-.29.25-.25.52-.22,1-.16.16-.08-.28-.1-.39,0-.27-.16-.53,0-.66Zm-.77-9.35c-.17-.13-.11-.39-.21-.56C105.47,51.79,105.34,52.12,105.29,52.26Zm.22,7c-.27,0-.27-.14-.26.1-.12,0-.14-.37-.2-.52.08,0,.16,0,.18.08s.07-.08.08-.14C105.52,58.82,105.34,59.12,105.52,59.21Zm.13,8.93c.17.07.19.22.18.39s0-.32-.18-.13C105.41,68.37,105.77,68.27,105.65,68.14Zm0,3.21c.2.06,0,.31.09.44C105.51,71.74,105.67,71.49,105.61,71.36Zm0,1.06c-.35.16-.26-.28-.27-.44A.53.53,0,0,1,105.63,72.41Zm-16.74,1c0,.17-.55,0-.79,0C88.26,73.2,88.46,73.47,88.89,73.4Zm-2.38-9.08c-.2-.06,0-.32-.1-.45C86.64,64,86.54,64.13,86.51,64.32Zm-1.29-7.08c-.26-.08,0-.6-.05-.87C85.55,56.59,85.33,56.85,85.22,57.23Zm-.09-1.45c-.2-.06-.05-.31-.11-.45A.26.26,0,0,1,85.14,55.79Zm-.19-1.61c.12,0,.25.42-.06.42C85.1,54.46,84.81,54.3,84.95,54.18Zm22.16,17.25c.16.07-.25.22-.26.36-.31,0,.22-.23-.09-.26C106.83,71.4,107.08,71.6,107.11,71.43ZM102,40.13c.34-.12.37-.36.56-.54.76.3-.08,1.16.77,1.46a3.54,3.54,0,0,0,.5,2.38c.19,0,0-.16.07-.23.32,1.44-.23,3.17.07,4.84,0,.34-.16-.21-.1-.21-.29,0,.06.54,0,.44a7.5,7.5,0,0,1,.23,1.83c.19,0,.16-.07.17-.14.49,1.68.28,4.35,1,5.79h-.17c.4.3.2.76.24,1.09-.42-.57-.35-1.75-.67-2.51a18.93,18.93,0,0,0-.05,2.07,4.67,4.67,0,0,1-.26-1.44c-.33.68.05,1.46,0,2.28.19-.17,0-.51,0-.75.48.16.31.47.3.69a52.84,52.84,0,0,0,.53,6c0,.13.15.26.19.39.47,1.63,0,3.42,0,5,.09,0,.07-.05.09-.09.13.41-.08,1,.29,1.4.28,0-.32-.38.17-.4-.11.14.08.45,0,.7.36,0,0-.09.09-.18.33.16.21.32.45.57.15,0,.16,0,.17-.09.25,0,0,.19,0,.26-.29-.12-.56-.24-.53-.52-.25.2-.5.4-.43.75-.44-.25-.13-.76-.28-1.36-.08,0-.16,0-.17.09-.21,0,.1-.12.08-.18s-.22-.09-.44-.08c-.12.87.71,1.47.38,2.19-.23-.11-.12-.23-.18-.48-.1,0-.07.08-.09.13a2.67,2.67,0,0,1-.19-1.09,1.47,1.47,0,0,0,0,1.49c.1,0,.07-.08.09-.13.5.17.07.48-.17.66-.11,0,.07-.25,0-.39-.18.09-.32.17-.17.31-.4-.14-.52.52-.43.7.34,0,0-.13.26-.18-.31,0,0-.17-.09-.39.19,0,.17.06.18.13s.07-.05.09-.09a1.72,1.72,0,0,1-.17.75c0-.13-.2-.11-.44-.13a2.6,2.6,0,0,1-1.75.67c.44-.19,1.1-.3,1-.66-.35,0-1,.15-1,.4-.12,0,.07-.24-.18-.09-.17,0,.07-.16.09-.22.13.16.34,0,.35-.18-.27.07-.61.11-.61.31-.19-.13-.39,0-.61-.08.1-.17.61-.14.7-.31-.27-.13-.38.25-.7.09.05,0-.33.23,0,.22a1,1,0,0,0-1,.27c-.27,0-.82-.09-.53,0-.12.12-.51-.1-.26-.17a7.36,7.36,0,0,0-1.05.31c-.15,0-.2-.07-.18-.17-.52,0-.6,0-.79.13,0-.14-.23-.14-.18-.3-.33.09-.36.12-.44.26-.22-.19-.47.12-.7.09a.23.23,0,0,1,0,.34c-.2.07.13-.22-.18-.26s-.13.22-.35.26-.07-.22-.35-.21c-.67.27-2,.16-2.19.6a2.1,2.1,0,0,0-.53.09.16.16,0,0,0,0-.3q-.33,0-.35.17c-.27-.05.06-.16.09-.21a.78.78,0,0,0-.53-.17c0-.31,0-.55-.62-.67-.25,0-.25.1-.26.21s.17,0,.17,0c.15.05-.39.29-.61.17.06.15-.19.16-.17.29-.41,0,.18-.1,0-.25-.16.24-.26,0-.44-.12s-.29.16-.53,0c-.22.05.21.17-.17.17-.21-.28.15-.42,0-.67-.23.06-.27.14-.18,0-.06,0-.4-.07-.44,0a.2.2,0,0,1-.18-.17c-.17,0-.14.19-.44.17-.13-.35.51-.34.35-.71.2,0,.1.12.26.12-.21-.5-1-.7-1.15-1.24.42.06.09-.41-.36-.33.16-.61.27-.42,0-1.08-.24.08-.37.22-.34.42-.55-.11-.27-.48-.28-.78.18.14.19,0,.17-.13-.08,0-.07.05-.09.08a22.46,22.46,0,0,1,0-3.28c.14,0,.15,0,.26,0,.15-.5-.25-.81-.18-.16-.14,0-.17-.45-.28-.61.13.14.28,0,.44-.1-.41-.11-.16-.31-.19-.58.29.06,0,.16.18.24.21-.08,0-.33,0-.42s-.07.08-.08.13c-.19,0,0-.17-.1-.25s.09,0,.18,0a6.48,6.48,0,0,0-.12-1c0-.06-.11,0-.26,0,.23-.2-.18-.19,0-.41.25,0,.12.13.19.33.11-.3.23-.72,0-1-.18.07,0,.29-.16.38-.27-.16-.12-.52-.12-.74.48.17-.19-.23.17-.26-.05-.09-.13.06-.26,0,.05-.34-.17-.53-.13-.87.27.08,0,.19.19.28.23-.23-.22-.34-.12-.7-.22.14,0,.29-.25.34a.27.27,0,0,1-.19-.24.75.75,0,0,0,.26,0c-.17-1.3-.39-1.86-.6-3.16.08,0,.07,0,.09.08.73-1.2-.28-2.47-.23-3.76q-.19.07-.16.22c-.33-.24.09-.53,0-.79-.44.23.29-.21-.27,0l0-.58c.13,0,.2.09.19.19.08-1.56-.39-3.42-.2-4.76-.08,0-.06.06-.08.09-.27-.87.82-2.7.56-3.59,0-.12-.37-.12-.29-.22-.1,0-.15,0-.17.06-.27-.07.58-.21.14-.35.17-.07.26.28.39.38a1.89,1.89,0,0,0,.16-1.9c.38.2.23-.3.21-.48s.09.35.31.39a.57.57,0,0,0-.09-.87s.08,0,.09,0,.06-.06.08-.09c.19,0,.05.14.11.2s0-.15.06-.22c.28.18.39-.15.32-.33s.46.4.63.1a1,1,0,0,0,.64.23c.36-.09.44-.27,1-.28.12-.1-.19-.33-.14-.53.16,0,.17.13.28.18.32-.14.54-.38.94-.27.09,0,0-.09.16-.1s-.19-.06-.27-.1c.24-.11.66,0,.56.28.31-.06.36-.22.31-.42.12-.14.1.17.11.24s0-.26.14-.36.06.2.12.29.46.16.44,0c.17,0,.08.13.28.1.12-.2.28.1.25-.15.12,0,.08.1.11.16.57,0,.35-.28.48-.44.2,0,.06.23.12.33s.36,0,.54.07c.19,0-.11-.06.07-.14a1.89,1.89,0,0,1,.36.09c.27-.16.16-.57.26-.07.2-.11.12-.31.22-.45.19.1,0,.4,0,.56.2.15.43.06.89.08.21-.13,0-.4-.14-.46l-.43,0a.54.54,0,0,1,.52-.06c.18,0,0-.19.15-.23-.3.25,1.32.42,1.87.15.16-.08-.14-.26.05-.35s.19.26.12.33c.54,0,.56-.26.56-.5.19,0,.2.09.2.2.5-.07.25-.4.38-.61,0,.27.11.79.78.7.05-.09.14,0,0,0,.12.25.6.11.82.22A2.5,2.5,0,0,1,102,40.13Zm2,32.25a3.87,3.87,0,0,0-.7.71A.86.86,0,0,0,104,72.38Zm1-9.76c0,.28-.13.45.11.66C105.16,63.12,105.1,62.7,105,62.63ZM104.77,68c-.06.14.09.16.09.26.05.63,0,.06.17-.18.18.1-.23.47.27.57-.08-.51.07-.71-.37-1,.2-.11.22-.34,0-.48C104.68,67.58,105.19,68,104.77,68Zm0-6.58c.26.23-.16.53.2.61C104.86,61.82,105.08,61.45,104.74,61.4Zm-.68-10.47a.7.7,0,0,0,.13.65C104.34,51.39,104.2,51.11,104.06,50.94Zm.09,1.23c.08.25-.06.36.21.47C104.34,52.47,104.25,52.12,104.14,52.16Zm-.81-7.86c-.29.18.28,1.15.2,1.26C103.78,45.31,103.12,44.44,103.34,44.31ZM103,72.74s0-.09-.09-.09c.14.15-.37.19-.09.26.06-.06.54-.14.26-.22C103.08,72.72,103.07,72.75,103,72.74Zm-10,.67v.21c.23,0,.3-.25.17-.26S93.11,73.42,93,73.41Zm-.44.13a.36.36,0,0,0,.35.21C92.94,73.61,92.82,73.55,92.57,73.54Zm-.17.17c-.17,0-.11-.11-.35-.08,0,.06-.15,0-.17.09C92.2,73.87,92.11,73.71,92.4,73.71ZM86,59c.14.1-.16.42.2.49C86.36,59.27,86.32,59.13,86,59Zm.35,1.9a.39.39,0,0,0,0-.46A.38.38,0,0,0,86.37,60.91Zm-.78-3.37a8,8,0,0,0,.29,2.14l0,.33c0,.08.05.38.1.16.13-.58-.4-1.21-.08-1.62.05.06-.09.22.1.2C85.87,58.24,85.91,57.86,85.59,57.54ZM105,51.09c.18-.1-.2-.34.05-.49s.05.15.1.21c.3-.09,0-.32.23-.5.19.29.13.55.34,1-.33,0-.08-.32-.29-.38C105.16,51.12,105.28,51.25,105,51.09Zm.1,7.4c-.45-.06,0-.64-.3-.78C105.33,57.66,104.88,58.26,105.13,58.48Zm-.3-11.13c.17.53.44,1.94.66,2.86-.31-.06-.17-.39-.3-.55-.35.17.12.44-.13.67a11.19,11.19,0,0,1-.51-4.24c-.37-.52-.15-1.68-.24-2.63.22-.09,0,.49.23.55.13-.53-.26-.93-.23-1.48-.35.06-.17.33-.31.47-.37-.46.27-1.09,0-1.5.86,1.42.63,3.92.9,6C104.83,47.48,104.85,47.4,104.84,47.35Zm.1,1.32c-.17.21,0,.55.15.74C105.18,49.18,105.2,48.81,104.94,48.67Z"/><path class="cls-1" d="M42,99.64c.13.26-.33.46-.08.62C42,100.08,42.36,99.72,42,99.64Zm0-4.13c-.21-.46-.07-.87-.16-1.16.35-.06.1.8.17.89ZM41,87c.61,1.84.56,4.4,1,6.39-.31-.08-.21-.44-.25-.71C41.41,90.77,41.13,88.75,41,87Zm.47,4.7c-.31.24-.28.51-.28,1-.17.15-.07-.28-.08-.4,0-.28-.13-.55,0-.67Zm.13-9.49c-.15-.15-.06-.41-.14-.59C41.81,81.75,41.64,82.05,41.58,82.19Zm-.5,7c-.27,0-.26-.16-.27.08-.12,0-.12-.38-.16-.54.08,0,.16,0,.17.1s.08-.08.09-.13C41.11,88.82,40.91,89.11,41.08,89.22Zm-.29,9.05c.17.08.19.23.18.4s0-.33-.18-.13C40.55,98.5,40.91,98.4,40.79,98.27Zm0,3.26c.2.06,0,.31.1.44C40.64,101.92,40.8,101.66,40.74,101.53Zm0,1.07c-.34.17-.27-.28-.27-.44A.54.54,0,0,1,40.77,102.6ZM24.05,104c0,.2-.55,0-.79,0C23.42,103.76,23.63,104.07,24.05,104ZM21.78,93.48c-.2-.09,0-.37-.08-.53C21.93,93.11,21.81,93.26,21.78,93.48Zm-.73-8.33c-.25-.12.1-.69,0-1C21.46,84.43,21.2,84.72,21.05,85.15Zm.08-1.69c-.2-.09,0-.37-.06-.54C21.31,83,21.28,83.35,21.13,83.46Zm0-1.89c.11.06.2.52-.12.48C21.27,81.91,21,81.68,21.15,81.57Zm21.08,20c.16.06-.25.23-.26.36-.31,0,.22-.23-.09-.26C42,101.56,42.21,101.76,42.23,101.59ZM40.42,69.42c.36-.05.44-.28.67-.42.68.46-.34,1.15.43,1.63a3.58,3.58,0,0,0,0,2.47c.19,0,.05-.15.11-.21,0,1.5-.83,3.13-.79,4.87,0,.34-.13-.23-.07-.23-.29,0,0,.55,0,.45a8.45,8.45,0,0,1-.05,1.88c.19,0,.17-.05.18-.12.23,1.76-.3,4.43.26,6H41c.36.35.12.79.13,1.12-.37-.61-.16-1.8-.4-2.61a19,19,0,0,0-.28,2.09,4.78,4.78,0,0,1-.1-1.48c-.4.65-.11,1.49-.19,2.32.21-.16.05-.52.12-.76.47.22.26.51.23.73a39.73,39.73,0,0,0,.09,6.08c0,.14.14.27.17.4.4,1.67-.14,3.47-.1,5.09.09,0,.07-.06.09-.09.13.42-.09,1,.28,1.42.28,0-.31-.39.17-.4-.11.14.07.45,0,.71.36,0,0-.09.08-.18.33.16.21.33.45.57.15,0,.16,0,.17-.09.25,0,0,.19,0,.27-.29-.12-.57-.24-.54-.52-.25.2-.5.4-.42.77-.44-.25-.14-.77-.29-1.38-.08,0-.16,0-.17.09-.21,0,.1-.12.09-.18s-.22-.09-.44-.08c-.12.89.71,1.5.39,2.23-.23-.11-.12-.23-.18-.49-.1,0-.07.08-.08.14a2.77,2.77,0,0,1-.2-1.12,1.52,1.52,0,0,0,0,1.52c.1,0,.07-.08.08-.14.51.17.07.49-.16.68-.11,0,.07-.26,0-.4-.18.09-.32.17-.17.32-.4-.14-.51.54-.42.73.34,0-.05-.13.26-.19-.31,0,0-.18-.1-.4.19,0,.17.06.18.13s.07-.06.08-.09a1.79,1.79,0,0,1-.15.77c0-.14-.2-.11-.44-.12a2.59,2.59,0,0,1-1.73.73c.44-.21,1.09-.33.94-.7-.35,0-1,.18-1,.44-.12,0,.07-.25-.18-.09-.17,0,.07-.17.08-.23.14.16.34,0,.35-.19-.26.08-.61.12-.6.33-.19-.14-.39,0-.62-.07.1-.18.6-.16.69-.34-.27-.13-.37.27-.7.11.05,0-.32.25,0,.23a1,1,0,0,0-1,.3c-.27,0-.82-.07-.52.06-.12.13-.51-.09-.27-.18a6.84,6.84,0,0,0-1,.35c-.15,0-.2-.07-.18-.18-.52,0-.6,0-.78.16,0-.15-.24-.15-.18-.32-.32.1-.36.13-.43.29-.22-.2-.47.14-.7.11a.27.27,0,0,1,0,.37c-.2.08.12-.24-.18-.27s-.13.24-.34.29-.07-.24-.36-.22c-.66.31-2,.22-2.17.72a1.91,1.91,0,0,0-.52.11.19.19,0,0,0,0-.33q-.33,0-.34.2c-.27,0,.06-.18.08-.24-.14-.16-.32-.15-.53-.17,0-.35-.06-.62-.64-.74-.25,0-.25.12-.26.24s.17,0,.17,0c.16.06-.39.33-.61.21.06.17-.18.19-.17.34-.41,0,.18-.11,0-.29-.15.27-.26,0-.44-.13s-.29.19-.53.06c-.22.06.22.19-.17.2-.22-.32.14-.49,0-.76-.23.07-.27.16-.18,0-.06,0-.4-.07-.44.06a.21.21,0,0,1-.18-.19c-.17.05-.13.22-.43.2-.14-.4.5-.4.33-.82.2,0,.1.14.27.14-.22-.57-1-.79-1.17-1.41.42.07.09-.48-.36-.38.16-.7.26-.48,0-1.25-.24.1-.38.25-.34.49-.55-.13-.26-.56-.27-.91.18.16.19,0,.17-.15-.08,0-.07.06-.09.1-.24-1.15.12-2.48.08-3.81.14,0,.15,0,.26,0,.16-.57-.22-.95-.18-.19-.14,0-.15-.53-.26-.73.13.17.28,0,.44-.09-.41-.14-.15-.37-.17-.68.29.08,0,.18.17.29.21-.09.05-.38,0-.48s-.07.09-.09.14c-.19,0,0-.2-.08-.29s.09,0,.17.05a10.2,10.2,0,0,0-.07-1.21c0-.07-.11,0-.26,0,.24-.22-.17-.23,0-.48.25.07.11.16.17.39.12-.35.28-.82,0-1.11-.18.07,0,.34-.18.43-.26-.2-.09-.61-.07-.87.46.23-.18-.28.18-.29,0-.11-.14.06-.26-.05.07-.39-.12-.63-.06-1,.26.12,0,.22.17.34.25-.25-.19-.41-.06-.82-.23.14,0,.33-.27.38a.31.31,0,0,1-.17-.3.65.65,0,0,0,.26.06c-.08-1.53-.22-2.19-.3-3.74.08,0,.07.06.08.1.86-1.3,0-2.9.23-4.4a.21.21,0,0,0-.19.23c-.29-.32.16-.6.14-.91-.47.2.32-.2-.26-.06l0-.68a.21.21,0,0,1,.16.25c.31-1.79.15-4,.6-5.54-.08,0-.07.05-.1.09-.11-1.06,1.33-2.94,1.26-4,0-.14-.34-.22-.23-.32-.1,0-.16,0-.18,0-.25-.13.62-.11.22-.37.18,0,.2.37.3.52a2.47,2.47,0,0,0,.58-2.12c.32.31.29-.29.32-.5.15,0,0,.42.21.51a.72.72,0,0,0,.12-1c0-.05.09,0,.09,0s.07-.05.1-.09c.19,0,0,.17.06.25s.06-.16.11-.23c.23.27.41-.08.39-.29,0-.05.36.55.59.26a1,1,0,0,0,.57.4c.37,0,.49-.2,1.07-.07.14-.09-.11-.4,0-.62.15.06.14.18.23.27.34-.08.61-.29,1-.07.1,0,.07-.09.18-.07s-.17-.11-.24-.17c.26-.07.63.2.48.44.32,0,.4-.16.4-.38.15-.13.05.21.05.29.18,0,.08-.28.22-.35s0,.23,0,.34.41.29.44.05c.16,0,0,.16.24.17.16-.19.25.17.28-.11.12,0,.06.13.07.2.56.14.4-.22.57-.36.19.06,0,.26,0,.38s.36,0,.51.2c.2,0-.1-.09.1-.13a1.81,1.81,0,0,1,.33.18c.3-.11.28-.57.27,0,.22-.07.19-.3.32-.43.16.15-.11.42-.16.59.16.2.4.16.85.29.23-.09.1-.42,0-.52L33,67.54c.12-.1.39,0,.52.06s0-.2.2-.21c-.35.19,1.19.75,1.79.59.18,0-.08-.3.13-.35s.12.31,0,.38c.53.09.61-.14.66-.38.19,0,.17.14.15.25.5,0,.34-.36.5-.54,0,.29-.07.83.6.9.07-.08.13.06,0,0,.06.28.56.25.75.41A2.45,2.45,0,0,1,40.42,69.42ZM39.1,102.6a3.84,3.84,0,0,0-.68.74A.88.88,0,0,0,39.1,102.6Zm1.19-10c0,.29-.16.45.08.67C40.46,93.15,40.43,92.72,40.29,92.64Zm-.38,5.46c-.06.14.09.16.09.27,0,.65,0,.06.17-.18.18.11-.24.48.27.58-.07-.52.08-.72-.36-1a.27.27,0,0,0,0-.49C39.82,97.68,40.33,98.12,39.91,98.1Zm.23-6.71c.25.25-.19.53.16.63C40.23,91.81,40.48,91.45,40.14,91.38Zm.39-10.69a.72.72,0,0,0,0,.68C40.75,81.19,40.65,80.88,40.53,80.69Zm-.08,1.25c.05.26-.11.35.15.5C40.61,82.28,40.56,81.91,40.45,81.94Zm.46-8.05c-.32.13.06,1.21,0,1.3C41.16,75,40.68,74,40.91,73.89ZM38.15,103s0-.09-.09-.09c.14.15-.37.2-.08.27.06-.07.53-.15.26-.23C38.23,103,38.22,103,38.15,103Zm-10,.92v.23c.23,0,.29-.28.17-.29S28.27,103.91,28.17,103.9Zm-.43.15a.36.36,0,0,0,.36.23C28.11,104.13,28,104.06,27.74,104.06Zm-.17.19c-.17,0-.11-.13-.35-.08,0,.06-.15,0-.17.1C27.38,104.44,27.29,104.26,27.57,104.25Zm-5.9-17c.13.13-.2.47.15.58C22,87.62,22,87.45,21.67,87.3Zm.19,2.23a.51.51,0,0,0,0-.53A.5.5,0,0,0,21.86,89.53Zm-.47-4a10.53,10.53,0,0,0,.08,2.52v.39c0,.09,0,.45.08.2.17-.66-.3-1.44.07-1.88,0,.07-.11.25.08.24C21.59,86.38,21.67,85.95,21.38,85.55ZM41.48,81c.19-.08-.15-.37.12-.48s0,.16.07.23c.31-.05,0-.32.3-.47.14.32.05.57.19,1-.33,0,0-.33-.24-.42C41.6,81,41.7,81.18,41.48,81Zm-.73,7.47c-.45-.1.07-.65-.23-.81C41,87.63,40.51,88.2,40.75,88.45Zm1.1-11.24c.09.56.11,2,.21,3-.3-.1-.11-.41-.22-.6-.37.12.06.46-.22.65a10.55,10.55,0,0,1,.17-4.33c-.28-.59.15-1.71.25-2.66.23,0-.1.49.12.59.23-.5-.08-1,.06-1.52-.36,0-.23.29-.4.41-.28-.54.49-1,.34-1.49.54,1.58-.15,4-.23,6.11C41.82,77.33,41.86,77.26,41.85,77.21Zm-.1,1.33c-.2.19,0,.55,0,.76C41.9,79.09,42,78.72,41.74,78.54Z"/><path class="cls-1" d="M99.94,94.8c.11.24-.37.36-.14.54C99.84,95.19,100.26,94.91,99.94,94.8Zm.28-3.64c-.18-.42,0-.78-.12-1,.36,0,.08.71.14.79Zm-1-7.49c.72,1.58.68,3.83,1,5.6-.3-.08-.2-.39-.24-.64Zm.57,4.1c-.31.21-.29.44-.29.85-.17.13-.06-.25-.08-.35s-.12-.48,0-.58Zm-.34-8.31c-.16-.12-.1-.35-.2-.5C99.6,79,99.47,79.33,99.41,79.46Zm-.06,6.16c-.27,0-.26-.13-.26.08-.12,0-.12-.33-.17-.47.08,0,.16,0,.17.08s.07-.07.09-.12C99.38,85.26,99.18,85.52,99.36,85.61Zm-.54,7.88c.16.08.17.22.14.36s0-.29-.16-.13C98.56,93.67,98.93,93.61,98.82,93.49Zm-.36,2.82c.19.08,0,.27,0,.4C98.31,96.63,98.5,96.43,98.46,96.31Zm-.1.93c-.36.1-.23-.27-.21-.42A.45.45,0,0,1,98.36,97.23ZM81.65,95.92c0,.13-.55-.08-.78-.1C81,95.69,81.21,95.93,81.65,95.92Zm-1.58-7.26c-.2-.06,0-.25-.07-.36C80.23,88.42,80.11,88.52,80.07,88.67Zm-.88-5.49c-.26-.07.05-.46,0-.67C79.54,82.69,79.31,82.89,79.19,83.18Zm0-1.11c-.2,0,0-.24-.1-.35A.18.18,0,0,1,79.16,82.07ZM79,80.84c.11,0,.24.32-.07.32C79.17,81,78.89,80.92,79,80.84ZM99.94,96.55c.15.08-.28.17-.29.28-.31-.07.25-.18-.06-.24C99.67,96.49,99.89,96.7,99.94,96.55ZM96.08,68.86c.33-.13.36-.34.54-.51.76.22,0,1,.81,1.24A2.83,2.83,0,0,0,98,71.67c.19,0,0-.14.06-.2.34,1.27-.21,2.8.08,4.27,0,.3-.16-.18-.1-.19-.29,0,.06.47,0,.38a5.58,5.58,0,0,1,.21,1.61c.19,0,.16-.07.17-.13.47,1.49.18,3.83.83,5.13h-.17c.39.28.17.68.19,1C98.88,83,99,82,98.7,81.27a15.13,15.13,0,0,0-.13,1.82,3.69,3.69,0,0,1-.2-1.27c-.36.59,0,1.29-.05,2,.2-.14,0-.45.08-.66.48.16.28.43.27.62-.14,1.79.15,3.53.18,5.27,0,.12.13.24.16.36.35,1.47-.27,3-.38,4.41.09,0,.07,0,.09-.07.09.37-.18.89.15,1.26.29,0-.28-.37.21-.33-.12.11,0,.4-.06.62.35,0,.05-.08.1-.15.31.18.18.31.38.55.15,0,.17,0,.18-.06.24.06,0,.16,0,.23-.27-.14-.53-.28-.47-.52-.27.15-.54.29-.51.61-.41-.27,0-.68-.14-1.22-.08,0-.16,0-.18.06-.21,0,.11-.09.1-.15s-.21-.1-.43-.12c-.2.75.55,1.37.15,2-.21-.12-.09-.21-.13-.44-.1,0-.08.06-.1.11a2.1,2.1,0,0,1-.07-1,1.16,1.16,0,0,0-.14,1.3c.1,0,.08-.06.1-.11.48.21,0,.43-.24.56-.11,0,.1-.21,0-.34-.19.06-.34.11-.2.25-.38-.17-.58.38-.51.56.33.06,0-.12.28-.12-.31,0,0-.15,0-.35.19,0,.16.07.16.13s.07,0,.1-.07a1.36,1.36,0,0,1-.25.63c.05-.11-.18-.12-.42-.17a2.8,2.8,0,0,1-1.81.35c.46-.11,1.12-.11,1-.44-.34-.08-1,0-1.09.21-.12,0,.1-.2-.16-.1s.09-.13.11-.18c.12.15.34,0,.37-.11-.27,0-.62,0-.64.19-.17-.14-.39-.06-.6-.15.12-.13.62,0,.73-.18-.25-.15-.4.17-.71,0,0,0-.35.16,0,.18a1.15,1.15,0,0,0-1,.1c-.28,0-.81-.18-.53,0-.14.09-.5-.15-.24-.18a8.65,8.65,0,0,0-1.08.12c-.15,0-.19-.09-.16-.17a1.63,1.63,0,0,0-.8,0c0-.11-.22-.15-.14-.27-.33,0-.37.05-.46.16-.19-.18-.48,0-.7,0a.17.17,0,0,1,0,.28c-.2,0,.15-.17-.15-.23s-.16.16-.37.17,0-.19-.33-.22c-.69.13-2-.13-2.23.2a2.57,2.57,0,0,0-.53,0,.12.12,0,0,0,0-.24q-.33,0-.36.09c-.26-.08.08-.12.11-.16a.91.91,0,0,0-.5-.2c0-.25,0-.45-.54-.61-.24,0-.26.05-.28.13s.17.06.17,0-.42.18-.62.06c0,.13-.2.1-.2.21-.41-.06.19-.05,0-.2-.18.17-.26-.05-.42-.15s-.31.09-.53,0,.19.16-.19.11c-.18-.25.2-.31.06-.52-.23,0-.29.07-.17-.05-.06,0-.39-.1-.44,0s-.15-.09-.16-.15c-.18,0-.16.13-.45.08-.09-.29.54-.2.42-.51.2,0,.08.1.25.13-.16-.41-1-.67-1-1.09.41.09.13-.31-.32-.29.21-.45.31-.29.08-.83-.25,0-.39.13-.38.29-.54-.14-.22-.4-.21-.63.17.12.19,0,.18-.08s-.07,0-.09.06A14.51,14.51,0,0,1,79.91,90c.14,0,.15,0,.26,0,.19-.37-.19-.64-.17-.14-.14,0-.13-.36-.24-.49.12.12.28,0,.44,0-.4-.11-.14-.25-.15-.46.29.07,0,.12.17.2s.06-.25,0-.32-.08.05-.09.09c-.19,0,0-.14-.08-.2a1.19,1.19,0,0,0,.17,0,3.63,3.63,0,0,0-.05-.8s-.11,0-.26,0c.24-.14-.17-.15,0-.32.25.05.11.11.17.26.12-.23.28-.54,0-.74-.18,0,0,.22-.18.28-.26-.14-.09-.41-.07-.58.46.15-.18-.18.18-.19,0-.07-.14,0-.26,0,.07-.26-.14-.42-.08-.67.26.08,0,.15.17.23.25-.16-.2-.27-.08-.54-.23.09,0,.22-.27.25a.22.22,0,0,1-.17-.19,1,1,0,0,0,.26,0c-.1-1-.29-1.44-.44-2.45.08,0,.07,0,.09.06.78-.9-.18-1.9-.09-2.88q-.19,0-.17.17c-.32-.18.1-.4.06-.61-.45.18.29-.16-.26,0l0-.44c.13,0,.19.07.18.15.12-1.2-.31-2.61-.1-3.65-.08,0-.06,0-.08.07-.25-.66.83-2.1.57-2.79,0-.09-.37-.07-.29-.16-.1,0-.15,0-.17.05-.27,0,.58-.19.14-.28.17-.06.26.2.39.27a1.21,1.21,0,0,0,.15-1.48c.38.13.22-.25.21-.39s.1.27.31.28A.38.38,0,0,0,80,71s.08,0,.09,0,.06,0,.08-.08c.19,0,.06.11.11.15s0-.12.06-.17c.28.12.38-.14.31-.28s.47.28.63,0a1.15,1.15,0,0,0,.64.13,3.43,3.43,0,0,1,1-.29c.12-.09-.2-.25-.15-.42.16,0,.18.09.28.12.31-.13.53-.34.93-.28.09,0,0-.08.16-.09s-.19,0-.28-.06c.23-.11.65,0,.56.19.31-.07.36-.2.3-.36.12-.12.1.13.12.19s0-.21.13-.3.06.16.12.22.46.1.43-.07c.16,0,.08.1.28.06s.28.06.24-.14c.12,0,.09.07.11.12.57,0,.34-.25.47-.39s.06.19.13.26.36-.06.54,0-.11,0,.07-.12a2.14,2.14,0,0,1,.36,0c.27-.15.14-.48.25-.08.19-.1.11-.27.21-.39.19.07,0,.33,0,.47.2.11.43,0,.89,0,.2-.12,0-.33-.15-.37l-.43.07a.63.63,0,0,1,.52-.08c.18,0,0-.16.15-.2-.3.23,1.32.27,1.86,0,.16-.08-.14-.21,0-.3s.19.21.13.27c.54-.07.55-.26.55-.46.19,0,.2.06.2.15.49-.09.24-.36.36-.54.05.23.13.66.79.55,0-.08.14,0,0,0,.13.21.6.06.82.14A2.78,2.78,0,0,1,96.08,68.86ZM96.71,97a3.75,3.75,0,0,0-.77.52A.8.8,0,0,0,96.71,97Zm1.88-8.42c0,.25-.16.39.07.58C98.76,89,98.73,88.66,98.59,88.58ZM98,93.26c-.07.11.08.15.07.24,0,.56,0,.06.19-.14.17.11-.27.39.22.52,0-.46.14-.62-.28-.88.21-.07.25-.28,0-.42C97.92,92.9,98.37,93.31,98,93.26Zm.49-5.77c.25.21-.19.46.16.55C98.54,87.86,98.79,87.56,98.44,87.5Zm-.24-9.22a.55.55,0,0,0,.12.57C98.48,78.67,98.35,78.43,98.21,78.28Zm.06,1.08c.08.22-.07.31.19.42C98.46,79.63,98.37,79.32,98.27,79.36Zm-.74-6.9c-.28.17.29,1,.21,1.1C98,73.32,97.32,72.58,97.53,72.46ZM95.71,97.19s0-.07-.08-.09c.12.14-.39.12-.11.21.07,0,.55-.05.28-.16C95.8,97.18,95.79,97.2,95.71,97.19Zm-10-.72,0,.17c.23,0,.32-.16.2-.18S85.83,96.49,85.73,96.47Zm-.45,0c0,.09.1.17.33.21C85.65,96.62,85.53,96.55,85.28,96.52Zm-.19.11c-.17,0-.1-.11-.34-.11,0,0-.16,0-.18,0C84.88,96.73,84.81,96.59,85.09,96.63ZM79.9,84.57c.14.08-.18.31.18.38C80.23,84.77,80.19,84.66,79.9,84.57ZM80.15,86c.15-.15.05-.27,0-.35A.24.24,0,0,0,80.15,86Zm-.61-2.62a4.83,4.83,0,0,0,.18,1.66v.25c0,.06,0,.29.09.13.16-.44-.34-.94,0-1.24,0,0-.1.17.09.16C79.78,84,79.85,83.67,79.54,83.42Zm19.64-5c.18-.09-.19-.3.06-.43s0,.14.1.19c.31-.08,0-.28.24-.44.18.26.12.49.32.88-.33,0-.07-.29-.28-.34C99.31,78.45,99.43,78.56,99.18,78.42ZM99,84.95c-.45-.07,0-.56-.27-.7C99.25,84.23,98.77,84.74,99,84.95Zm0-9.84c.16.47.43,1.71.63,2.54-.31-.05-.16-.34-.29-.49-.35.15.11.39-.14.6A9.27,9.27,0,0,1,98.75,74c-.36-.45-.15-1.48-.25-2.32.22-.09,0,.44.23.48.12-.47-.26-.81-.24-1.3-.35.07-.16.3-.3.43-.38-.39.25-1,0-1.33.9,1.22.69,3.45.94,5.26C99,75.22,99.05,75.15,99,75.11Zm.09,1.16c-.17.19,0,.48.14.65C99.36,76.73,99.39,76.4,99.13,76.27Z"/><path class="cls-1" d="M96.22,68.74c.63-.07,1,.44,1.48.24C97.26,68.89,96.45,68.42,96.22,68.74Zm-9.88-.81c-1.12.14-2.09,0-2.76,0-.12-.36,1.92,0,2.13-.05Zm-20.16.38c4.26-.62,10.32-.41,15.07-.6-.2.29-1,.16-1.7.18C75.05,68,70.31,68.18,66.18,68.31Zm11-.26a4.85,4.85,0,0,0,2.31.37c.35.18-.67,0-1,0A4.57,4.57,0,0,1,77,68.4C77.06,68.27,77.16,68.18,77.23,68.05Zm-22.3-.25a8.78,8.78,0,0,1-1.35.16C53.86,67.59,54.59,67.74,54.93,67.8Zm16.5.47c-.1.27-.36.25.2.27.07.12-.9.1-1.26.13a.29.29,0,0,1,.21-.17c0-.1-.19-.08-.31-.1C70.49,68.22,71.17,68.44,71.43,68.28Zm21.39,1.39a1.44,1.44,0,0,1,1-.09c.45.19-.79,0-.33.15C93.34,69.95,93.13,69.57,92.82,69.66Zm7.72.86c.17-.18.74,0,1.07,0C101.44,70.73,100.87,70.5,100.54,70.52Zm2.54.3c.34.4-.7.17-1.09.13A2,2,0,0,1,103.09,70.82ZM103,87.7c.41.06-.11.55-.1.78C102.47,88.25,103.14,88.15,103,87.7Zm-22,.2c-.18.19-.77,0-1.11,0C80.22,87.71,80.54,87.84,81,87.9Zm-17.37.35c-.23.25-1.46-.09-2.13,0C62.09,87.86,62.71,88.11,63.62,88.25Zm-3.55-.05c-.18.2-.78,0-1.12.07C59.06,88,59.83,88,60.07,88.2Zm-4,0c.11-.11,1.07-.22,1,.1C56.8,88.11,56.35,88.39,56.09,88.24Zm44.83-19.18c.18-.14.5.31.82.35-.13.3-.52-.28-.65,0C100.81,69.32,101.34,69.14,100.92,69.06ZM25.85,70c-.21-.35-.75-.41-1.12-.62.88-.72,2.68.23,3.58-.59A18.21,18.21,0,0,0,34,68.54c0-.19-.36,0-.51-.09,3.42-.18,7.34.53,11.33.36.79,0-.51.14-.52.09,0,.29,1.28,0,1,0a41.44,41.44,0,0,1,4.34-.08c0-.19-.15-.17-.31-.18,4-.35,10.3.08,13.84-.48v.17a6.27,6.27,0,0,1,2.62-.12c-1.41.35-4.2.17-6.06.42,1.57.2,3.68.14,4.9.25a26,26,0,0,1-3.44.12c1.56.4,3.48.09,5.42.19-.38-.21-1.22-.06-1.77-.13.46-.46,1.17-.25,1.68-.22,4.83.26,9.56.11,14.28.25.32,0,.63-.1,1-.12,4-.19,8.19.61,12,1,0-.09-.12-.08-.2-.11,1,0,2.44.32,3.41,0-.07-.3-1,.22-.94-.26.31.14,1.09,0,1.7.17.07-.35-.22-.07-.42-.13.43-.28.81-.12,1.43-.29.05-.14-.07-.17-.19-.2.13-.23.45.07.64.07a1.5,1.5,0,0,1-1.33.38,2.93,2.93,0,0,0,1.76.63c-.65.37-1.84-.09-3.31-.09,0,.08.08.16.19.19,0,.2-.27-.13-.41-.13s-.25.2-.25.42c2.08.33,3.64-.3,5.33.21-.3.19-.57.05-1.18,0,0,.1.18.09.31.12a15.07,15.07,0,0,1-2.66-.12,8.12,8.12,0,0,0,3.59.39c0-.1-.18-.09-.31-.12.49-.45,1.16.06,1.57.35-.05.1-.6-.15-1-.11a.62.62,0,0,0,.72.26c-.4.35,1.17.68,1.63.65.09-.33-.32,0-.39-.32,0,.32-.42,0-1,0,0-.19.17-.15.34-.13,0-.08-.12-.08-.2-.11a9.34,9.34,0,0,1,1.77.41c-.32-.08-.29.16-.37.39.62.54,1.46.94,1.35,1.94-.4-.5-.56-1.18-1.45-1.16-.14.33.22,1,.81,1.17,0,.12-.57-.15-.23.15,0,.16-.38-.12-.51-.15.4-.08,0-.35-.37-.4.14.29.17.64.65.7-.35.14-.07.38-.29.58-.38-.16-.24-.64-.64-.79-.36.22.55.45.12.72,0,0,.51.4.52.07-.19.32-.07.8.5,1,.05.28-.33.79,0,.54.28.16-.31.47-.45.21.23.36.26.84.58,1.14,0,.15-.2.17-.43.12,0,.52,0,.6.21.82-.32-.06-.37.19-.74.08a.73.73,0,0,0,.56.51c-.48.15.22.51.11.72a1.16,1.16,0,0,1,.82.11c.15.22-.51-.19-.64.09.09.21.5.2.57.43-.16.13-.54,0-.56.28.54.75.09,2,1.12,2.36a1,1,0,0,0,.13.55.72.72,0,0,0-.7-.09c0,.22.1.36.35.4-.16.25-.37-.11-.49-.15-.36.09-.39.27-.47.47-.75-.1-1.32-.13-1.68.4,0,.24.21.28.47.33a.09.09,0,0,0,0-.17c.15-.14.63.48.32.66.37,0,.36.24.67.27-.07.41-.2-.21-.6-.08.54.23-.1.25-.36.39,0,.22.33.34,0,.54.09.23.44-.16.37.22-.7.12-1-.29-1.59-.21.11.24.29.31-.12.16,0,.06-.22.37,0,.45a.46.46,0,0,1-.42.12c.08.19.42.2.34.49-.85,0-.74-.61-1.64-.57,0-.2.3-.06.33-.22-1.21.06-1.81.82-3.11.8.2-.4-1-.2-.83.26a4.91,4.91,0,0,0-2.57-.27,1.12,1.12,0,0,0,1,.44c-.34.51-1.19.15-1.91.09.35-.15.1-.18-.28-.2,0,.08.12.08.19.11-2.39,0-5.09-.58-7.85-.72,0-.14.1-.14.12-.25-1.18-.25-2,.1-.41.15-.05.13-1.1.08-1.52.17.35-.11,0-.28-.17-.45-.31.39-.77.11-1.41.09.18-.28.37,0,.61-.14-.17-.22-.78-.09-1-.06,0,.1.18.08.3.1,0,.19-.43,0-.61.05,0-.07.11-.08.11-.17-1.12-.09-1.54,0-2.51,0-.15,0,0,.11,0,.26-.46-.26-.48.15-1,0,.15-.24.33-.1.81-.14a4.81,4.81,0,0,0-2.31-.1c.15.19.7.06.9.22-.41.25-1.27,0-1.81,0,.47-.45-.57.16-.6-.2-.23,0,.12.14-.11.26-.81-.1-1.32.1-2.12,0,.23-.26.47,0,.71-.15-.52-.26-.85.17-1.72,0,.3.24.7,0,.8.29a.91.91,0,0,1-.61.16.38.38,0,0,0,.11-.26c-3.18,0-4.58.17-7.79.23,0-.09.13-.07.2-.08-2.81-.84-6.09,0-9.25-.12a.54.54,0,0,0,.51.18c-.64.31-1.28-.13-1.94-.1.49.46-.47-.3-.1.26H52a.54.54,0,0,1,.51-.17c-3.83-.21-8.5.11-11.8-.2,0,.09.13.07.21.09-2.22.19-6.5-1.06-8.77-.89-.3,0-.39.36-.62.26,0,.1,0,.16.1.18-.23.26-.38-.6-.83-.18-.13-.18.76-.23,1-.35a10.63,10.63,0,0,0-4.66-.37c.6-.35-.68-.26-1.14-.27-.13-.14.9,0,1-.25a3,3,0,0,0-2.18,0c-.12,0-.06-.09,0-.09s-.13-.07-.21-.09c0-.19.37,0,.52-.08s-.37,0-.52-.09c.52-.25-.26-.4-.72-.36-.12,0,1.11-.41.42-.61a1.15,1.15,0,0,0,.73-.61c-.11-.37-.55-.47-.41-1.06-.23-.13-.85.15-1.35.08.1-.15.36-.16.52-.26-.25-.33-.79-.58-.41-1,0-.09-.21-.06-.2-.18-.28-.06-.2.18-.31.26-.21-.25.27-.65.83-.52-.07-.32-.44-.39-.93-.36-.31-.14.45-.07.62-.08-.14-.17-.63-.05-.82-.18,0-.2.51,0,.72-.08s.52-.43,0-.44c0-.17.34-.06.31-.26-.45-.15.31-.26-.31-.27,0-.12.26-.07.41-.08.16-.57-.59-.38-.92-.53.08-.2.58,0,.83-.08s0-.36.31-.52c-.06-.2-.16.11-.31-.09a1.55,1.55,0,0,1,.31-.35c-.31-.29-1.33-.23-.1-.26-.2-.21-.72-.16-1-.27.29-.18,1,.07,1.34.1.4-.18.25-.42.42-.87-.26-.22-.95-.06-1.13.08v.44c-.25-.11-.18-.38,0-.53,0-.18-.45,0-.51-.18.51.33,1.35-1.26.84-1.83-.15-.17-.64.1-.82-.09s.67-.15.82-.08c.06-.54-.47-.59-1-.62,0-.19.26-.19.52-.17,0-.5-.89-.3-1.33-.45.64,0,1.88,0,1.85-.69-.2-.06.11-.14.1,0,.62-.09.42-.58.72-.78C24.14,71,25.14,70.61,25.85,70Zm76.93,2.46a10.24,10.24,0,0,0,1.6.91C104.28,72.85,103.16,72.54,102.78,72.46ZM79.49,69.3c.68,0,1.06.2,1.58,0A3.3,3.3,0,0,0,79.49,69.3Zm12.83,1.2c.32.09.39-.05.64,0,1.53.1.15,0-.41-.21.28-.16,1.1.34,1.4-.14-1.24,0-1.7-.24-2.36.14a1.12,1.12,0,0,0-1.16-.09C91.32,70.48,92.4,70.09,92.32,70.5ZM76.54,69.34c.58-.23,1.25.24,1.48-.11C77.54,69.28,76.7,69,76.54,69.34ZM51.6,68.92a3.63,3.63,0,0,0,1.56-.08A2.84,2.84,0,0,0,51.6,68.92Zm2.9,0c.6-.06.84.09,1.14-.17C55.26,68.77,54.42,68.83,54.5,68.94Zm-18.6.13c.35.3,2.75-.17,3-.09C38.33,68.72,36.17,69.3,35.9,69.07Zm67.59,4.45c-.08,0-.21,0-.22.06.37-.09.4.43.62.17-.14-.08-.26-.57-.49-.33C103.47,73.44,103.53,73.45,103.5,73.52Zm.16,10.1.5.07c.09-.22-.55-.37-.58-.25S103.69,83.53,103.66,83.62Zm.24.47c.25,0,.48-.06.55-.28C104.13,83.75,104,83.86,103.9,84.1Zm.38.23c0,.17-.29.07-.25.32.13,0,.07.16.18.2C104.64,84.57,104.25,84.6,104.28,84.32ZM68.09,87.65c.27-.13,1,.2,1.22-.15A1.13,1.13,0,0,0,68.09,87.65Zm4.66-.12a2.12,2.12,0,0,0-1.11,0A2.08,2.08,0,0,0,72.75,87.53Zm-8.31.38a48.38,48.38,0,0,0,5.27,0l.81,0c.2,0,.93,0,.41-.07-1.38-.21-3,.26-3.94-.11.15,0,.52.12.51-.08A12.51,12.51,0,0,0,64.44,87.92ZM52.12,68c-.21-.19-.84.17-1.14-.09,0-.19.37,0,.52-.09-.17-.31-.75,0-1.14-.27.72-.16,1.32-.09,2.39-.25,0,.33-.77.05-.94.26C52.22,67.84,52.55,67.73,52.12,68Zm17.51.61c-.21.44-1.52-.08-1.89.22C67.7,68.29,69.07,68.8,69.63,68.57Zm-26.31-.72c1.28-.12,4.61-.28,6.83-.42-.19.3-.94.14-1.35.26.34.36,1-.08,1.56.18a60.39,60.39,0,0,1-10,.16c-1.29.32-4,0-6.17,0-.16-.22,1.15,0,1.34-.17-1.2-.18-2.22.17-3.49.08.06.36.72.2,1,.35-1.16.33-2.47-.38-3.48-.19,3.48-.69,9.25-.24,14.09-.33C43.61,67.86,43.44,67.83,43.32,67.85Zm3.1,0a3.8,3.8,0,0,0,1.76-.09A2.88,2.88,0,0,0,46.42,67.85Z"/><path class="cls-1" d="M82.83,61.14c.36-.09.57.39.82.17C83.41,61.26,83,60.82,82.83,61.14Zm-5.53-.56a9.54,9.54,0,0,1-1.56,0c0-.36,1.08,0,1.21-.06Zm-11.47.08c2.48-.44,5.91-.12,8.61-.28-.13.29-.6.16-1,.17C70.9,60.61,68.19,60.68,65.82,60.66Zm6.3,0c.3.33.66.34,1.28.39.19.18-.38,0-.54,0-.38,0-.74.07-.89-.09C72,60.89,72.08,60.8,72.13,60.68Zm-12.69-1c-.21.14-.55,0-.79.1C58.85,59.4,59.26,59.59,59.44,59.66Zm9.37,1.12c-.08.26-.23.24.09.27,0,.12-.52.08-.73.1,0-.08.07-.15.14-.16s-.1-.08-.17-.1C68.28,60.71,68.65,60.94,68.81,60.78Zm12,1.39c.12-.16.33-.16.55-.12s-.44,0-.2.16C81.14,62.44,81,62.07,80.86,62.17Zm4.33.52c.1-.19.42,0,.6,0C85.69,62.86,85.38,62.66,85.19,62.7Zm1.43.14c.18.37-.4.22-.62.2A.8.8,0,0,1,86.62,62.84Zm-.49,16.78c.25,0-.08.55-.08.79C85.78,80.21,86.19,80.06,86.13,79.62Zm-13.24.87c-.12.19-.46,0-.66,0C72.44,80.3,72.63,80.43,72.89,80.49Zm-10.32-.07c-.16.24-.85-.15-1.25-.13C61.71,80,62,80.24,62.57,80.42Zm-2.08-.21c-.12.19-.46,0-.66,0C59.92,80,60.37,80.05,60.49,80.21Zm-2.33-.15c.07-.11.65-.16.59.15C58.59,80,58.3,80.22,58.17,80.07ZM85.46,61.23c.11-.15.27.29.45.31-.08.31-.28-.25-.37.05C85.39,61.49,85.69,61.28,85.46,61.23Zm-43-1c-.09-.36-.4-.45-.59-.68.58-.67,1.54.36,2.14-.4a6.35,6.35,0,0,0,3.3.07c0-.19-.21-.06-.29-.12,2,0,4.19.95,6.5,1,.46,0-.31.11-.31.06,0,.29.74.05.59.06a14.29,14.29,0,0,1,2.5.16c0-.18-.07-.18-.16-.19,2.36-.13,5.9.61,8,.19l0,.17c.48-.33,1.06,0,1.5,0-.83.31-2.41,0-3.5.18.88.27,2.09.3,2.78.46a8.48,8.48,0,0,1-2,0c.85.46,2,.24,3.08.4-.2-.22-.69-.1-1-.19.31-.45.69-.21,1-.17,2.74.44,5.44.37,8.11.55a4.07,4.07,0,0,0,.55-.12c2.26-.19,4.61.57,6.77.77,0-.09-.07-.08-.11-.1.57-.06,1.36.24,1.93-.07,0-.29-.56.25-.52-.23.17.13.61,0,1,.1.05-.35-.12-.06-.23-.11.26-.3.46-.16.82-.36,0-.15,0-.17-.1-.19.08-.24.25,0,.36,0-.19.27-.39.52-.77.45a1.14,1.14,0,0,0,1,.54c-.38.4-1,0-1.87.08,0,.08,0,.16.1.19,0,.2-.15-.12-.23-.11s-.15.21-.16.42c1.17.25,2.07-.48,3-.05-.17.21-.32.08-.67.11,0,.1.1.08.17.1a4.83,4.83,0,0,1-1.5,0,2.63,2.63,0,0,0,2,.2c0-.1-.1-.08-.17-.1.29-.48.65,0,.87.26,0,.11-.34-.11-.53-.05.1.19.19.35.4.22-.24.38.64.59.91.53.06-.33-.18,0-.21-.29,0,.31-.24,0-.54,0,0-.19.1-.16.2-.16s-.07-.07-.11-.1a3.05,3.05,0,0,1,1,.28c-.18-.06-.17.18-.22.42a2.29,2.29,0,0,1,.72,1.83c-.21-.47-.29-1.14-.79-1-.09.34.1,1,.43,1.1,0,.12-.32-.11-.14.16,0,.17-.21-.09-.29-.12.23-.11,0-.35-.2-.37.07.27.08.62.35.65-.2.17-.05.39-.18.6-.22-.13-.12-.62-.35-.74-.21.25.31.41,0,.71,0,0,.28.36.3,0a.85.85,0,0,0,.26,1c0,.28-.21.8,0,.53.16.14-.19.49-.26.24a5.82,5.82,0,0,0,.31,1.09c0,.15-.12.19-.26.15,0,.52,0,.6.1.8-.19,0-.22.21-.43.13.08.34.12.38.31.47-.28.19.12.49,0,.71a.41.41,0,0,1,.48,0c.08.21-.29-.16-.37.14s.29.17.32.38-.32,0-.33.32c.3.71,0,2,.61,2.26a1.55,1.55,0,0,0,.07.54.28.28,0,0,0-.42,0q0,.33.2.37c-.1.26-.22-.08-.29-.12s-.23.29-.29.5c-.44,0-.78,0-1,.52,0,.24.12.27.27.29s.08-.17,0-.17c.09-.15.36.44.18.63.22,0,.21.21.4.22,0,.41-.12-.19-.36,0,.32.19-.07.26-.22.42,0,.22.19.31,0,.53,0,.22.27-.19.22.2-.42.17-.58-.22-1-.1.06.23.16.29-.08.17,0,.06-.14.39,0,.44a.25.25,0,0,1-.26.15c0,.18.25.17.19.46-.51.07-.43-.56-1-.45,0-.2.18-.08.2-.24-.73.14-1.11.91-1.9,1,.13-.41-.58-.15-.51.3-.85-.25-.56-.33-1.55-.16a.56.56,0,0,0,.56.41c-.23.53-.72.19-1.16.15.22-.16.07-.18-.16-.19,0,.08.07.08.11.1a43.41,43.41,0,0,1-4.69-.56c0-.14.07-.14.09-.26-.69-.23-1.19.11-.26.15,0,.14-.66.09-.92.17.22-.11,0-.28-.07-.45-.21.39-.46.1-.85.09.12-.28.22,0,.37-.14-.09-.22-.46-.1-.59-.06s.1.08.17.1c0,.19-.26,0-.37.05s.07-.08.08-.17a14.1,14.1,0,0,0-1.49-.06c-.09,0,0,.11,0,.26-.25-.26-.29.15-.59-.06.11-.24.2-.09.49-.13-.42-.16-1-.36-1.37-.14.08.19.41.07.52.23-.26.24-.76,0-1.08,0,.31-.44-.35.15-.34-.21-.14,0,.06.14-.09.26-.47-.11-.79.06-1.26,0,.16-.25.28,0,.43-.13-.29-.27-.52.15-1,0,.16.25.41,0,.45.31a.41.41,0,0,1-.37.14.55.55,0,0,0,.09-.26c-1.89-.07-2.72,0-4.62,0,0-.08.08-.06.13-.08-1.57-1-3.58-.22-5.41-.54a.26.26,0,0,0,.28.2c-.4.27-.74-.2-1.12-.2.24.48-.24-.33-.09.26L55.77,80a.26.26,0,0,1,.31-.14c-2.21-.41-4.95-.36-6.82-.86,0,.08.07.08.11.1-1.3.06-3.64-1.42-5-1.38-.18,0-.26.33-.38.23,0,.1,0,.16,0,.18-.16.24-.16-.62-.46-.22-.06-.18.46-.19.63-.29A3.68,3.68,0,0,0,41.61,77c.37-.32-.37-.29-.63-.33-.06-.15.52,0,.62-.2a1.05,1.05,0,0,0-1.25-.13,0,0,0,0,1,0-.09c0-.08-.07-.07-.11-.1,0-.19.22,0,.31-.06s-.21-.06-.29-.12c.33-.23-.11-.41-.38-.39-.07,0,.67-.35.3-.59a1,1,0,0,0,.48-.57c0-.37-.27-.5-.13-1.07-.12-.14-.5.11-.78,0,.07-.15.22-.14.32-.23-.11-.34-.4-.62-.14-1,0-.1-.11-.07-.1-.19-.15-.08-.13.17-.2.24a.4.4,0,0,1,.53-.48c0-.32-.22-.41-.5-.4-.17-.15.27-.05.37-.05-.06-.18-.36-.08-.46-.22s.3,0,.42,0,.34-.41,0-.44c0-.16.2,0,.2-.24-.24-.17.21-.25-.15-.28,0-.12.16-.06.25-.06.15-.56-.3-.41-.48-.58.06-.19.34,0,.48,0s0-.36.23-.51c0-.2-.1.1-.17-.1a1.59,1.59,0,0,1,.21-.33c-.15-.3-.74-.29,0-.27-.1-.22-.4-.19-.57-.32.18-.16.55.12.76.17.25-.16.18-.4.33-.85-.13-.23-.54-.11-.66,0l0,.44c-.14-.12-.07-.39.05-.52s-.26,0-.28-.2c.26.35.9-1.18.66-1.78-.07-.18-.38.07-.47-.13s.4-.12.48,0c.08-.54-.22-.61-.53-.67,0-.19.17-.17.32-.14,0-.5-.48-.34-.73-.51.37,0,1.09.09,1.14-.59-.11-.07.08-.13.06,0,.37-.06.3-.56.5-.74C41.36,61.13,42,60.82,42.45,60.24Zm43.94,4.25a4.82,4.82,0,0,0,.88.79C87.23,64.77,86.6,64.55,86.39,64.49ZM73.32,61.94c.39,0,.59.21.9,0A1.14,1.14,0,0,0,73.32,61.94ZM80.53,63c.18.08.23-.07.37-.05.86,0,.09,0-.22-.2.16-.17.61.3.8-.18-.7,0-1-.18-1.34.22a.42.42,0,0,0-.65-.07C80,63,80.6,62.61,80.53,63Zm-8.9-1.07c.34-.22.7.25.85-.09C72.21,61.9,71.76,61.62,71.64,61.95ZM57.42,60.61a1.24,1.24,0,0,0,.9,0A1,1,0,0,0,57.42,60.61Zm1.66.17c.35,0,.47.13.67-.11C59.54,60.64,59,60.66,59.09,60.77Zm-10.72-.9c.17.32,1.6,0,1.73.09C49.81,59.67,48.5,60.11,48.37,59.87Zm38.4,5.63s-.12,0-.13.08c.21-.12.22.4.35.12-.08-.07-.13-.55-.27-.29C86.75,65.42,86.79,65.43,86.77,65.5Zm-.17,10,.3,0c.06-.23-.31-.33-.34-.21S86.62,75.43,86.6,75.53Zm.13.45a.38.38,0,0,0,.33-.32C86.87,75.62,86.77,75.74,86.73,76Zm.22.2c0,.17-.17.09-.15.34.08,0,0,.16.1.19C87.16,76.4,86.93,76.46,87,76.18ZM65.26,80c.17-.12.57.24.73-.1C65.67,79.7,65.46,79.71,65.26,80ZM68,80a.76.76,0,0,0-.65-.07A.75.75,0,0,0,68,80Zm-4.93.12a16.34,16.34,0,0,0,3.11.14l.48,0c.11,0,.55,0,.25-.06-.8-.23-1.79.16-2.32-.23.09,0,.3.13.31-.06A4.56,4.56,0,0,0,63.08,80.12ZM57.82,59.68c-.1-.2-.5.12-.64-.15,0-.19.21,0,.31-.06-.06-.32-.43,0-.63-.33.43-.12.77,0,1.39-.12,0,.33-.44,0-.56.21C57.89,59.56,58.09,59.47,57.82,59.68ZM67.77,61c-.16.44-.86-.13-1.1.15C66.69,60.68,67.42,61.24,67.77,61Zm-15-2c.75-.05,2.68,0,4,0-.14.29-.55.09-.8.18.16.38.61,0,.87.26A19.81,19.81,0,0,1,51,59.08c-.78.25-2.28-.23-3.57-.36-.07-.23.66.12.79-.1-.68-.25-1.3,0-2-.12,0,.36.4.24.56.41-.71.26-1.4-.52-2-.38,2.09-.5,5.38.28,8.18.47C52.94,59.11,52.85,59.07,52.77,59.08Zm1.78.18c.25.21.74.08,1,0C55.29,59.14,54.8,59,54.56,59.26Z"/><path class="cls-1" d="M81.22,50c.26-.12.45.35.63.11C81.66,50.06,81.31,49.66,81.22,50ZM77,49.85c-.48.19-.89,0-1.18.14-.05-.36.82-.08.91-.15Zm-8.69.94c1.86-.63,4.47-.56,6.51-.93-.09.3-.45.2-.73.24C72.17,50.36,70.12,50.63,68.32,50.79Zm4.78-.46c.24.31.51.29,1,.29.15.17-.29.06-.41.07-.28,0-.56.12-.68,0S73.07,50.46,73.1,50.34Zm-9.66-.05c-.15.15-.41.07-.6.16C63,50.06,63.3,50.22,63.44,50.28Zm7.15.41c0,.27-.16.26.08.27,0,.12-.39.11-.55.16,0-.08,0-.16.1-.17s-.08-.08-.13-.09C70.19,50.65,70.48,50.86,70.59,50.69Zm9.2.48c.08-.17.24-.18.41-.16s-.34,0-.14.17C80,51.42,79.92,51.05,79.79,51.17Zm3.31.2c.07-.2.32,0,.45-.07C83.48,51.49,83.23,51.32,83.1,51.37Zm1.09,0c.16.35-.29.25-.46.25A.54.54,0,0,1,84.18,51.4Zm.66,16.77c.19,0,0,.55,0,.79C84.61,68.79,84.92,68.61,84.84,68.18ZM74.69,70c-.08.2-.35,0-.51.07C74.33,69.88,74.48,70,74.69,70Zm-8,.7c-.11.25-.66-.09-1,0C66,70.35,66.3,70.59,66.71,70.74Zm-1.62-.05c-.09.2-.35,0-.51.07C64.64,70.52,65,70.54,65.09,70.69Zm-1.81,0c.05-.11.49-.21.46.1C63.61,70.59,63.4,70.86,63.29,70.72ZM83.21,49.88c.07-.15.22.26.36.27,0,.31-.23-.23-.27.08C83.17,50.15,83.39,49.91,83.21,49.88ZM50.55,52.14c-.08-.35-.32-.41-.47-.63.42-.71,1.18.24,1.62-.56a3.75,3.75,0,0,0,2.51-.18c0-.19-.16,0-.22-.09,1.52-.13,3.21.63,5,.51.35,0-.23.14-.23.08,0,.29.56,0,.45,0a8.28,8.28,0,0,1,1.91,0c0-.19-.06-.17-.13-.18,1.78-.3,4.5.17,6.05-.42v.17c.35-.37.8-.13,1.14-.14-.62.37-1.83.18-2.65.44a19.9,19.9,0,0,0,2.13.25,5,5,0,0,1-1.5.13c.67.39,1.51.09,2.36.16-.16-.21-.53,0-.77-.11.21-.47.51-.26.73-.24a48.92,48.92,0,0,0,6.17-.06c.14,0,.27-.13.41-.16,1.7-.36,3.52.23,5.17.26,0-.09-.05-.07-.09-.09.43-.11,1,.13,1.46-.21,0-.28-.41.3-.4-.19.14.12.46-.05.72,0,0-.36-.09,0-.18-.09.18-.32.34-.2.6-.42,0-.15,0-.17-.09-.18.05-.25.19,0,.27,0-.13.28-.26.55-.55.51.2.26.39.52.76.46-.27.43-.78.1-1.41.22,0,.08,0,.16.09.18,0,.21-.12-.1-.18-.09s-.1.22-.1.44c.9.16,1.54-.64,2.27-.28-.12.22-.24.11-.5.16,0,.1.08.08.13.09a2.82,2.82,0,0,1-1.14.14,1.56,1.56,0,0,0,1.54.05c0-.1-.08-.08-.13-.09.19-.5.5,0,.68.2,0,.11-.26-.08-.41,0,.09.18.16.33.31.19-.16.39.52.54.72.46,0-.34-.14,0-.18-.27,0,.31-.18,0-.41.07,0-.19.07-.16.14-.17s-.05-.07-.09-.09a1.85,1.85,0,0,1,.77.2c-.14,0-.12.19-.14.43a2.61,2.61,0,0,1,.66,1.78c-.19-.45-.29-1.11-.67-1,0,.35.13,1,.39,1.07,0,.12-.25-.08-.09.17,0,.17-.17-.08-.23-.09.17-.13,0-.35-.18-.36.07.27.1.62.31.62-.14.18,0,.39-.1.61-.17-.11-.13-.61-.31-.71-.15.26.26.39.08.7,0,0,.24.34.23,0a1,1,0,0,0,.26,1c0,.27-.11.82,0,.53.13.13-.11.51-.19.26a7,7,0,0,0,.3,1.06c0,.15-.08.2-.19.17,0,.52,0,.6.13.79-.14,0-.16.23-.32.16.08.33.12.36.27.45-.2.21.12.48.08.7a.26.26,0,0,1,.37,0c.07.2-.23-.13-.28.17s.23.14.27.36-.24.06-.23.34c.28.68.13,2,.61,2.21a2,2,0,0,0,.08.53.18.18,0,0,0-.32,0q0,.34.18.36c-.06.26-.17-.07-.23-.09-.16.13-.16.31-.19.52-.34,0-.6,0-.74.59,0,.25.11.26.23.27s0-.17,0-.17.31.41.17.62c.17-.05.17.2.32.19,0,.41-.1-.18-.28,0,.26.17,0,.26-.14.43s.17.3,0,.53c.05.22.19-.21.18.18-.31.2-.46-.17-.74,0,.06.23.14.28,0,.17,0,.06-.09.4,0,.44a.2.2,0,0,1-.19.17c0,.18.2.15.18.44-.39.11-.37-.53-.78-.38,0-.2.13-.09.14-.26-.55.19-.8,1-1.4,1.09.08-.42-.46-.11-.38.34-.67-.19-.45-.29-1.2,0,.08.24.23.38.46.37-.14.54-.55.24-.88.23.16-.17,0-.19-.14-.18,0,.08.06.07.09.09a26,26,0,0,1-3.65-.21c0-.14,0-.15.05-.26-.55-.18-.91.2-.19.17,0,.14-.51.14-.7.24.16-.12,0-.28-.08-.44-.14.41-.35.14-.65.15.08-.29.17,0,.28-.17-.08-.21-.36-.06-.46,0s.08.08.14.09c0,.19-.2,0-.28.08s0-.09.05-.17a8.46,8.46,0,0,0-1.16,0c-.07,0,0,.11,0,.26-.21-.25-.22.17-.46,0,.07-.25.15-.11.37-.16-.33-.13-.78-.29-1.06,0,.07.19.32,0,.41.19-.19.26-.59.08-.83.06.22-.46-.26.18-.27-.18-.11,0,.05.14-.05.26-.37-.08-.61.12-1,.06.11-.26.21,0,.33-.17-.24-.25-.39.19-.79.06.13.23.32,0,.36.27a.3.3,0,0,1-.28.17.68.68,0,0,0,.05-.26c-1.46.07-2.1.23-3.57.32,0-.08.06-.07.1-.08-1.26-.84-2.78,0-4.21-.14q.05.2.22.18c-.3.3-.58-.14-.88-.12.21.47-.2-.31-.06.26l-.65,0c0-.13.12-.19.24-.17-1.72-.24-3.85,0-5.31-.35,0,.08.05.07.09.09-1,.16-2.87-1.15-3.89-1-.14,0-.19.35-.29.25,0,.1,0,.16,0,.18-.11.25-.14-.61-.36-.19-.05-.18.35-.22.48-.33a2.27,2.27,0,0,0-2.06-.42c.28-.34-.29-.27-.49-.28,0-.14.4,0,.47-.25a.67.67,0,0,0-1,0c-.05,0,0-.09,0-.09s-.05-.07-.09-.09c0-.19.17,0,.24-.08s-.16,0-.23-.09c.25-.25-.1-.4-.3-.36-.05,0,.51-.4.22-.61a1,1,0,0,0,.35-.6c0-.37-.22-.47-.13-1.06-.09-.13-.38.14-.6.07,0-.15.17-.15.24-.25-.1-.33-.32-.58-.14-1,0-.09-.09-.06-.08-.18s-.1.18-.15.26c-.08-.25.15-.64.39-.51,0-.32-.18-.39-.4-.36-.13-.14.2-.07.28-.08-.05-.17-.28-.06-.36-.19s.23,0,.33-.08.25-.43,0-.44c0-.17.15-.06.15-.26-.19-.15.15-.26-.12-.27,0-.12.12-.07.19-.08.1-.57-.24-.38-.39-.54,0-.2.26,0,.37-.07s0-.36.16-.52c0-.2-.08.1-.13-.09a1.85,1.85,0,0,1,.16-.35c-.13-.29-.58-.23,0-.26-.08-.21-.31-.16-.44-.28.14-.18.42.07.59.11.19-.17.13-.41.23-.87-.11-.22-.42-.07-.51.07l0,.44c-.11-.11-.06-.38,0-.52s-.2,0-.22-.18c.21.33.66-1.24.46-1.83-.06-.17-.29.1-.36-.1s.3-.15.37-.08c.05-.54-.18-.59-.43-.63,0-.19.12-.18.24-.17,0-.5-.38-.31-.57-.46.29,0,.84,0,.86-.67-.08-.06.06-.13,0,0,.28-.08.21-.58.36-.78A2.46,2.46,0,0,1,50.55,52.14Zm33.56.93a4,4,0,0,0,.72.72A.9.9,0,0,0,84.11,53.07Zm-10-1.56c.29,0,.46.17.68-.07C74.58,51.34,74.15,51.37,74.06,51.51Zm5.52.53c.14.07.17-.08.27-.08.66,0,.06,0-.18-.18.12-.18.48.26.59-.24-.53,0-.73-.11-1,.32a.27.27,0,0,0-.5,0C79.16,52.1,79.62,51.62,79.59,52Zm-6.8-.4c.25-.25.54.2.64-.15C73.22,51.55,72.86,51.3,72.79,51.64Zm-10.84-.27a.74.74,0,0,0,.68-.07C62.44,51.14,62.14,51.25,61.95,51.37Zm1.27,0c.27-.06.36.1.51-.16C63.55,51.25,63.18,51.31,63.22,51.42ZM55,51.32c.14.31,1.22-.14,1.32,0C56.13,51,55.15,51.55,55,51.32ZM84.46,54s-.09,0-.09.08c.16-.14.19.38.27.1-.06-.06-.13-.54-.22-.27C84.44,54,84.47,54,84.46,54Zm.49,10h.23c0-.23-.26-.31-.27-.18S85,64,84.95,64.06Zm.13.44a.35.35,0,0,0,.24-.34C85.16,64.13,85.09,64.25,85.08,64.5Zm.18.18c0,.17-.13.11-.1.35.06,0,0,.15.09.18C85.43,64.88,85.26,65,85.26,64.68ZM68.77,70.11c.13-.13.45.19.56-.16C69.07,69.79,68.91,69.82,68.77,70.11Zm2.13-.19a.47.47,0,0,0-.51,0A.47.47,0,0,0,70.9,69.91Zm-3.81.49a9.84,9.84,0,0,0,2.41-.1h.37c.09,0,.43,0,.19-.08-.63-.17-1.38.3-1.8-.06.07,0,.24.11.23-.08C67.89,70.19,67.47,70.11,67.09,70.4Zm-4.88-20c-.09-.19-.37.16-.5-.1s.16,0,.23-.08c-.06-.31-.33,0-.49-.28.32-.15.58-.07,1.05-.23,0,.33-.34,0-.42.25C62.26,50.3,62.41,50.19,62.21,50.42Zm7.6.6c-.1.45-.66-.07-.82.24C69,50.75,69.56,51.25,69.81,51ZM58.36,50.2c.56-.11,2-.21,3-.34-.1.3-.42.13-.6.24.13.36.46-.07.67.2a11.48,11.48,0,0,1-4.4,0c-.58.31-1.74-.06-2.72-.09-.06-.23.5.06.6-.16-.52-.2-1,.14-1.54,0,0,.36.31.21.44.37-.53.31-1.08-.41-1.53-.23,1.58-.66,4.1-.12,6.22-.15C58.49,50.22,58.42,50.19,58.36,50.2Zm1.36,0c.2.19.56,0,.77-.06C60.28,50.07,59.9,50,59.72,50.25Z"/><path class="cls-1" d="M87.07,82.07c.43-.11.74.36,1,.13C87.8,82.16,87.22,81.74,87.07,82.07Zm-6.89-.26a14.6,14.6,0,0,1-1.93.1c-.09-.36,1.34-.06,1.49-.12ZM66,82.5c3-.58,7.3-.43,10.64-.74-.14.3-.73.19-1.2.22C72.26,82.18,68.91,82.39,66,82.5Zm7.8-.32c.39.32.84.31,1.62.32.25.17-.47.05-.67.06-.47,0-.91.11-1.11,0C73.66,82.4,73.74,82.31,73.78,82.18ZM58,81.85c-.24.15-.68.06-1,.14C57.24,81.62,57.76,81.78,58,81.85Zm11.7.62c-.07.27-.26.25.14.27,0,.12-.64.1-.9.14,0-.08.07-.15.15-.17s-.13-.08-.22-.1C69,82.42,69.51,82.63,69.69,82.47Zm15,.74c.13-.17.39-.17.67-.15s-.55,0-.23.17C85.09,83.46,84.94,83.1,84.72,83.21Zm5.41.29c.11-.2.52,0,.74-.06C90.76,83.64,90.36,83.46,90.13,83.5Zm1.78.07c.25.36-.48.24-.75.24A1.12,1.12,0,0,1,91.91,83.57Zm.85,16.79c.31,0,0,.55,0,.79C92.38,101,92.87,100.79,92.76,100.36Zm-16.31,1.58c-.13.2-.57,0-.82.06C75.88,101.77,76.12,101.89,76.45,101.94Zm-12.78.48c-.17.25-1.07-.1-1.56-.06C62.56,102,63,102.26,63.67,102.42Zm-2.59-.1c-.13.2-.57,0-.82.06C60.35,102.14,60.91,102.17,61.08,102.32Zm-2.89,0c.08-.11.79-.2.74.12C58.7,102.18,58.37,102.45,58.19,102.3ZM90.33,82c.12-.15.36.27.58.28-.07.31-.37-.24-.45.07C90.27,82.29,90.62,82.06,90.33,82ZM37,83.34c-.14-.35-.53-.42-.79-.64.66-.7,1.94.27,2.62-.51a9.69,9.69,0,0,0,4.08-.11c0-.19-.26,0-.37-.1,2.48-.09,5.27.72,8.14.66.57,0-.37.13-.37.07,0,.29.92,0,.74,0a22,22,0,0,1,3.11,0c0-.19-.1-.17-.22-.18,2.91-.25,7.35.3,9.88-.24v.17c.56-.36,1.31-.1,1.86-.1-1,.35-3,.13-4.32.36,1.11.22,2.61.19,3.48.31a13,13,0,0,1-2.45.08c1.1.41,2.47.13,3.85.23-.27-.21-.86-.06-1.26-.13.34-.46.83-.25,1.19-.22,3.43.3,6.76.08,10.09.12a6,6,0,0,0,.67-.15c2.78-.31,5.75.33,8.44.41,0-.09-.09-.07-.14-.09.7-.09,1.71.16,2.38-.17-.06-.29-.67.28-.66-.2.22.12.76,0,1.19,0,0-.36-.15-.05-.29-.1.29-.31.56-.19,1-.4,0-.15-.05-.17-.14-.18.08-.24.31,0,.44,0a.94.94,0,0,1-.91.49,1.58,1.58,0,0,0,1.24.49c-.44.42-1.28.07-2.31.18,0,.08.06.16.14.18,0,.21-.19-.11-.29-.1s-.17.21-.16.43c1.47.19,2.53-.59,3.72-.21-.2.22-.39.1-.82.14,0,.1.13.08.22.1a7.37,7.37,0,0,1-1.86.11,4,4,0,0,0,2.52.1c0-.1-.13-.08-.22-.1.32-.49.81,0,1.11.22,0,.11-.42-.09-.67,0,.14.19.26.34.51.2-.26.39.84.56,1.17.48,0-.34-.22,0-.29-.27,0,.31-.29,0-.67.06,0-.19.11-.16.23-.17s-.09-.07-.14-.09a4.61,4.61,0,0,1,1.25.22c-.22,0-.2.19-.24.43.46.48,1.07.79,1,1.79-.31-.45-.45-1.12-1.07-1A1,1,0,0,0,93.26,87c0,.12-.41-.09-.15.17,0,.17-.27-.08-.37-.1.27-.12,0-.35-.28-.36.11.27.15.62.5.63-.24.18,0,.39-.17.61-.28-.12-.2-.62-.49-.72-.24.26.41.39.12.71,0,0,.38.34.37,0a.78.78,0,0,0,.41,1c.05.28-.19.81.05.53.21.13-.19.5-.31.25.18.33.23.81.48,1.07,0,.15-.13.19-.3.16,0,.52,0,.6.19.8-.23,0-.26.22-.53.16.13.33.19.37.43.45-.33.2.19.48.12.71a.62.62,0,0,1,.59,0c.12.2-.38-.14-.45.16s.37.15.43.37c-.1.14-.39.05-.38.34.44.69.18,2,1,2.23a1.3,1.3,0,0,0,.13.53.4.4,0,0,0-.52,0c0,.22.09.34.28.36-.1.26-.28-.07-.37-.1-.26.13-.26.3-.32.51-.55,0-1,0-1.21.57,0,.25.17.26.36.28s.08-.17,0-.17c.1-.15.49.42.27.62.27,0,.28.2.51.2,0,.41-.16-.19-.44,0,.41.18-.06.26-.24.43,0,.22.27.3.05.53.08.22.32-.2.29.19-.51.19-.74-.19-1.19,0,.09.23.23.28-.08.17,0,.06-.14.39.06.44a.31.31,0,0,1-.3.16c.07.18.32.15.28.45-.63.1-.58-.54-1.25-.4,0-.2.22-.09.23-.25-.89.18-1.3,1-2.27,1.05.13-.41-.73-.12-.61.33a2.89,2.89,0,0,0-1.93-.07.72.72,0,0,0,.73.38c-.23.54-.88.22-1.42.21.25-.17.07-.19-.22-.18,0,.08.09.07.14.09-1.78.16-3.8-.28-5.85-.31,0-.14.08-.15.08-.26-.88-.2-1.46.17-.3.16,0,.14-.81.12-1.12.22.26-.12,0-.28-.13-.44-.23.4-.57.13-1,.14.13-.28.28,0,.45-.16-.13-.21-.58-.07-.74,0,0,.1.13.08.22.1,0,.19-.32,0-.45.07s.08-.08.08-.17c-.82-.05-1.14,0-1.86,0-.11,0,0,.11,0,.26-.34-.25-.35.16-.74,0,.11-.24.24-.1.6-.15a2.64,2.64,0,0,0-1.7-.06c.11.19.52,0,.66.2-.31.26-.94.07-1.34,0,.35-.46-.42.17-.44-.19-.17,0,.08.14-.08.26-.6-.09-1,.11-1.56,0,.18-.26.34,0,.53-.16-.38-.26-.63.18-1.26,0,.22.24.51,0,.58.28a.55.55,0,0,1-.45.16.46.46,0,0,0,.08-.26c-2.34,0-3.36.17-5.72.22,0-.08.09-.06.15-.08-2-.87-4.44,0-6.74-.25a.34.34,0,0,0,.36.19c-.48.3-.93-.16-1.4-.14.34.47-.33-.31-.08.26l-1,0a.34.34,0,0,1,.38-.16c-2.77-.29-6.16-.09-8.51-.5,0,.09.09.07.14.09-1.61.13-4.63-1.23-6.26-1.11-.22,0-.29.35-.45.25,0,.1,0,.16.07.18-.17.25-.25-.61-.59-.2-.09-.18.55-.21.75-.32a5.54,5.54,0,0,0-3.32-.48c.44-.34-.48-.27-.8-.29-.08-.14.65,0,.75-.24a1.57,1.57,0,0,0-1.56-.06c-.08,0,0-.09,0-.09s-.09-.07-.14-.09c0-.19.26,0,.37-.07s-.26,0-.37-.1c.38-.24-.17-.41-.51-.37-.08,0,.8-.39.32-.6A1,1,0,0,0,36,97.6c-.07-.37-.38-.48-.26-1.06-.16-.13-.61.13-1,.05.07-.15.27-.15.38-.25-.17-.34-.54-.59-.26-1,0-.1-.15-.06-.14-.18-.2-.07-.15.18-.23.25-.15-.25.22-.64.61-.5,0-.32-.3-.39-.65-.38-.22-.14.32-.06.45-.07-.1-.18-.45-.06-.59-.2,0-.19.37,0,.52-.07s.39-.42,0-.44c0-.17.25-.05.23-.25-.32-.15.23-.26-.21-.27,0-.12.19-.07.3-.08.13-.57-.41-.39-.65-.55.06-.19.42,0,.6-.06s0-.36.24-.52c0-.2-.12.1-.22-.1a1.51,1.51,0,0,1,.24-.34c-.22-.3-.95-.25-.06-.26-.14-.21-.51-.17-.73-.29.21-.17.68.09,1,.12.3-.17.19-.41.33-.87-.18-.23-.68-.08-.82.06l0,.44c-.18-.11-.12-.38,0-.53,0-.18-.32,0-.36-.19.36.34,1-1.23.66-1.82-.11-.17-.47.09-.59-.11s.49-.14.6-.07c.06-.54-.32-.6-.72-.64,0-.19.19-.18.38-.16,0-.5-.63-.32-.95-.47.46,0,1.36,0,1.36-.65-.14-.07.08-.13.07,0,.45-.08.32-.58.55-.77C35.74,84.29,36.48,83.94,37,83.34Zm54.75,1.89a6.1,6.1,0,0,0,1.16.74C92.83,85.46,92,85.28,91.77,85.23Zm-16.4-1.85c.48,0,.75.18,1.11,0A1.72,1.72,0,0,0,75.37,83.38Zm9,.69c.22.07.27-.08.45-.07,1.07,0,.1,0-.29-.19.19-.18.78.27,1-.23-.87,0-1.19-.13-1.64.29a.6.6,0,0,0-.82,0C83.69,84.13,84.44,83.66,84.39,84.08Zm-11.11-.59c.41-.24.88.21,1-.14C74,83.4,73.41,83.14,73.29,83.48ZM55.58,82.9a1.88,1.88,0,0,0,1.11,0A1.49,1.49,0,0,0,55.58,82.9Zm2.07.08c.43,0,.59.11.82-.14C58.2,82.82,57.6,82.87,57.65,83Zm-13.34-.33c.24.31,2-.1,2.15,0C46.08,82.37,44.49,82.88,44.31,82.65Zm48,3.57c-.06,0-.15,0-.15.08.26-.13.3.38.44.1-.1-.06-.21-.54-.36-.28C92.3,86.13,92.34,86.14,92.33,86.22Zm.66,10h.37c0-.23-.42-.31-.44-.19S93,96.14,93,96.24Zm.21.45c.18,0,.35-.11.38-.34C93.33,96.32,93.22,96.44,93.19,96.69Zm.29.19c0,.17-.21.1-.16.34.1,0,.06.16.14.18C93.76,97.08,93.47,97.16,93.48,96.88Zm-26.52,5c.2-.13.72.21.9-.14C67.44,101.53,67.19,101.56,67,101.84Zm3.42-.13a1.16,1.16,0,0,0-.82,0A1.14,1.14,0,0,0,70.37,101.71Zm-6.1.38a25.11,25.11,0,0,0,3.86,0l.59,0c.15,0,.68,0,.3-.08-1-.19-2.21.26-2.89-.11.11,0,.38.12.37-.07A6.85,6.85,0,0,0,64.28,102.09ZM56,82c-.14-.19-.61.15-.81-.12,0-.19.26,0,.37-.07-.11-.31-.54,0-.8-.29.52-.14.95-.06,1.71-.2,0,.33-.55,0-.68.24C56.06,81.83,56.3,81.73,56,82Zm12.43.82c-.16.44-1.07-.09-1.34.21C67.06,82.48,68,83,68.42,82.77ZM49.69,81.63c.92-.09,3.32-.15,4.91-.25-.15.3-.68.12-1,.23.23.37.75-.06,1.1.22a30.44,30.44,0,0,1-7.19-.1c-.94.29-2.84-.11-4.45-.17-.1-.23.83.08,1-.14a22.42,22.42,0,0,0-2.52,0c0,.36.52.22.73.38-.85.3-1.77-.44-2.51-.27,2.55-.62,6.69,0,10.16,0C49.9,81.65,49.78,81.61,49.69,81.63Zm2.22.08c.33.2.92,0,1.26,0A1.52,1.52,0,0,0,51.91,81.71Z"/><path class="cls-1" d="M78.71,92.84c.37-.13.66.33.9.08C79.35,92.89,78.83,92.5,78.71,92.84Zm-6,.12a11.29,11.29,0,0,1-1.67.22c-.1-.35,1.16-.14,1.28-.21ZM60.48,94.63c2.58-.82,6.28-1,9.15-1.5-.1.31-.62.24-1,.3C65.88,93.83,63,94.29,60.48,94.63Zm6.72-.89c.36.29.75.25,1.42.21.23.16-.4.09-.58.11-.4.05-.78.17-1,0C67.12,94,67.17,93.87,67.2,93.74Zm-13.68.92c-.2.17-.58.12-.82.22C52.85,94.49,53.32,94.61,53.53,94.65Zm10.16-.34c0,.27-.21.27.14.26,0,.12-.54.15-.76.21,0-.08,0-.16.12-.18s-.12-.07-.2-.08C63.11,94.31,63.54,94.49,63.68,94.31Zm13.05-.21c.11-.17.33-.19.58-.18s-.47,0-.19.18C77.07,94.33,76.92,94,76.74,94.1Zm4.69,0c.09-.2.45,0,.64-.09C82,94.23,81.62,94.06,81.43,94.12Zm1.54,0c.23.35-.4.26-.64.27A.89.89,0,0,1,83,94.11Zm1.35,16.74c.26,0,0,.55,0,.79C84,111.47,84.44,111.28,84.33,110.85Zm-13.58,2.42c-.1.2-.47,0-.68.11C70.26,113.14,70.47,113.24,70.75,113.27Zm-10.62,1.39c-.12.27-.89,0-1.3.07C59.18,114.34,59.57,114.56,60.13,114.66Zm-2.16.11c-.1.21-.47.06-.68.12C57.35,114.65,57.81,114.64,58,114.77Zm-2.41.22c.06-.12.64-.26.62.05C56,114.83,55.73,115.13,55.56,115Zm26-22.37c.1-.16.33.25.52.26-.05.31-.33-.22-.39.09C81.5,92.9,81.8,92.65,81.54,92.63ZM35.65,98.32c-.16-.33-.51-.36-.76-.54.48-.77,1.69,0,2.18-.82a7.41,7.41,0,0,0,3.5-.57c0-.19-.23,0-.33-.06,2.12-.36,4.61.14,7.07-.2.49,0-.31.17-.31.11,0,.29.79-.08.64,0a15.84,15.84,0,0,1,2.68-.27c0-.19-.1-.16-.2-.16,2.48-.53,6.36-.38,8.5-1.11v.17c.46-.41,1.12-.21,1.6-.25-.84.43-2.57.38-3.7.72,1,.13,2.27,0,3,0a9.87,9.87,0,0,1-2.11.29c1,.32,2.14-.08,3.34-.08-.25-.19-.75,0-1.09,0,.26-.49.7-.31,1-.31,3,0,5.84-.42,8.72-.61a4.61,4.61,0,0,0,.57-.19c2.39-.49,5,0,7.33-.08,0-.09-.08-.07-.13-.09.6-.13,1.49.07,2.05-.3-.07-.28-.56.32-.58-.17.2.11.65-.08,1,0,0-.36-.13,0-.26-.08.24-.33.47-.21.83-.45,0-.15-.05-.16-.13-.17.06-.25.27,0,.39,0-.17.29-.35.56-.77.53a1.27,1.27,0,0,0,1.1.43c-.36.44-1.11.13-2,.29,0,.08.06.16.13.17,0,.21-.17-.1-.26-.08s-.13.22-.12.44c1.28.11,2.16-.71,3.21-.39-.16.23-.34.12-.7.18,0,.1.12.07.19.09a5.56,5.56,0,0,1-1.6.19,3,3,0,0,0,2.18,0c0-.1-.12-.07-.19-.09.26-.5.7-.07,1,.17,0,.11-.37-.07-.58,0,.13.18.24.32.45.17-.21.4.75.52,1,.43,0-.34-.19,0-.26-.26,0,.31-.25,0-.58.09,0-.19.09-.17.19-.18s-.08-.07-.13-.09a3.5,3.5,0,0,1,1.09.17c-.2,0-.16.2-.19.44.42.46,1,.74,1,1.75-.28-.44-.43-1.1-1-1-.06.35.22,1,.58,1,0,.12-.35-.07-.13.18,0,.17-.24-.07-.32-.09.23-.13,0-.34-.26-.35.11.27.15.61.45.61-.2.19,0,.39-.12.61-.24-.1-.2-.61-.45-.7-.2.27.37.38.13.7,0-.05.34.33.32,0a.82.82,0,0,0,.39,1c.06.27-.13.82.07.53.18.12-.15.51-.25.26a5.66,5.66,0,0,0,.45,1.05c0,.15-.11.2-.25.18,0,.52,0,.6.19.79-.2,0-.21.23-.44.18.13.33.17.36.38.44-.28.22.18.47.13.7a.46.46,0,0,1,.51,0c.11.2-.33-.13-.38.18s.32.13.38.35-.33.07-.31.35c.4.67.22,2,.89,2.19a1.48,1.48,0,0,0,.13.53.3.3,0,0,0-.44,0c0,.22.09.34.25.35-.08.27-.24-.06-.31-.09-.21.14-.21.31-.25.53-.47,0-.82,0-1,.62,0,.25.15.25.31.26s.06-.17,0-.17c.08-.15.43.39.25.61.23-.06.24.19.44.17,0,.41-.14-.18-.37,0,.36.16,0,.26-.19.44,0,.22.24.29.06.53.07.22.26-.21.25.17-.42.21-.63-.15-1,0,.09.23.2.27-.06.18,0,.06-.11.4.06.44a.26.26,0,0,1-.25.18c.06.18.28.14.25.44-.52.13-.51-.51-1.06-.35,0-.2.18-.1.18-.26-.74.21-1.05,1-1.86,1.16.09-.42-.62-.09-.49.36-.9-.16-.62-.27-1.61,0a.58.58,0,0,0,.63.34c-.17.55-.72.27-1.17.28.2-.18,0-.19-.19-.17,0,.08.08.07.13.09-1.48.25-3.19-.08-4.9,0,0-.14.05-.15.06-.26-.75-.15-1.21.26-.24.18,0,.14-.67.17-.92.29.21-.13,0-.28-.14-.43-.17.42-.47.16-.86.2.09-.29.23,0,.37-.19-.12-.21-.49,0-.62,0s.12.07.19.08c0,.19-.26,0-.37.1s.06-.09.06-.18a14.08,14.08,0,0,0-1.55.13c-.09,0,0,.11,0,.26-.3-.23-.28.19-.62,0,.08-.25.2-.12.49-.19a1.87,1.87,0,0,0-1.43,0c.1.18.43,0,.56.16-.24.28-.78.13-1.11.13.26-.48-.34.2-.38-.16-.14.05.08.13-.05.27-.5,0-.8.17-1.3.14.13-.27.29,0,.43-.19-.33-.23-.51.22-1,.13.2.22.43,0,.51.24a.43.43,0,0,1-.36.19.53.53,0,0,0,.05-.26c-1.95.19-2.79.42-4.75.65,0-.08.07-.07.12-.09-1.76-.71-3.7.33-5.63.31a.28.28,0,0,0,.32.16c-.37.34-.79-.08-1.18,0,.33.44-.3-.28,0,.27l-.87.06a.27.27,0,0,1,.3-.19c-2.33,0-5.12.48-7.12.32,0,.08.08.06.13.08-1.32.29-4-.74-5.32-.45-.18,0-.2.38-.35.3,0,.1,0,.15.08.17-.11.27-.28-.58-.51-.13-.1-.17.43-.27.59-.4a4,4,0,0,0-2.81-.1c.32-.38-.43-.22-.7-.2-.09-.13.53-.1.59-.32a1.13,1.13,0,0,0-1.3.12,0,0,0,0,1,0-.09c0-.08-.08-.06-.13-.08,0-.19.22-.06.3-.12s-.22,0-.32-.06c.29-.29-.2-.38-.47-.31-.07,0,.62-.48.19-.63a1,1,0,0,0,.38-.65c-.1-.36-.38-.43-.35-1-.15-.11-.49.2-.8.16,0-.16.2-.18.29-.29-.19-.31-.53-.53-.34-.94,0-.09-.13,0-.14-.16-.17,0-.1.19-.16.28a.41.41,0,0,1,.45-.57c-.08-.31-.31-.36-.6-.3-.2-.12.26-.1.37-.12-.1-.16-.39,0-.52-.13s.3-.06.43-.13.27-.47,0-.44c0-.17.2-.08.16-.28-.29-.12.16-.28-.21-.24,0-.12.15-.09.24-.11,0-.58-.39-.34-.61-.47,0-.2.35-.07.49-.13s0-.36.14-.54c-.05-.19-.09.12-.2-.07a1.56,1.56,0,0,1,.15-.37c-.22-.27-.83-.14-.09-.26-.14-.19-.45-.11-.65-.2.16-.2.59,0,.83,0,.23-.2.11-.43.17-.9-.18-.2-.58,0-.68.15l0,.44c-.17-.09-.15-.37-.05-.52s-.28,0-.33-.14c.34.3.7-1.34.33-1.88-.11-.16-.38.15-.51,0s.39-.2.5-.14c0-.54-.35-.56-.69-.55,0-.19.14-.2.3-.2-.07-.5-.58-.24-.87-.36.4-.05,1.16-.13,1.07-.81-.13,0,.06-.14.06,0,.37-.13.2-.61.37-.83C34.69,99.41,35.27,99,35.65,98.32Zm47.27-2.54a5.2,5.2,0,0,0,1,.7C83.85,96,83.15,95.81,82.92,95.77Zm-14.26-.95c.42,0,.66.13,1-.12A1.3,1.3,0,0,0,68.66,94.83ZM76.5,95c.2.06.23-.09.38-.09.93-.06.09,0-.26-.17.15-.19.69.23.83-.28-.75.08-1-.07-1.41.37a.47.47,0,0,0-.71,0C75.89,95.06,76.52,94.56,76.5,95Zm-9.63.09c.34-.27.78.15.89-.21C67.47,94.94,66.94,94.72,66.86,95.06Zm-15.32.85a1.43,1.43,0,0,0,1-.15A1.13,1.13,0,0,0,51.54,95.92Zm1.79-.11c.37-.09.52.05.69-.22C53.79,95.6,53.28,95.7,53.34,95.81Zm-11.51,1c.25.28,1.69-.32,1.85-.24C43.31,96.33,42,97,41.83,96.81Zm41.61-.07s-.13,0-.13.09c.22-.14.28.37.38.09-.09-.06-.2-.54-.32-.26C83.41,96.65,83.45,96.66,83.44,96.74Zm.94,10h.31c0-.23-.37-.3-.38-.17S84.38,106.62,84.37,106.73Zm.19.44c.15-.06.29-.12.31-.35C84.67,106.79,84.57,106.92,84.56,107.16Zm.25.17c0,.17-.17.11-.12.35.08,0,.06.15.13.17C85.05,107.53,84.82,107.62,84.81,107.34Zm-22,6.49c.16-.14.62.15.74-.21C63.21,113.48,63,113.53,62.82,113.83Zm2.84-.38a.82.82,0,0,0-.68,0A.81.81,0,0,0,65.66,113.45Zm-5.05.84a17.85,17.85,0,0,0,3.21-.32l.5,0c.12,0,.57-.06.24-.1-.86-.12-1.82.42-2.42.11.09-.05.32.09.31-.1A4.88,4.88,0,0,0,60.61,114.28ZM51.8,94.94c-.14-.18-.51.21-.71,0,0-.19.23-.05.32-.11-.12-.3-.47,0-.72-.22.43-.19.81-.15,1.46-.36,0,.33-.47.08-.56.3C51.86,94.81,52.05,94.69,51.8,94.94Zm10.8-.23c-.1.45-.93,0-1.14.32C61.41,94.52,62.27,95,62.61,94.71Zm-16.26.51c.78-.18,2.85-.49,4.21-.73-.1.31-.57.18-.82.32.24.34.64-.13,1,.11a24,24,0,0,1-6.21.62c-.78.38-2.46.19-3.85.31-.12-.22.72,0,.82-.24-.77-.12-1.37.28-2.17.27.07.35.47.16.67.29-.7.39-1.58-.24-2.19,0,2.12-.91,5.75-.75,8.75-1.07C46.53,95.22,46.42,95.2,46.34,95.22Zm1.92-.14c.3.16.8-.05,1.08-.17C49,94.83,48.48,94.82,48.27,95.08Z"/><path class="cls-1" d="M88,99.38c.51-.09.85.41,1.2.19C88.85,99.51,88.19,99.06,88,99.38Zm-8-.57a21.1,21.1,0,0,1-2.26.06c-.1-.36,1.57,0,1.74-.09Zm-16.56.67c3.52-.68,8.5-.53,12.4-.8-.16.3-.86.17-1.4.2C70.7,99,66.81,99.28,63.4,99.47Zm9.09-.4a3.32,3.32,0,0,0,1.89.33c.29.18-.55.05-.78.06a3.08,3.08,0,0,1-1.3,0C72.35,99.29,72.44,99.2,72.49,99.07Zm-18.43.09c-.28.16-.78.09-1.12.19C53.17,99,53.78,99.11,54.06,99.16Zm13.66.21c-.08.27-.3.25.17.27.05.12-.74.11-1,.15,0-.08.08-.16.18-.17s-.16-.08-.26-.09C66.95,99.32,67.51,99.54,67.72,99.37Zm17.51,1a1,1,0,0,1,.79-.11c.37.17-.64,0-.27.15C85.65,100.67,85.49,100.29,85.23,100.39Zm6.28.62c.14-.19.6,0,.87,0C92.24,101.19,91.77,101,91.51,101Zm2.06.2c.27.38-.57.2-.88.17A1.43,1.43,0,0,1,93.57,101.21Zm0,16.83c.34,0-.09.55-.08.79C93.09,118.62,93.64,118.48,93.54,118Zm-18,.82c-.15.19-.62,0-.9,0C74.89,118.68,75.15,118.8,75.52,118.85Zm-14,.59c-.18.26-1.17-.06-1.71,0C60.27,119.08,60.76,119.31,61.5,119.45Zm-2.84,0c-.14.2-.62,0-.89.09C57.85,119.3,58.46,119.31,58.65,119.45Zm-3.17.12c.08-.11.85-.24.81.08C56,119.42,55.69,119.71,55.48,119.57Zm36.34-20c.15-.14.41.3.67.32-.1.31-.42-.26-.53,0C91.73,99.81,92.16,99.6,91.82,99.54Zm-61.9,3.2c-.21-.33-.67-.34-1-.52.66-.79,2.27,0,2.95-.88a13.59,13.59,0,0,0,4.71-.63c0-.19-.31,0-.44-.06,2.86-.38,6.18.12,9.49-.19.66,0-.42.16-.43.1,0,.29,1.07-.07.86,0a26.47,26.47,0,0,1,3.61-.22c0-.19-.13-.16-.26-.17,3.36-.48,8.56-.16,11.47-.78v.17c.64-.38,1.52-.15,2.16-.16-1.16.36-3.47.24-5,.52,1.3.18,3,.08,4.05.17a18,18,0,0,1-2.85.18c1.29.37,2.88,0,4.48.11-.32-.21-1,0-1.46-.1.38-.47,1-.27,1.38-.25,4,.19,7.87,0,11.74.06a7.86,7.86,0,0,0,.78-.14c3.25-.26,6.7.47,9.82.7,0-.09-.1-.08-.17-.1.82-.06,2,.25,2.78,0-.06-.29-.79.25-.76-.24.25.13.88,0,1.38.12.06-.35-.18-.06-.34-.12.35-.3.66-.15,1.16-.34,0-.15-.05-.17-.16-.19.11-.24.36.06.52,0a1.13,1.13,0,0,1-1.08.43,2,2,0,0,0,1.43.57c-.53.39-1.49,0-2.69,0,0,.08.06.16.16.19,0,.2-.22-.12-.34-.11s-.2.21-.21.42c1.69.27,3-.43,4.33,0-.24.21-.46.07-1,.09,0,.1.15.09.25.11a9.93,9.93,0,0,1-2.16,0,5.37,5.37,0,0,0,2.92.27c0-.1-.15-.09-.25-.11.4-.47.94,0,1.27.29,0,.1-.49-.12-.77-.07.15.2.29.35.58.23-.33.37.95.63,1.33.58.07-.33-.26,0-.32-.3,0,.31-.34,0-.78,0,0-.19.14-.15.27-.15s-.1-.08-.16-.1a6.17,6.17,0,0,1,1.44.33c-.26-.07-.24.17-.3.41.5.51,1.19.87,1.1,1.88-.32-.48-.45-1.15-1.18-1.09a1,1,0,0,0,.66,1.13c0,.12-.46-.12-.19.16,0,.17-.31-.1-.42-.13.32-.1,0-.35-.3-.38.11.28.14.63.53.67-.28.16-.06.39-.23.59-.31-.14-.2-.63-.52-.76-.29.24.45.43.1.72,0,0,.42.37.42,0a.75.75,0,0,0,.41,1c0,.28-.27.8,0,.53.23.15-.25.49-.37.23.19.35.22.83.48,1.11,0,.15-.17.18-.35.14,0,.52,0,.6.17.81-.26,0-.3.2-.6.11.13.34.19.38.46.49-.39.17.18.5.09.72a.78.78,0,0,1,.67.07c.12.21-.42-.17-.52.12.07.2.41.18.46.4-.13.13-.44,0-.45.31.45.72.08,2,.93,2.3a1.19,1.19,0,0,0,.11.54.5.5,0,0,0-.58-.06.32.32,0,0,0,.29.38c-.13.25-.31-.09-.4-.13-.3.11-.31.28-.39.49-.61-.06-1.08-.07-1.38.47,0,.24.18.27.38.3s.1-.16,0-.17c.12-.14.52.45.26.64.31,0,.29.22.56.23-.05.41-.17-.2-.49-.05.45.21-.08.25-.29.41,0,.22.28.32,0,.53.07.23.36-.18.31.21-.57.15-.81-.24-1.31-.14.09.24.24.3-.1.17,0,.06-.18.38,0,.44a.35.35,0,0,1-.34.14c.06.18.35.18.28.47-.7.05-.61-.58-1.35-.49,0-.2.24-.07.27-.24-1,.11-1.49.89-2.55.91.16-.41-.8-.17-.68.29a3.39,3.39,0,0,0-2.11-.18.83.83,0,0,0,.78.41c-.28.52-1,.18-1.56.14.29-.16.08-.18-.23-.19,0,.08.09.08.16.1-2,.06-4.16-.45-6.42-.54,0-.14.09-.15.1-.26-1-.23-1.61.14-.34.15,0,.13-.9.1-1.24.2.28-.11,0-.28-.14-.45-.26.4-.62.12-1.15.12.15-.28.3,0,.5-.15-.14-.22-.64-.08-.81,0,0,.1.14.08.24.1,0,.19-.35,0-.49.06,0-.07.09-.08.09-.17-.91-.07-1.25,0-2,0-.12,0,0,.11,0,.26-.37-.25-.39.16-.81,0,.12-.24.27-.1.66-.15a3.18,3.18,0,0,0-1.87-.07c.12.19.57.05.73.2-.34.25-1,.06-1.47,0,.38-.45-.46.17-.48-.19-.19,0,.09.14-.09.26-.65-.09-1.07.11-1.71,0,.19-.26.38,0,.57-.16-.42-.25-.69.18-1.39.05.24.24.56,0,.64.28a.64.64,0,0,1-.49.16.43.43,0,0,0,.09-.26c-2.57,0-3.69.23-6.27.34,0-.08.1-.07.16-.09-2.26-.8-4.87.14-7.4,0a.39.39,0,0,0,.41.17c-.5.32-1-.11-1.55-.07.4.45-.38-.29-.08.27l-1.14,0a.39.39,0,0,1,.4-.19c-3-.11-6.74.35-9.35.18,0,.08.1.06.17.08-1.74.27-5.18-.75-7-.44-.24,0-.28.38-.47.3,0,.1,0,.15.09.17-.16.27-.35-.58-.66-.12-.12-.17.57-.28.78-.41a6.66,6.66,0,0,0-3.69-.06c.43-.39-.56-.21-.92-.18-.11-.13.7-.12.79-.34a1.88,1.88,0,0,0-1.71.16c-.09,0-.05-.08,0-.09s-.11-.06-.17-.07c0-.19.29-.07.4-.13s-.29,0-.42,0c.39-.29-.24-.38-.6-.3-.09,0,.83-.5.27-.64a1,1,0,0,0,.52-.66c-.12-.36-.48-.42-.42-1-.19-.11-.66.22-1.06.19.06-.16.27-.19.39-.3-.24-.31-.68-.51-.42-.93,0-.09-.17,0-.18-.16-.23,0-.14.2-.22.29-.2-.23.15-.67.61-.59-.09-.31-.39-.35-.78-.28-.27-.11.35-.11.49-.13-.13-.16-.51,0-.68-.11,0-.2.4-.07.57-.14s.37-.48,0-.44c0-.17.27-.09.22-.29-.37-.11.22-.29-.27-.24,0-.12.2-.09.32-.12.07-.58-.51-.33-.8-.45,0-.2.46-.08.66-.15s-.05-.36.2-.55c-.07-.19-.12.12-.26-.06a1.49,1.49,0,0,1,.22-.37c-.28-.26-1.1-.11-.11-.25-.18-.19-.6-.09-.86-.18.21-.2.78,0,1.09,0,.31-.21.16-.43.25-.9-.23-.2-.78,0-.91.17l0,.44c-.22-.08-.19-.36-.05-.52,0-.18-.37,0-.44-.14.45.29,1-1.36.5-1.9-.14-.16-.51.16-.68,0s.53-.21.67-.15c0-.54-.45-.55-.9-.53,0-.19.19-.21.41-.21-.07-.5-.76-.22-1.14-.33.53-.06,1.55-.17,1.46-.84-.17,0,.08-.14.08,0,.5-.14.29-.62.52-.84C28.59,103.87,29.39,103.42,29.92,102.74Zm63.4.11a7.47,7.47,0,0,0,1.3.84C94.54,103.18,93.63,102.92,93.32,102.86Zm-19-2.57c.56,0,.87.18,1.3,0A2.25,2.25,0,0,0,74.34,100.28Zm10.48,1c.26.08.32-.06.52,0,1.25.06.12,0-.33-.2.23-.17.9.31,1.14-.18-1,0-1.38-.2-1.92.2a.77.77,0,0,0-.95-.06C84,101.25,84.89,100.83,84.82,101.24Zm-12.9-.87c.47-.24,1,.22,1.21-.13C72.74,100.29,72.06,100,71.92,100.37Zm-20.6,0a2.53,2.53,0,0,0,1.29-.12A2,2,0,0,0,51.32,100.36Zm2.41-.06c.5-.07.7.07.95-.19C54.36,100.12,53.66,100.2,53.74,100.3Zm-15.49.83c.32.28,2.28-.33,2.49-.24C40.26,100.65,38.48,101.34,38.25,101.13Zm55.66,2.75c-.07,0-.17,0-.18.07.3-.11.33.41.5.14-.11-.07-.21-.56-.4-.31C93.88,103.8,93.93,103.81,93.91,103.89Zm.15,10.06.41,0c.07-.22-.45-.35-.48-.23S94.08,113.85,94.06,113.95Zm.2.46c.2,0,.4-.08.45-.31A.34.34,0,0,0,94.26,114.41Zm.31.21c0,.17-.24.09-.2.33.11,0,.06.16.15.19C94.86,114.85,94.54,114.9,94.57,114.62Zm-29.49,4.16c.22-.13.8.19,1-.16C65.61,118.46,65.33,118.49,65.08,118.78Zm3.75-.18a1.39,1.39,0,0,0-.9,0A1.37,1.37,0,0,0,68.84,118.6Zm-6.69.5a31.5,31.5,0,0,0,4.23-.12l.65,0c.16,0,.75,0,.33-.08-1.12-.19-2.42.3-3.18-.06.12,0,.42.11.41-.08A8.19,8.19,0,0,0,62.15,119.1ZM51.73,99.39c-.18-.18-.7.19-1-.06,0-.19.31,0,.43-.1-.15-.31-.63,0-1-.24.59-.18,1.1-.12,2-.32,0,.33-.64.07-.77.28C51.81,99.26,52.08,99.14,51.73,99.39Zm14.51.3c-.17.45-1.25-.06-1.56.24C64.65,99.43,65.78,99.92,66.24,99.68Zm-21.86-.13c1.06-.16,3.85-.45,5.69-.65-.15.31-.78.16-1.12.29.3.35.87-.11,1.3.14a47.82,47.82,0,0,1-8.37.52c-1.06.37-3.31.19-5.18.32-.15-.22,1,0,1.11-.25a27.68,27.68,0,0,0-2.93.29c.08.35.62.15.89.29-.95.4-2.11-.21-2.94.05,2.87-1,7.75-.82,11.8-1.1C44.63,99.56,44.49,99.54,44.39,99.55ZM47,99.45a2.68,2.68,0,0,0,1.47-.15A2,2,0,0,0,47,99.45Z"/><path d="M70.52,120.2c.08.25-.41.32-.2.52C70.38,120.57,70.83,120.34,70.52,120.2Zm.67-3.62c-.14-.44,0-.78,0-1,.36,0,0,.72.06.81ZM70.72,109c.64,1.61.44,3.87.66,5.67-.29-.11-.16-.41-.18-.66C71.07,112.33,70.88,110.56,70.72,109Zm.3,4.13c-.32.18-.32.42-.35.83-.18.11,0-.25,0-.36s-.09-.49.06-.58Zm.1-8.32c-.16-.12-.08-.35-.18-.5C71.33,104.42,71.18,104.7,71.12,104.83ZM70.78,111c-.27-.05-.25-.15-.27.06-.12,0-.1-.34-.14-.48.08,0,.15,0,.17.09s.08-.07.1-.11C70.83,110.62,70.61,110.87,70.78,111Zm-1.22,7.79a.29.29,0,0,1,.1.38c-.18.14,0-.29-.15-.15C69.29,118.91,69.66,118.9,69.56,118.76Zm-.69,2.75c.18.1,0,.27,0,.4C68.69,121.81,68.9,121.64,68.87,121.51Zm-.22.91c-.37,0-.19-.3-.16-.44A.45.45,0,0,1,68.65,122.42Zm-16.37-3.58c0,.11-.53-.15-.76-.2C51.71,118.55,51.85,118.78,52.27,118.84Zm-.93-6.5c-.19-.07,0-.21,0-.31C51.52,112.14,51.39,112.22,51.34,112.34Zm-.57-4.78c-.26-.07.07-.39,0-.57C51.15,107.16,50.91,107.32,50.77,107.56Zm0-1c-.2,0,0-.21-.08-.3C51,106.34,50.94,106.55,50.79,106.61Zm-.09-1.06c.11,0,.23.28-.08.27C50.84,105.74,50.56,105.62,50.7,105.55Zm19.6,16.39c.14.1-.3.13-.33.25-.3-.11.27-.15,0-.25C70,121.85,70.24,122.08,70.3,121.94ZM67.77,94.3c.33-.14.34-.35.52-.52.77.19,0,1,.85,1.21A2.85,2.85,0,0,0,69.73,97c.19,0,0-.14.06-.2.36,1.26-.17,2.79.1,4.25,0,.29-.16-.18-.1-.18-.29,0,.06.47,0,.38a5.3,5.3,0,0,1,.19,1.6c.19,0,.17-.06.17-.12.45,1.49.08,3.81.67,5.13h-.17c.38.3.14.69.14,1-.35-.53-.2-1.57-.47-2.26a15.53,15.53,0,0,0-.21,1.8,3.69,3.69,0,0,1-.15-1.27c-.38.57-.06,1.28-.15,2,.21-.13.05-.44.12-.65.47.18.26.44.23.62-.24,1.77-.07,3.51-.18,5.25,0,.12.11.25.13.37.22,1.5-.55,3-.81,4.34.08,0,.08,0,.1-.06,0,.38-.27.86,0,1.27.29,0-.23-.4.24-.31-.13.09,0,.4-.13.61.35.09.06-.07.12-.13.28.21.14.33.31.59.14,0,.17,0,.19,0,.23.09-.06.16-.05.23-.25-.17-.5-.34-.41-.58-.28.12-.57.22-.58.55-.38-.32,0-.68,0-1.23-.08,0-.16,0-.19,0-.2-.05.12-.08.12-.13s-.2-.13-.41-.17c-.28.72.38,1.42-.09,2-.2-.15-.07-.22-.07-.45-.1,0-.09.05-.11.09a2.09,2.09,0,0,1,0-1,1.15,1.15,0,0,0-.3,1.27c.1,0,.09-.05.11-.09.45.27,0,.43-.31.52-.1,0,.13-.2.08-.34-.19,0-.35.06-.23.22-.36-.22-.62.3-.58.48.32.1,0-.12.29-.08-.31-.07,0-.15,0-.35.19,0,.15.09.14.15s.08,0,.1-.05a1.35,1.35,0,0,1-.34.58c.07-.1-.17-.14-.39-.22a2.8,2.8,0,0,1-1.84.09c.47,0,1.13,0,1.08-.29-.33-.12-1-.13-1.1.05-.12,0,.13-.18-.15-.12s.1-.11.13-.16c.09.16.34.07.38-.05-.27,0-.61-.07-.66.09-.15-.16-.38-.11-.57-.23.14-.11.62,0,.74-.07-.23-.18-.42.11-.7-.11,0,0-.37.1,0,.18a1.18,1.18,0,0,0-1,0c-.27,0-.77-.29-.52-.1-.15.06-.47-.21-.22-.2a9.22,9.22,0,0,0-1.08,0c-.15,0-.18-.11-.13-.18a1.71,1.71,0,0,0-.79-.11c0-.1-.2-.17-.11-.27-.33,0-.37,0-.48.08-.17-.2-.48,0-.69-.12.07.12.05.19-.07.26s.17-.13-.12-.24-.17.13-.39.1,0-.18-.3-.25c-.7,0-1.92-.41-2.23-.15a2.81,2.81,0,0,0-.52-.08.11.11,0,0,0,.06-.21q-.32-.08-.37,0c-.25-.11.09-.1.12-.13a1,1,0,0,0-.48-.26c.06-.22.06-.4-.47-.63-.24-.07-.26,0-.29.08s.16.07.17,0-.44.09-.62,0c0,.12-.21.06-.22.16-.4-.11.19,0,0-.17-.2.12-.25-.09-.4-.2s-.31,0-.52-.11.17.17-.2.07c-.15-.24.23-.24.12-.45-.23,0-.29,0-.16-.07-.06,0-.37-.15-.43-.08s-.14-.1-.14-.15c-.18,0-.17.09-.45,0-.06-.26.56-.09.46-.38.2,0,.07.1.23.15-.11-.38-.88-.72-.91-1.1.4.14.16-.25-.29-.3.25-.36.34-.21.16-.71-.25,0-.39.06-.4.2-.52-.19-.19-.37-.15-.57.16.13.18.06.19,0s-.07,0-.1,0c-.08-.69.4-1.36.48-2.13a1.87,1.87,0,0,1,.25.07c.22-.3-.14-.57-.15-.14-.13,0-.11-.32-.2-.45.11.11.28,0,.44,0-.39-.14-.12-.23-.12-.41.28.08,0,.1.15.19s.08-.21,0-.28-.08,0-.1.07c-.19,0,0-.12-.06-.18a1.36,1.36,0,0,0,.17.05,2.59,2.59,0,0,0,0-.7s-.11,0-.26,0c.25-.1-.16-.15,0-.27.24.07.1.1.15.24.14-.18.31-.44.07-.63-.19,0-.05.19-.2.23-.25-.14-.06-.36,0-.5.45.17-.17-.17.19-.15,0-.07-.14,0-.26-.05.09-.22-.11-.37,0-.58.26.08,0,.13.16.21.25-.12-.18-.25-.05-.47-.24.07,0,.19-.28.2-.12,0-.16-.11-.16-.18a1.11,1.11,0,0,0,.26,0c0-.87-.22-1.26-.31-2.12.08,0,.07,0,.08.06.81-.74-.1-1.64,0-2.48q-.19,0-.17.14c-.31-.16.12-.34.08-.52-.45.14.3-.13-.26,0l0-.38c.13,0,.19.06.18.13.15-1-.24-2.24,0-3.12-.08,0-.06,0-.08.06-.24-.55.85-1.83.59-2.41,0-.08-.37,0-.29-.12-.1,0-.15,0-.17.05-.27,0,.58-.19.14-.24.17-.06.26.16.39.22a1,1,0,0,0,.15-1.29c.38.1.22-.23.2-.35s.1.23.31.23a.31.31,0,0,0-.11-.58s.08,0,.09,0,.06,0,.08-.07c.19,0,.06.09.11.12s0-.11.06-.16c.28.09.38-.15.31-.26s.47.22.62,0a1.24,1.24,0,0,0,.64.08,3.86,3.86,0,0,1,1-.31c.11-.09-.2-.21-.16-.36.16,0,.18.07.29.1a1.7,1.7,0,0,1,.92-.31c.09,0,0-.07.16-.09s-.19,0-.28,0c.23-.11.65-.05.56.14.3-.08.35-.21.29-.34.11-.12.1.12.12.17s0-.2.13-.28.06.14.13.2.46.07.43-.09c.16,0,.08.09.28,0s.28,0,.24-.14c.12,0,.09.06.11.11.57-.06.33-.25.46-.39s.07.17.13.24.35-.08.54,0-.11,0,.07-.11a2.24,2.24,0,0,1,.36,0c.26-.15.13-.46.25-.08.19-.1.1-.25.2-.38.19.05,0,.31,0,.44.2.09.43,0,.89,0,.2-.13,0-.31-.16-.35l-.43.09a.67.67,0,0,1,.52-.1c.18,0,0-.15.14-.2-.29.23,1.33.19,1.86-.09.16-.08-.15-.19,0-.29s.2.19.14.26c.53-.09.54-.27.54-.47.19,0,.2.05.21.14.49-.11.23-.36.34-.54.06.22.15.64.81.49,0-.08.14,0,0,0,.13.19.6,0,.82.1A2.8,2.8,0,0,1,67.77,94.3ZM67,122a3.82,3.82,0,0,0-.83.41A.8.8,0,0,0,67,122Zm2.75-8.1c0,.25-.19.37,0,.58C69.93,114.33,69.93,114,69.79,113.87Zm-1.07,4.58c-.09.1.06.15,0,.24-.07.55,0,.06.2-.12.16.13-.32.35.16.54,0-.45.21-.6-.18-.9.22,0,.27-.25.07-.42C68.73,118.08,69.13,118.54,68.73,118.44Zm1-5.67c.23.23-.23.44.12.55C69.8,113.15,70.07,112.87,69.74,112.78Zm.21-9.16a.55.55,0,0,0,.11.57C70.21,104,70.08,103.77,69.95,103.62Zm0,1.07c.07.22-.08.31.18.42C70.16,105,70.09,104.66,70,104.7Zm-.68-6.86c-.28.17.3,1,.22,1.09C69.77,98.69,69.09,98,69.3,97.84ZM66,122s0-.07-.07-.09c.1.16-.4.06-.14.19.07,0,.55,0,.3-.11C66.12,122,66.1,122,66,122Zm-9.79-2.09,0,.15c.22.08.33-.1.22-.14S56.34,120,56.25,119.94Zm-.45,0c0,.09.08.17.3.24C56.15,120.06,56,120,55.8,119.91Zm-.2.07c-.17,0-.09-.11-.32-.15,0,0-.16,0-.18,0C55.38,120,55.33,119.91,55.6,120ZM51.42,108.8c.13.08-.19.26.16.34C51.74,109,51.7,108.89,51.42,108.8Zm.17,1.29c.15-.12.07-.23,0-.3A.19.19,0,0,0,51.59,110.08Zm-.47-2.29a3.62,3.62,0,0,0,.1,1.43l0,.22c0,.05,0,.25.08.12.19-.37-.29-.83.07-1.07,0,0-.11.14.08.14C51.33,108.27,51.41,108,51.12,107.79Zm19.8-4c.18-.09-.19-.31.07-.43s0,.14.1.19c.31-.07,0-.28.24-.44.17.26.11.5.3.89-.33,0-.07-.29-.28-.34C71,103.81,71.16,103.93,70.92,103.78Zm-.44,6.51c-.44-.1.07-.56-.23-.71C70.75,109.59,70.25,110.07,70.48,110.29Zm.34-9.82c.15.47.42,1.72.6,2.55-.31-.06-.15-.35-.28-.5-.35.15.1.39-.15.59a9.82,9.82,0,0,1-.45-3.75c-.36-.45-.16-1.48-.27-2.32.21-.09,0,.44.24.48.12-.48-.27-.81-.27-1.3-.35.08-.15.3-.29.44-.39-.38.22-1,0-1.33.94,1.2.75,3.45,1,5.25C70.81,100.58,70.83,100.52,70.82,100.47Zm.08,1.17c-.17.19,0,.48.13.66C71.13,102.1,71.16,101.76,70.9,101.64Z"/></g></svg>